NewspaperText-Regular.ufo
<glyph name="quotedbl" format="2">
  <advance width="396"/>
  <unicode hex="0022"/>
  <note>
quotedbl
</note>
  <outline>
    <contour>
      <point x="73.02" y="568.35" type="curve" smooth="yes"/>
      <point x="100.94" y="397.36" type="line"/>
      <point x="128.94" y="397.36" type="line"/>
      <point x="171.94" y="766.75" type="line"/>
      <point x="152.77" y="766.75" type="line"/>
      <point x="15.01" y="678.11" type="line"/>
      <point x="15.01" y="663.73" type="line"/>
      <point x="23.3" y="662.49"/>
      <point x="31.26" y="659.22"/>
      <point x="38.07" y="654.33" type="curve" smooth="yes"/>
      <point x="44.53" y="649.69"/>
      <point x="49.92" y="643.64"/>
      <point x="54.13" y="636.89" type="curve" smooth="yes"/>
      <point x="58.34" y="630.14"/>
      <point x="61.39" y="622.72"/>
      <point x="63.71" y="615.11" type="curve" smooth="yes"/>
      <point x="68.35" y="599.9"/>
      <point x="70.46" y="584.05"/>
    </contour>
    <contour>
      <point x="283.03" y="568.34" type="curve" smooth="yes"/>
      <point x="310.95" y="397.35" type="line"/>
      <point x="338.95" y="397.35" type="line"/>
      <point x="381.95" y="766.74" type="line"/>
      <point x="362.78" y="766.74" type="line"/>
      <point x="225.02" y="678.1" type="line"/>
      <point x="225.02" y="663.72" type="line"/>
      <point x="233.31" y="662.48"/>
      <point x="241.27" y="659.21"/>
      <point x="248.08" y="654.32" type="curve" smooth="yes"/>
      <point x="254.54" y="649.68"/>
      <point x="259.93" y="643.63"/>
      <point x="264.14" y="636.88" type="curve" smooth="yes"/>
      <point x="268.35" y="630.13"/>
      <point x="271.4" y="622.71"/>
      <point x="273.72" y="615.1" type="curve" smooth="yes"/>
      <point x="278.36" y="599.89"/>
      <point x="280.47" y="584.04"/>
    </contour>
  </outline>
</glyph>
<glyph name="ampersand" format="2">
  <advance width="738"/>
  <unicode hex="0026"/>
  <note>
ampersand
</note>
  <outline>
    <contour>
      <point x="505.86" y="0" type="line"/>
      <point x="686" y="0" type="line"/>
      <point x="669.09" y="18.72"/>
      <point x="652.3" y="37.54"/>
      <point x="635.62" y="56.46" type="curve" smooth="yes"/>
      <point x="593.62" y="104.11"/>
      <point x="552.36" y="152.4"/>
      <point x="511.86" y="201.32" type="curve"/>
      <point x="544.9" y="248.83"/>
      <point x="574.04" y="299.48"/>
      <point x="601.52" y="350.41" type="curve"/>
      <point x="602.36" y="350.41" type="line"/>
      <point x="741.22" y="487" type="line"/>
      <point x="728.59" y="501.38" type="line"/>
      <point x="702.49" y="477.41" type="line"/>
      <point x="487.48" y="477.41" type="line"/>
      <point x="377.6" y="369.32" type="line"/>
      <point x="348.4" y="407.19"/>
      <point x="319.63" y="445.4"/>
      <point x="291.32" y="483.94" type="curve"/>
      <point x="310.97" y="505.15"/>
      <point x="330.26" y="526.68"/>
      <point x="347.61" y="549.78" type="curve" smooth="yes"/>
      <point x="360.37" y="566.77"/>
      <point x="372.02" y="584.73"/>
      <point x="380.61" y="604.17" type="curve" smooth="yes"/>
      <point x="389.2" y="623.61"/>
      <point x="394.72" y="644.77"/>
      <point x="393.63" y="665.99" type="curve" smooth="yes"/>
      <point x="393.16" y="675.22"/>
      <point x="391.41" y="684.39"/>
      <point x="388.45" y="693.15" type="curve" smooth="yes"/>
      <point x="381.55" y="713.6"/>
      <point x="367.82" y="731.75"/>
      <point x="349.77" y="743.59" type="curve" smooth="yes"/>
      <point x="331.72" y="755.42"/>
      <point x="309.6" y="760.58"/>
      <point x="288.08" y="758.97" type="curve" smooth="yes"/>
      <point x="257.93" y="756.72"/>
      <point x="230.11" y="742.34"/>
      <point x="204.2" y="726.77" type="curve" smooth="yes"/>
      <point x="182.82" y="713.92"/>
      <point x="161.87" y="700.26"/>
      <point x="142.28" y="684.82" type="curve" smooth="yes"/>
      <point x="122.69" y="669.38"/>
      <point x="104.49" y="651.45"/>
      <point x="92.74" y="629.45" type="curve" smooth="yes"/>
      <point x="80.98" y="607.45"/>
      <point x="76.63" y="581.36"/>
      <point x="81.99" y="557" type="curve" smooth="yes"/>
      <point x="87.35" y="532.64"/>
      <point x="102.18" y="511.59"/>
      <point x="117.63" y="492" type="curve" smooth="yes"/>
      <point x="168.42" y="427.63" type="line"/>
      <point x="158.57" y="420.33"/>
      <point x="148.64" y="413.12"/>
      <point x="138.66" y="406" type="curve" smooth="yes"/>
      <point x="113.01" y="387.68"/>
      <point x="87.07" y="369.37"/>
      <point x="65.33" y="346.55" type="curve" smooth="yes"/>
      <point x="43.59" y="323.73"/>
      <point x="26.2" y="296.53"/>
      <point x="16.31" y="266.6" type="curve" smooth="yes"/>
      <point x="6.42" y="236.67"/>
      <point x="4.05" y="204.35"/>
      <point x="9.02" y="173.22" type="curve" smooth="yes"/>
      <point x="13.99" y="142.09"/>
      <point x="26.09" y="112.19"/>
      <point x="43.63" y="86" type="curve" smooth="yes"/>
      <point x="60.51" y="60.78"/>
      <point x="82.48" y="38.91"/>
      <point x="108.06" y="22.57" type="curve" smooth="yes"/>
      <point x="133.64" y="6.23"/>
      <point x="162.87" y="-4.42"/>
      <point x="193.01" y="-8" type="curve" smooth="yes"/>
      <point x="228.62" y="-12.24"/>
      <point x="265.12" y="-6.51"/>
      <point x="298.51" y="6.58" type="curve" smooth="yes"/>
      <point x="331.9" y="19.66"/>
      <point x="362.25" y="39.73"/>
      <point x="389.54" y="63" type="curve" smooth="yes"/>
      <point x="402.89" y="74.38"/>
      <point x="415.65" y="86.34"/>
      <point x="427.9" y="98.79" type="curve"/>
    </contour>
    <contour>
      <point x="269" y="514.49" type="curve"/>
      <point x="249.19" y="541.83"/>
      <point x="229.58" y="569.34"/>
      <point x="210.19" y="597" type="curve" smooth="yes"/>
      <point x="205.46" y="603.75"/>
      <point x="200.78" y="610.58"/>
      <point x="197.26" y="618.04" type="curve" smooth="yes"/>
      <point x="193.75" y="625.49"/>
      <point x="191.42" y="633.57"/>
      <point x="191.01" y="641.8" type="curve" smooth="yes"/>
      <point x="190.6" y="650.03"/>
      <point x="192.13" y="658.37"/>
      <point x="195.56" y="665.86" type="curve" smooth="yes"/>
      <point x="198.99" y="673.35"/>
      <point x="204.31" y="679.96"/>
      <point x="210.84" y="684.98" type="curve" smooth="yes"/>
      <point x="218.38" y="690.77"/>
      <point x="227.5" y="694.44"/>
      <point x="236.93" y="695.67" type="curve" smooth="yes"/>
      <point x="246.36" y="696.9"/>
      <point x="256.06" y="695.71"/>
      <point x="265" y="692.46" type="curve" smooth="yes"/>
      <point x="282.87" y="685.96"/>
      <point x="297.2" y="671.3"/>
      <point x="305.06" y="653.98" type="curve" smooth="yes"/>
      <point x="314.41" y="633.39"/>
      <point x="315" y="609.51"/>
      <point x="309.58" y="587.55" type="curve" smooth="yes"/>
      <point x="304.16" y="565.6"/>
      <point x="293.02" y="545.36"/>
      <point x="279.37" y="527.33" type="curve" smooth="yes"/>
      <point x="276.04" y="522.94"/>
      <point x="272.58" y="518.66"/>
    </contour>
    <contour>
      <point x="487.22" y="231.25" type="curve"/>
      <point x="455.07" y="270.58"/>
      <point x="423.4" y="310.31"/>
      <point x="392.22" y="350.42" type="curve"/>
      <point x="565.68" y="350.42" type="line"/>
      <point x="547.94" y="320.5"/>
      <point x="529.36" y="291.09"/>
      <point x="509.6" y="262.47" type="curve" smooth="yes"/>
      <point x="502.35" y="251.98"/>
      <point x="494.92" y="241.53"/>
    </contour>
    <contour>
      <point x="202.15" y="384.87" type="curve"/>
      <point x="396.82" y="138.16" type="line"/>
      <point x="388.25" y="131.97"/>
      <point x="379.33" y="126.24"/>
      <point x="370.03" y="121.05" type="curve" smooth="yes"/>
      <point x="340.85" y="104.78"/>
      <point x="307.94" y="94.51"/>
      <point x="274.54" y="94.33" type="curve" smooth="yes"/>
      <point x="241.13" y="94.15"/>
      <point x="207.44" y="104.49"/>
      <point x="181.08" y="125.01" type="curve" smooth="yes"/>
      <point x="163.55" y="138.66"/>
      <point x="149.38" y="156.63"/>
      <point x="140.4" y="176.95" type="curve" smooth="yes"/>
      <point x="131.42" y="197.27"/>
      <point x="127.66" y="219.88"/>
      <point x="129.61" y="242.01" type="curve" smooth="yes"/>
      <point x="133.33" y="284.35"/>
      <point x="155.7" y="322.8"/>
      <point x="180.73" y="357.15" type="curve" smooth="yes"/>
      <point x="187.61" y="366.6"/>
      <point x="194.78" y="375.82"/>
    </contour>
  </outline>
</glyph>
<glyph name="quotesingle" format="2">
  <advance width="186"/>
  <unicode hex="0027"/>
  <note>
quotesingle
</note>
  <outline>
    <contour>
      <point x="73.02" y="568.35" type="curve" smooth="yes"/>
      <point x="100.94" y="397.36" type="line"/>
      <point x="128.94" y="397.36" type="line"/>
      <point x="171.94" y="766.75" type="line"/>
      <point x="152.77" y="766.75" type="line"/>
      <point x="15.01" y="678.11" type="line"/>
      <point x="15.01" y="663.73" type="line"/>
      <point x="23.3" y="662.49"/>
      <point x="31.26" y="659.22"/>
      <point x="38.07" y="654.33" type="curve" smooth="yes"/>
      <point x="44.53" y="649.69"/>
      <point x="49.92" y="643.64"/>
      <point x="54.13" y="636.89" type="curve" smooth="yes"/>
      <point x="58.34" y="630.14"/>
      <point x="61.39" y="622.72"/>
      <point x="63.71" y="615.11" type="curve" smooth="yes"/>
      <point x="68.35" y="599.9"/>
      <point x="70.46" y="584.05"/>
    </contour>
  </outline>
</glyph>
<glyph name="asterisk" format="2">
  <advance width="396"/>
  <unicode hex="002A"/>
  <note>
asterisk
</note>
  <outline>
    <contour>
      <point x="193.94" y="567.34" type="line"/>
      <point x="194.84" y="564.55" type="line"/>
      <point x="192.47" y="562.83" type="line"/>
      <point x="190.1" y="564.55" type="line"/>
      <point x="191.01" y="567.34" type="line"/>
    </contour>
    <contour>
      <point x="259.87" y="506.1" type="curve" smooth="yes"/>
      <point x="205.62" y="559.86" type="line"/>
      <point x="379.24" y="594.74" type="line"/>
      <point x="376.28" y="603.86" type="line"/>
      <point x="312.84" y="655.67" type="line"/>
      <point x="306" y="653.45" type="line"/>
      <point x="306.69" y="649.32"/>
      <point x="306.37" y="645.02"/>
      <point x="305.09" y="641.03" type="curve" smooth="yes"/>
      <point x="303.88" y="637.24"/>
      <point x="301.84" y="633.74"/>
      <point x="299.28" y="630.7" type="curve" smooth="yes"/>
      <point x="296.72" y="627.66"/>
      <point x="293.66" y="625.06"/>
      <point x="290.4" y="622.78" type="curve" smooth="yes"/>
      <point x="283.88" y="618.22"/>
      <point x="276.67" y="614.77"/>
      <point x="269.6" y="611.13" type="curve" smooth="yes"/>
      <point x="201.72" y="576.13" type="line"/>
      <point x="222.2" y="752.03" type="line"/>
      <point x="212.61" y="752.03" type="line"/>
      <point x="143.73" y="707.71" type="line"/>
      <point x="143.73" y="700.52" type="line"/>
      <point x="147.87" y="699.9"/>
      <point x="151.86" y="698.26"/>
      <point x="155.26" y="695.82" type="curve" smooth="yes"/>
      <point x="158.49" y="693.5"/>
      <point x="161.19" y="690.48"/>
      <point x="163.29" y="687.1" type="curve" smooth="yes"/>
      <point x="165.39" y="683.73"/>
      <point x="166.92" y="680.02"/>
      <point x="168.08" y="676.21" type="curve" smooth="yes"/>
      <point x="170.4" y="668.6"/>
      <point x="171.45" y="660.68"/>
      <point x="172.74" y="652.83" type="curve" smooth="yes"/>
      <point x="185.05" y="577.46" type="line"/>
      <point x="24.08" y="651.29" type="line"/>
      <point x="21.12" y="642.17" type="line"/>
      <point x="41.99" y="562.96" type="line"/>
      <point x="48.83" y="560.74" type="line"/>
      <point x="50.7" y="564.49"/>
      <point x="53.49" y="567.77"/>
      <point x="56.86" y="570.25" type="curve" smooth="yes"/>
      <point x="60.06" y="572.61"/>
      <point x="63.77" y="574.23"/>
      <point x="67.63" y="575.19" type="curve" smooth="yes"/>
      <point x="71.49" y="576.15"/>
      <point x="75.49" y="576.45"/>
      <point x="79.46" y="576.38" type="curve" smooth="yes"/>
      <point x="87.41" y="576.24"/>
      <point x="95.27" y="574.79"/>
      <point x="103.13" y="573.58" type="curve" smooth="yes"/>
      <point x="178.62" y="562" type="line"/>
      <point x="58.66" y="431.73" type="line"/>
      <point x="66.42" y="426.1" type="line"/>
      <point x="148.2" y="421.47" type="line"/>
      <point x="152.43" y="427.29" type="line"/>
      <point x="149.44" y="430.23"/>
      <point x="147.18" y="433.89"/>
      <point x="145.86" y="437.87" type="curve" smooth="yes"/>
      <point x="144.61" y="441.64"/>
      <point x="144.21" y="445.68"/>
      <point x="144.49" y="449.64" type="curve" smooth="yes"/>
      <point x="144.77" y="453.61"/>
      <point x="145.72" y="457.5"/>
      <point x="147.02" y="461.26" type="curve" smooth="yes"/>
      <point x="149.61" y="468.78"/>
      <point x="153.42" y="475.81"/>
      <point x="156.99" y="482.91" type="curve" smooth="yes"/>
      <point x="191.33" y="551.13" type="line"/>
      <point x="278.16" y="396.78" type="line"/>
      <point x="285.92" y="402.41" type="line"/>
      <point x="315.59" y="478.75" type="line"/>
      <point x="311.36" y="484.57" type="line"/>
      <point x="307.64" y="482.63"/>
      <point x="303.46" y="481.62"/>
      <point x="299.27" y="481.59" type="curve" smooth="yes"/>
      <point x="295.29" y="481.57"/>
      <point x="291.34" y="482.43"/>
      <point x="287.65" y="483.92" type="curve" smooth="yes"/>
      <point x="283.97" y="485.41"/>
      <point x="280.55" y="487.52"/>
      <point x="277.38" y="489.92" type="curve" smooth="yes"/>
      <point x="271.03" y="494.71"/>
      <point x="265.52" y="500.5"/>
    </contour>
  </outline>
</glyph>
<glyph name="plus" format="2">
  <advance width="574"/>
  <unicode hex="002B"/>
  <note>
plus
</note>
  <outline>
    <contour>
      <point x="131.32" y="420" type="line"/>
      <point x="34.17" y="313" type="line"/>
      <point x="239" y="313" type="line"/>
      <point x="239" y="100.85" type="line"/>
      <point x="346" y="198" type="line"/>
      <point x="346" y="313" type="line"/>
      <point x="453.17" y="313" type="line"/>
      <point x="550.32" y="420" type="line"/>
      <point x="346" y="420" type="line"/>
      <point x="346" y="637" type="line"/>
      <point x="239" y="539.85" type="line"/>
      <point x="239" y="420" type="line"/>
    </contour>
  </outline>
</glyph>
<glyph name="comma" format="2">
  <advance width="236"/>
  <unicode hex="002C"/>
  <note>
comma
</note>
  <outline>
    <contour>
      <point x="66.5" y="-143.5" type="curve"/>
      <point x="73" y="-153.67" type="line"/>
      <point x="106.43" y="-131.63"/>
      <point x="138.26" y="-106.88"/>
      <point x="166" y="-78" type="curve" smooth="yes"/>
      <point x="181.5" y="-61.86"/>
      <point x="195.61" y="-44.21"/>
      <point x="206.17" y="-24.49" type="curve" smooth="yes"/>
      <point x="216.73" y="-4.76"/>
      <point x="223.51" y="17.14"/>
      <point x="224.5" y="39.5" type="curve" smooth="yes"/>
      <point x="225.69" y="66.53"/>
      <point x="218.3" y="93.72"/>
      <point x="204.5" y="117" type="curve" smooth="yes"/>
      <point x="191.33" y="139.22"/>
      <point x="172.54" y="158.04"/>
      <point x="150.5" y="171.5" type="curve"/>
      <point x="15" y="82.67" type="line"/>
      <point x="28" y="61.67" type="line"/>
      <point x="40.67" y="70" type="line" smooth="yes"/>
      <point x="45.47" y="73.16"/>
      <point x="50.44" y="76.19"/>
      <point x="55.94" y="77.86" type="curve" smooth="yes"/>
      <point x="61.44" y="79.53"/>
      <point x="67.32" y="79.88"/>
      <point x="73" y="79" type="curve" smooth="yes"/>
      <point x="86.71" y="76.88"/>
      <point x="98.75" y="68.23"/>
      <point x="107.69" y="57.61" type="curve" smooth="yes"/>
      <point x="116.63" y="47"/>
      <point x="122.91" y="34.32"/>
      <point x="127.27" y="21.15" type="curve" smooth="yes"/>
      <point x="135.99" y="-5.2"/>
      <point x="137.51" y="-34.02"/>
      <point x="131" y="-61" type="curve" smooth="yes"/>
      <point x="122.54" y="-96.03"/>
      <point x="98.69" y="-127.3"/>
    </contour>
  </outline>
</glyph>
<glyph name="period" format="2">
  <advance width="221"/>
  <unicode hex="002E"/>
  <note>
period
</note>
  <outline>
    <contour>
      <point x="109.88" y="170.35" type="line"/>
      <point x="20" y="80.47" type="line"/>
      <point x="111.35" y="-10.88" type="line"/>
      <point x="201.23" y="79" type="line"/>
    </contour>
  </outline>
</glyph>
<glyph name="slash" format="2">
  <advance width="417"/>
  <unicode hex="002F"/>
  <note>
slash
</note>
  <outline>
    <contour>
      <point x="316.1" y="792" type="line"/>
      <point x="431.74" y="792" type="line"/>
      <point x="108.1" y="-43.33" type="line"/>
      <point x="-6.2" y="-42.76" type="line"/>
    </contour>
  </outline>
</glyph>
<glyph name="zero" format="2">
  <advance width="689"/>
  <unicode hex="0030"/>
  <note>
zero
</note>
  <outline>
    <contour>
      <point x="628.1" y="349.98" type="curve" smooth="yes"/>
      <point x="629.77" y="436.33"/>
      <point x="609.7" y="524.76"/>
      <point x="560.81" y="595.92" type="curve" smooth="yes"/>
      <point x="536.36" y="631.5"/>
      <point x="504.54" y="662.26"/>
      <point x="467.09" y="683.73" type="curve" smooth="yes"/>
      <point x="429.64" y="705.2"/>
      <point x="386.62" y="717.1"/>
      <point x="343.45" y="716.99" type="curve" smooth="yes"/>
      <point x="300.38" y="716.88"/>
      <point x="257.53" y="704.82"/>
      <point x="220.25" y="683.27" type="curve" smooth="yes"/>
      <point x="182.97" y="661.71"/>
      <point x="151.32" y="630.95"/>
      <point x="127" y="595.4" type="curve" smooth="yes"/>
      <point x="78.37" y="524.31"/>
      <point x="58.42" y="436.11"/>
      <point x="60.1" y="349.99" type="curve" smooth="yes"/>
      <point x="61.71" y="266.84"/>
      <point x="83.65" y="182.51"/>
      <point x="132.36" y="115.1" type="curve" smooth="yes"/>
      <point x="156.71" y="81.4"/>
      <point x="187.87" y="52.39"/>
      <point x="224.17" y="32.12" type="curve" smooth="yes"/>
      <point x="260.47" y="11.85"/>
      <point x="301.87" y="0.57"/>
      <point x="343.45" y="0.46" type="curve" smooth="yes"/>
      <point x="385.14" y="0.35"/>
      <point x="426.69" y="11.48"/>
      <point x="463.16" y="31.67" type="curve" smooth="yes"/>
      <point x="499.63" y="51.86"/>
      <point x="530.95" y="80.86"/>
      <point x="555.44" y="114.59" type="curve" smooth="yes"/>
      <point x="604.41" y="182.06"/>
      <point x="626.48" y="266.62"/>
    </contour>
    <contour>
      <point x="340.44" y="672.98" type="curve" smooth="yes"/>
      <point x="359.08" y="673.16"/>
      <point x="377.75" y="669"/>
      <point x="394.47" y="660.8" type="curve" smooth="yes"/>
      <point x="411.19" y="652.6"/>
      <point x="425.89" y="640.31"/>
      <point x="436.94" y="625.32" type="curve" smooth="yes"/>
      <point x="448" y="610.33"/>
      <point x="455.31" y="592.75"/>
      <point x="459.25" y="574.55" type="curve" smooth="yes"/>
      <point x="463.19" y="556.35"/>
      <point x="463.76" y="537.6"/>
      <point x="464.1" y="518.98" type="curve" smooth="yes"/>
      <point x="470.1" y="188.45" type="line" smooth="yes"/>
      <point x="470.43" y="170.37"/>
      <point x="470.35" y="152.07"/>
      <point x="465.85" y="134.56" type="curve" smooth="yes"/>
      <point x="461.35" y="117.05"/>
      <point x="452.49" y="100.61"/>
      <point x="439.88" y="87.65" type="curve" smooth="yes"/>
      <point x="427.28" y="74.69"/>
      <point x="411.21" y="65.28"/>
      <point x="394.01" y="59.73" type="curve" smooth="yes"/>
      <point x="376.8" y="54.18"/>
      <point x="358.5" y="52.28"/>
      <point x="340.45" y="53.46" type="curve" smooth="yes"/>
      <point x="323.32" y="54.57"/>
      <point x="306.32" y="58.46"/>
      <point x="290.63" y="65.45" type="curve" smooth="yes"/>
      <point x="274.95" y="72.44"/>
      <point x="260.63" y="82.66"/>
      <point x="249.49" y="95.72" type="curve" smooth="yes"/>
      <point x="238.35" y="108.78"/>
      <point x="230.59" y="124.6"/>
      <point x="226.51" y="141.28" type="curve" smooth="yes"/>
      <point x="222.43" y="157.96"/>
      <point x="222.09" y="175.29"/>
      <point x="222.09" y="192.46" type="curve" smooth="yes"/>
      <point x="222.09" y="520.99" type="line" smooth="yes"/>
      <point x="222.09" y="539.17"/>
      <point x="222.32" y="557.47"/>
      <point x="225.87" y="575.29" type="curve" smooth="yes"/>
      <point x="229.42" y="593.12"/>
      <point x="236.3" y="610.38"/>
      <point x="246.9" y="625.15" type="curve" smooth="yes"/>
      <point x="257.49" y="639.92"/>
      <point x="271.69" y="652.09"/>
      <point x="287.9" y="660.3" type="curve" smooth="yes"/>
      <point x="304.12" y="668.51"/>
      <point x="322.27" y="672.81"/>
    </contour>
  </outline>
</glyph>
<glyph name="one" format="2">
  <advance width="542"/>
  <unicode hex="0031"/>
  <note>
one
</note>
  <outline>
    <contour>
      <point x="207.81" y="517" type="curve" smooth="yes"/>
      <point x="207.81" y="2" type="line"/>
      <point x="369.97" y="2.01" type="line"/>
      <point x="369.97" y="723" type="line"/>
      <point x="165.81" y="637" type="line"/>
      <point x="164.98" y="601.17" type="line"/>
      <point x="180.6" y="594.81"/>
      <point x="193.31" y="581.99"/>
      <point x="200.18" y="566.59" type="curve" smooth="yes"/>
      <point x="207.05" y="551.19"/>
      <point x="207.81" y="533.87"/>
    </contour>
  </outline>
</glyph>
<glyph name="two" format="2">
  <advance width="630"/>
  <unicode hex="0032"/>
  <note>
two
</note>
  <outline>
    <contour>
      <point x="506.76" y="21.35" type="line"/>
      <point x="587.84" y="190.5" type="line"/>
      <point x="566.96" y="200.67" type="line"/>
      <point x="555.42" y="186.75"/>
      <point x="539.68" y="176.46"/>
      <point x="522.46" y="170.93" type="curve" smooth="yes"/>
      <point x="505.24" y="165.4"/>
      <point x="486.88" y="164.83"/>
      <point x="468.79" y="164.84" type="curve" smooth="yes"/>
      <point x="102.9" y="165.01" type="line"/>
      <point x="146.6" y="180.65"/>
      <point x="189.88" y="197.45"/>
      <point x="232.64" y="215.52" type="curve" smooth="yes"/>
      <point x="284.85" y="237.58"/>
      <point x="336.54" y="261.13"/>
      <point x="385.89" y="289.02" type="curve" smooth="yes"/>
      <point x="437.75" y="318.32"/>
      <point x="487.84" y="353.4"/>
      <point x="523.08" y="401.42" type="curve" smooth="yes"/>
      <point x="540.7" y="425.43"/>
      <point x="554.27" y="452.59"/>
      <point x="561.35" y="481.52" type="curve" smooth="yes"/>
      <point x="568.43" y="510.45"/>
      <point x="568.86" y="541.06"/>
      <point x="561.89" y="570.02" type="curve" smooth="yes"/>
      <point x="549.62" y="620.99"/>
      <point x="513.89" y="664.92"/>
      <point x="468.51" y="691.18" type="curve" smooth="yes"/>
      <point x="423.13" y="717.44"/>
      <point x="369.52" y="727.41"/>
      <point x="317.11" y="725.67" type="curve" smooth="yes"/>
      <point x="256.48" y="723.65"/>
      <point x="195.82" y="707.12"/>
      <point x="144.54" y="674.72" type="curve" smooth="yes"/>
      <point x="118.9" y="658.52"/>
      <point x="95.72" y="638.02"/>
      <point x="78.33" y="613.17" type="curve" smooth="yes"/>
      <point x="60.94" y="588.32"/>
      <point x="49.48" y="558.77"/>
      <point x="49.01" y="528.45" type="curve" smooth="yes"/>
      <point x="48.63" y="503.43"/>
      <point x="56.11" y="477.97"/>
      <point x="71.89" y="458.56" type="curve" smooth="yes"/>
      <point x="87.67" y="439.15"/>
      <point x="111.99" y="426.46"/>
      <point x="137.01" y="426.45" type="curve" smooth="yes"/>
      <point x="157.38" y="426.44"/>
      <point x="177.7" y="434.9"/>
      <point x="191.77" y="449.63" type="curve" smooth="yes"/>
      <point x="205.84" y="464.36"/>
      <point x="213.39" y="485.12"/>
      <point x="212.01" y="505.45" type="curve" smooth="yes"/>
      <point x="210.6" y="526.27"/>
      <point x="199.83" y="546.28"/>
      <point x="183.22" y="558.93" type="curve" smooth="yes"/>
      <point x="166.61" y="571.57"/>
      <point x="144.46" y="576.63"/>
      <point x="124.01" y="572.45" type="curve"/>
      <point x="134.11" y="600.57"/>
      <point x="152.61" y="625.61"/>
      <point x="176.53" y="643.5" type="curve" smooth="yes"/>
      <point x="200.45" y="661.4"/>
      <point x="229.72" y="672.09"/>
      <point x="259.55" y="673.67" type="curve" smooth="yes"/>
      <point x="284.68" y="675"/>
      <point x="310.14" y="669.87"/>
      <point x="332.71" y="658.73" type="curve" smooth="yes"/>
      <point x="355.27" y="647.59"/>
      <point x="374.85" y="630.45"/>
      <point x="388.8" y="609.51" type="curve" smooth="yes"/>
      <point x="402.75" y="588.57"/>
      <point x="411" y="563.93"/>
      <point x="412.82" y="538.83" type="curve" smooth="yes"/>
      <point x="414.64" y="513.73"/>
      <point x="410.05" y="488.32"/>
      <point x="400.55" y="465.02" type="curve" smooth="yes"/>
      <point x="386.08" y="429.58"/>
      <point x="360.7" y="399.52"/>
      <point x="332.15" y="374.02" type="curve" smooth="yes"/>
      <point x="293.07" y="339.13"/>
      <point x="248.39" y="311.21"/>
      <point x="204.89" y="282.02" type="curve" smooth="yes"/>
      <point x="150.51" y="245.54"/>
      <point x="97.42" y="206.98"/>
      <point x="48" y="164.02" type="curve"/>
      <point x="48" y="20.02" type="line"/>
    </contour>
  </outline>
</glyph>
<glyph name="five" format="2">
  <advance width="590"/>
  <unicode hex="0035"/>
  <note>
five
</note>
  <outline>
    <contour>
      <point x="467.75" y="577.34" type="line"/>
      <point x="551.08" y="754.67" type="line"/>
      <point x="530.75" y="764.84" type="line"/>
      <point x="522.03" y="748.82"/>
      <point x="507.36" y="736.27"/>
      <point x="490.42" y="729.51" type="curve" smooth="yes"/>
      <point x="473.48" y="722.75"/>
      <point x="454.83" y="722.01"/>
      <point x="436.59" y="722.01" type="curve" smooth="yes"/>
      <point x="192.09" y="722.01" type="line"/>
      <point x="123.09" y="334.01" type="line"/>
      <point x="148.96" y="337.05"/>
      <point x="175.05" y="338.33"/>
      <point x="201.09" y="337.51" type="curve" smooth="yes"/>
      <point x="231.81" y="336.54"/>
      <point x="262.65" y="332.65"/>
      <point x="291.8" y="322.93" type="curve" smooth="yes"/>
      <point x="320.95" y="313.2"/>
      <point x="348.3" y="297.15"/>
      <point x="369.09" y="274.51" type="curve" smooth="yes"/>
      <point x="398.42" y="242.58"/>
      <point x="413.18" y="198.31"/>
      <point x="411.09" y="155.01" type="curve" smooth="yes"/>
      <point x="409.35" y="119.01"/>
      <point x="396.62" y="83.45"/>
      <point x="374.3" y="55.15" type="curve" smooth="yes"/>
      <point x="351.98" y="26.85"/>
      <point x="319.61" y="6.15"/>
      <point x="284.09" y="0.01" type="curve" smooth="yes"/>
      <point x="255.8" y="-4.89"/>
      <point x="225.89" y="-0.41"/>
      <point x="200.5" y="13" type="curve" smooth="yes"/>
      <point x="175.11" y="26.41"/>
      <point x="154.49" y="48.66"/>
      <point x="143.09" y="75.01" type="curve"/>
      <point x="163.55" y="70.72"/>
      <point x="185.76" y="75.74"/>
      <point x="202.39" y="88.41" type="curve" smooth="yes"/>
      <point x="219.02" y="101.07"/>
      <point x="229.76" y="121.15"/>
      <point x="231.09" y="142.01" type="curve" smooth="yes"/>
      <point x="232.39" y="162.31"/>
      <point x="224.78" y="183"/>
      <point x="210.72" y="197.7" type="curve" smooth="yes"/>
      <point x="196.66" y="212.4"/>
      <point x="176.43" y="220.89"/>
      <point x="156.09" y="221.01" type="curve" smooth="yes"/>
      <point x="130.98" y="221.16"/>
      <point x="106.45" y="208.63"/>
      <point x="90.55" y="189.2" type="curve" smooth="yes"/>
      <point x="74.65" y="169.77"/>
      <point x="67.18" y="144.1"/>
      <point x="68.09" y="119.01" type="curve" smooth="yes"/>
      <point x="68.95" y="95.45"/>
      <point x="76.89" y="72.38"/>
      <point x="89.48" y="52.45" type="curve" smooth="yes"/>
      <point x="102.08" y="32.52"/>
      <point x="119.25" y="15.64"/>
      <point x="138.81" y="2.46" type="curve" smooth="yes"/>
      <point x="177.91" y="-23.89"/>
      <point x="225.95" y="-35.46"/>
      <point x="273.09" y="-34.49" type="curve" smooth="yes"/>
      <point x="339.41" y="-33.12"/>
      <point x="404.91" y="-7.38"/>
      <point x="454.83" y="36.31" type="curve" smooth="yes"/>
      <point x="504.74" y="80"/>
      <point x="538.52" y="142.84"/>
      <point x="543.09" y="209.01" type="curve" smooth="yes"/>
      <point x="547.42" y="271.58"/>
      <point x="524.53" y="335.33"/>
      <point x="482.09" y="381.51" type="curve" smooth="yes"/>
      <point x="454.22" y="411.84"/>
      <point x="418.82" y="434.74"/>
      <point x="380.76" y="450.49" type="curve" smooth="yes"/>
      <point x="342.7" y="466.24"/>
      <point x="302.05" y="475.21"/>
      <point x="261.09" y="479.51" type="curve" smooth="yes"/>
      <point x="234.37" y="482.32"/>
      <point x="207.44" y="483.12"/>
      <point x="180.59" y="482.01" type="curve"/>
      <point x="198.42" y="577.34" type="line"/>
    </contour>
  </outline>
</glyph>
<glyph name="six" format="2">
  <advance width="637"/>
  <unicode hex="0036"/>
  <note>
six
</note>
  <outline>
    <contour>
      <point x="538.78" y="688.19" type="curve" smooth="yes"/>
      <point x="516.08" y="709.11"/>
      <point x="487.39" y="722.03"/>
      <point x="457.95" y="729.43" type="curve" smooth="yes"/>
      <point x="428.51" y="736.83"/>
      <point x="397.95" y="738.91"/>
      <point x="367.72" y="737.08" type="curve" smooth="yes"/>
      <point x="307.26" y="733.42"/>
      <point x="247.28" y="713.76"/>
      <point x="197.52" y="677.69" type="curve" smooth="yes"/>
      <point x="154.19" y="646.28"/>
      <point x="119.58" y="602.47"/>
      <point x="96.12" y="553.12" type="curve" smooth="yes"/>
      <point x="72.66" y="503.77"/>
      <point x="59.66" y="449.36"/>
      <point x="54.99" y="394.47" type="curve" smooth="yes"/>
      <point x="50.08" y="336.76"/>
      <point x="54.21" y="277.91"/>
      <point x="70.12" y="222.41" type="curve" smooth="yes"/>
      <point x="86.03" y="166.91"/>
      <point x="114.64" y="114.9"/>
      <point x="155.37" y="75.59" type="curve" smooth="yes"/>
      <point x="202.1" y="30.49"/>
      <point x="264.05" y="3.27"/>
      <point x="327.52" y="-1.18" type="curve" smooth="yes"/>
      <point x="396.66" y="-6.03"/>
      <point x="468" y="15.93"/>
      <point x="520.99" y="62.6" type="curve" smooth="yes"/>
      <point x="547.48" y="85.93"/>
      <point x="569.21" y="115.28"/>
      <point x="583.53" y="148.25" type="curve" smooth="yes"/>
      <point x="597.86" y="181.22"/>
      <point x="604.69" y="217.75"/>
      <point x="603.04" y="253.92" type="curve" smooth="yes"/>
      <point x="600.26" y="314.82"/>
      <point x="572.8" y="373.51"/>
      <point x="530.45" y="415.45" type="curve" smooth="yes"/>
      <point x="488.11" y="457.39"/>
      <point x="432.02" y="483.01"/>
      <point x="374.19" y="490.99" type="curve" smooth="yes"/>
      <point x="322.24" y="498.16"/>
      <point x="268.64" y="491.44"/>
      <point x="219.61" y="472.11" type="curve"/>
      <point x="216.61" y="516.9"/>
      <point x="227.98" y="562.67"/>
      <point x="251.73" y="600.08" type="curve" smooth="yes"/>
      <point x="278.31" y="641.95"/>
      <point x="320.82" y="672.94"/>
      <point x="368.06" y="682.33" type="curve" smooth="yes"/>
      <point x="404.38" y="689.54"/>
      <point x="442.94" y="683.92"/>
      <point x="475.89" y="666.41" type="curve"/>
      <point x="463.19" y="659.29"/>
      <point x="452.79" y="647.77"/>
      <point x="446.71" y="634.11" type="curve" smooth="yes"/>
      <point x="440.63" y="620.45"/>
      <point x="438.92" y="604.72"/>
      <point x="441.89" y="589.98" type="curve" smooth="yes"/>
      <point x="444.87" y="575.24"/>
      <point x="452.52" y="561.58"/>
      <point x="463.36" y="551.65" type="curve" smooth="yes"/>
      <point x="474.2" y="541.72"/>
      <point x="488.17" y="535.59"/>
      <point x="502.54" y="534.45" type="curve" smooth="yes"/>
      <point x="513.74" y="533.56"/>
      <point x="525.15" y="535.68"/>
      <point x="535.38" y="540.53" type="curve" smooth="yes"/>
      <point x="545.61" y="545.38"/>
      <point x="554.63" y="552.96"/>
      <point x="561.44" y="562.3" type="curve" smooth="yes"/>
      <point x="568.26" y="571.66"/>
      <point x="572.85" y="582.75"/>
      <point x="574.93" y="594.31" type="curve" smooth="yes"/>
      <point x="577.01" y="605.87"/>
      <point x="576.6" y="617.88"/>
      <point x="574.08" y="629.34" type="curve" smooth="yes"/>
      <point x="569.03" y="652.27"/>
      <point x="555.67" y="672.63"/>
    </contour>
    <contour>
      <point x="488.02" y="231.33" type="curve" smooth="yes"/>
      <point x="487.14" y="188.72"/>
      <point x="477.75" y="145.18"/>
      <point x="454.19" y="110.41" type="curve" smooth="yes"/>
      <point x="442.41" y="93.03"/>
      <point x="427" y="78.18"/>
      <point x="408.91" y="68.37" type="curve" smooth="yes"/>
      <point x="390.82" y="58.56"/>
      <point x="370.11" y="53.97"/>
      <point x="349.79" y="55.7" type="curve" smooth="yes"/>
      <point x="331.84" y="57.22"/>
      <point x="314.36" y="63.6"/>
      <point x="299.13" y="73.65" type="curve" smooth="yes"/>
      <point x="283.91" y="83.7"/>
      <point x="270.96" y="97.31"/>
      <point x="260.65" y="112.74" type="curve" smooth="yes"/>
      <point x="240.04" y="143.6"/>
      <point x="229.7" y="180.94"/>
      <point x="225.48" y="218.31" type="curve" smooth="yes"/>
      <point x="220.6" y="261.55"/>
      <point x="223.33" y="306.63"/>
      <point x="239.78" y="346.64" type="curve" smooth="yes"/>
      <point x="248" y="366.64"/>
      <point x="259.89" y="385.15"/>
      <point x="275.4" y="399.68" type="curve" smooth="yes"/>
      <point x="290.92" y="414.21"/>
      <point x="310.09" y="424.57"/>
      <point x="330.55" y="428.66" type="curve" smooth="yes"/>
      <point x="353.67" y="433.29"/>
      <point x="378.11" y="429.75"/>
      <point x="399.42" y="419.31" type="curve" smooth="yes"/>
      <point x="420.73" y="408.86"/>
      <point x="438.8" y="391.82"/>
      <point x="452.3" y="371.67" type="curve" smooth="yes"/>
      <point x="479.31" y="331.38"/>
      <point x="489.05" y="280.51"/>
    </contour>
  </outline>
</glyph>
<glyph name="seven" format="2">
  <advance width="563"/>
  <unicode hex="0037"/>
  <note>
seven
</note>
  <outline>
    <contour>
      <point x="560.99" y="716.85" type="curve"/>
      <point x="93.42" y="716.86" type="line"/>
      <point x="43" y="522.03" type="line"/>
      <point x="63.33" y="511.86" type="line"/>
      <point x="69.69" y="527.48"/>
      <point x="82.51" y="540.19"/>
      <point x="97.91" y="547.06" type="curve" smooth="yes"/>
      <point x="113.31" y="553.93"/>
      <point x="130.63" y="554.69"/>
      <point x="147.5" y="554.69" type="curve" smooth="yes"/>
      <point x="432" y="554.69" type="line"/>
      <point x="189.23" y="-0.01" type="line"/>
      <point x="249.23" y="-0.3" type="line"/>
      <point x="344.92" y="226.04"/>
      <point x="442.76" y="451.46"/>
      <point x="542.74" y="675.94" type="curve" smooth="yes"/>
      <point x="548.82" y="689.58"/>
      <point x="554.9" y="703.22"/>
    </contour>
  </outline>
</glyph>
<glyph name="eight" format="2">
  <advance width="661"/>
  <unicode hex="0038"/>
  <note>
eight
</note>
  <outline>
    <contour>
      <point x="466.01" y="228.99" type="curve" smooth="yes"/>
      <point x="466.61" y="189.05"/>
      <point x="456.11" y="148.23"/>
      <point x="432.39" y="116.47" type="curve" smooth="yes"/>
      <point x="420.53" y="100.59"/>
      <point x="405.33" y="87.2"/>
      <point x="387.81" y="78.29" type="curve" smooth="yes"/>
      <point x="370.3" y="69.38"/>
      <point x="350.51" y="65.06"/>
      <point x="330.97" y="66.24" type="curve" smooth="yes"/>
      <point x="311.91" y="67.39"/>
      <point x="293.22" y="73.76"/>
      <point x="277.08" y="84.17" type="curve" smooth="yes"/>
      <point x="260.94" y="94.58"/>
      <point x="247.37" y="108.93"/>
      <point x="237.04" y="125.31" type="curve" smooth="yes"/>
      <point x="216.38" y="158.08"/>
      <point x="208.43" y="198.22"/>
      <point x="210.67" y="237.11" type="curve" smooth="yes"/>
      <point x="212.64" y="271.34"/>
      <point x="222.65" y="305.57"/>
      <point x="242.42" y="333.3" type="curve" smooth="yes"/>
      <point x="252.31" y="347.16"/>
      <point x="264.65" y="359.27"/>
      <point x="278.95" y="368.28" type="curve" smooth="yes"/>
      <point x="293.25" y="377.29"/>
      <point x="309.49" y="383.15"/>
      <point x="326.2" y="384.99" type="curve" smooth="yes"/>
      <point x="328.22" y="385.21"/>
      <point x="330.24" y="385.37"/>
      <point x="332.26" y="385.48" type="curve" smooth="yes"/>
      <point x="335.04" y="385.46"/>
      <point x="337.82" y="385.47"/>
      <point x="340.6" y="385.5" type="curve" smooth="yes"/>
      <point x="341.18" y="385.51"/>
      <point x="341.76" y="385.51"/>
      <point x="342.34" y="385.52" type="curve" smooth="yes"/>
      <point x="356.39" y="384.91"/>
      <point x="370.34" y="381.55"/>
      <point x="383.2" y="375.72" type="curve" smooth="yes"/>
      <point x="400.98" y="367.65"/>
      <point x="416.64" y="354.98"/>
      <point x="429.01" y="339.65" type="curve" smooth="yes"/>
      <point x="453.75" y="309"/>
      <point x="465.41" y="268.7"/>
    </contour>
    <contour>
      <point x="336.76" y="734.4" type="curve" smooth="yes"/>
      <point x="283.78" y="733.23"/>
      <point x="229.75" y="724.26"/>
      <point x="183.26" y="698.28" type="curve" smooth="yes"/>
      <point x="160.02" y="685.29"/>
      <point x="139" y="667.78"/>
      <point x="123.31" y="646" type="curve" smooth="yes"/>
      <point x="107.62" y="624.21"/>
      <point x="97.51" y="598.14"/>
      <point x="95.26" y="571.21" type="curve" smooth="yes"/>
      <point x="92.82" y="541.96"/>
      <point x="99.76" y="512.1"/>
      <point x="114.15" y="486.67" type="curve" smooth="yes"/>
      <point x="128.53" y="461.24"/>
      <point x="150" y="440.34"/>
      <point x="174.56" y="425.02" type="curve" smooth="yes"/>
      <point x="189.43" y="415.74"/>
      <point x="205.25" y="408.4"/>
      <point x="221.67" y="402.69" type="curve"/>
      <point x="180.39" y="387.89"/>
      <point x="141.51" y="365.05"/>
      <point x="111.74" y="332.47" type="curve" smooth="yes"/>
      <point x="78.92" y="296.56"/>
      <point x="58.63" y="247.96"/>
      <point x="60.42" y="198.9" type="curve" smooth="yes"/>
      <point x="61.58" y="167.06"/>
      <point x="71.78" y="135.73"/>
      <point x="88.86" y="109.07" type="curve" smooth="yes"/>
      <point x="105.94" y="82.4"/>
      <point x="129.65" y="60.44"/>
      <point x="156.41" y="44.01" type="curve" smooth="yes"/>
      <point x="209.93" y="11.16"/>
      <point x="273.96" y="-0.42"/>
      <point x="336.42" y="0" type="curve" smooth="yes"/>
      <point x="395.99" y="0.4"/>
      <point x="456.51" y="11.61"/>
      <point x="508.85" y="40.62" type="curve" smooth="yes"/>
      <point x="535.02" y="55.13"/>
      <point x="558.87" y="74.3"/>
      <point x="577.58" y="97.94" type="curve" smooth="yes"/>
      <point x="596.29" y="121.58"/>
      <point x="609.69" y="149.7"/>
      <point x="615.42" y="179.52" type="curve" smooth="yes"/>
      <point x="620.47" y="205.8"/>
      <point x="619.54" y="233.25"/>
      <point x="612.83" y="259.14" type="curve" smooth="yes"/>
      <point x="606.13" y="285.04"/>
      <point x="593.73" y="309.31"/>
      <point x="577.29" y="330.19" type="curve" smooth="yes"/>
      <point x="548.68" y="366.53"/>
      <point x="508.45" y="391.99"/>
      <point x="465.05" y="407.05" type="curve"/>
      <point x="480.89" y="413.22"/>
      <point x="496.11" y="420.93"/>
      <point x="510.38" y="430.45" type="curve" smooth="yes"/>
      <point x="535.17" y="446.99"/>
      <point x="556.56" y="469.3"/>
      <point x="570.26" y="496.09" type="curve" smooth="yes"/>
      <point x="583.96" y="522.88"/>
      <point x="589.58" y="554.02"/>
      <point x="585.32" y="583.92" type="curve" smooth="yes"/>
      <point x="581.53" y="610.55"/>
      <point x="570.03" y="635.86"/>
      <point x="553.29" y="656.67" type="curve" smooth="yes"/>
      <point x="536.55" y="677.47"/>
      <point x="514.79" y="693.79"/>
      <point x="491.06" y="705.55" type="curve" smooth="yes"/>
      <point x="443.6" y="729.08"/>
      <point x="389.51" y="735.57"/>
    </contour>
    <contour>
      <point x="437.31" y="577.38" type="curve" smooth="yes"/>
      <point x="441.72" y="542.73"/>
      <point x="435.69" y="506.06"/>
      <point x="416.97" y="476.8" type="curve" smooth="yes"/>
      <point x="407.61" y="462.17"/>
      <point x="395" y="449.6"/>
      <point x="380.02" y="441.13" type="curve" smooth="yes"/>
      <point x="365.04" y="432.65"/>
      <point x="347.74" y="428.41"/>
      <point x="330.64" y="429.37" type="curve" smooth="yes"/>
      <point x="314.77" y="430.26"/>
      <point x="299.21" y="435.6"/>
      <point x="285.85" y="444.38" type="curve" smooth="yes"/>
      <point x="272.49" y="453.16"/>
      <point x="261.34" y="465.27"/>
      <point x="253.01" y="479.07" type="curve" smooth="yes"/>
      <point x="236.33" y="506.67"/>
      <point x="230.62" y="540.37"/>
      <point x="233.82" y="572.63" type="curve" smooth="yes"/>
      <point x="236.61" y="600.7"/>
      <point x="246.36" y="628.51"/>
      <point x="264.26" y="650.02" type="curve" smooth="yes"/>
      <point x="273.21" y="660.77"/>
      <point x="284.2" y="669.82"/>
      <point x="296.62" y="676.04" type="curve" smooth="yes"/>
      <point x="309.04" y="682.25"/>
      <point x="322.86" y="685.57"/>
      <point x="336.69" y="685.44" type="curve" smooth="yes"/>
      <point x="349.99" y="685.31"/>
      <point x="363.22" y="681.99"/>
      <point x="375.16" y="676" type="curve" smooth="yes"/>
      <point x="387.09" y="670.01"/>
      <point x="397.71" y="661.4"/>
      <point x="406.45" y="651.18" type="curve" smooth="yes"/>
      <point x="423.94" y="630.74"/>
      <point x="433.9" y="604.29"/>
    </contour>
  </outline>
</glyph>
<glyph name="nine" format="2">
  <advance width="630"/>
  <unicode hex="0039"/>
  <note>
nine
</note>
  <outline>
    <contour>
      <point x="201.38" y="9.64" type="curve" smooth="yes"/>
      <point x="258.57" y="-2.14"/>
      <point x="319.16" y="1.78"/>
      <point x="374.11" y="21.58" type="curve" smooth="yes"/>
      <point x="418.43" y="37.55"/>
      <point x="458.27" y="65.29"/>
      <point x="489.59" y="100.48" type="curve" smooth="yes"/>
      <point x="520.91" y="135.68"/>
      <point x="544.06" y="177.64"/>
      <point x="560.68" y="221.73" type="curve" smooth="yes"/>
      <point x="581.37" y="276.61"/>
      <point x="592.67" y="335.12"/>
      <point x="593.12" y="393.77" type="curve" smooth="yes"/>
      <point x="593.57" y="452.42"/>
      <point x="582.34" y="511.68"/>
      <point x="556.05" y="564.11" type="curve" smooth="yes"/>
      <point x="534.02" y="608.05"/>
      <point x="501.36" y="646.79"/>
      <point x="460.99" y="674.84" type="curve" smooth="yes"/>
      <point x="420.62" y="702.89"/>
      <point x="372.73" y="720.12"/>
      <point x="323.71" y="723.7" type="curve" smooth="yes"/>
      <point x="271.18" y="727.54"/>
      <point x="217.47" y="715.58"/>
      <point x="172.01" y="688.98" type="curve" smooth="yes"/>
      <point x="126.55" y="662.38"/>
      <point x="89.71" y="621.12"/>
      <point x="69.05" y="572.68" type="curve" smooth="yes"/>
      <point x="39.12" y="502.53"/>
      <point x="44.93" y="418.45"/>
      <point x="83.25" y="352.51" type="curve" smooth="yes"/>
      <point x="116.03" y="296.1"/>
      <point x="171.46" y="253.4"/>
      <point x="234.22" y="235.6" type="curve" smooth="yes"/>
      <point x="296.98" y="217.8"/>
      <point x="366.47" y="225.04"/>
      <point x="424.25" y="255.34" type="curve"/>
      <point x="422.41" y="227.24"/>
      <point x="416.43" y="199.38"/>
      <point x="406.3" y="173.1" type="curve" smooth="yes"/>
      <point x="396.69" y="148.17"/>
      <point x="383.25" y="124.58"/>
      <point x="365.56" y="104.57" type="curve" smooth="yes"/>
      <point x="347.86" y="84.55"/>
      <point x="325.73" y="68.24"/>
      <point x="300.76" y="58.74" type="curve" smooth="yes"/>
      <point x="263.5" y="44.56"/>
      <point x="220.17" y="46.72"/>
      <point x="184.97" y="65.45" type="curve"/>
      <point x="197.66" y="72.31"/>
      <point x="208.01" y="83.39"/>
      <point x="213.98" y="96.52" type="curve" smooth="yes"/>
      <point x="219.95" y="109.65"/>
      <point x="221.5" y="124.74"/>
      <point x="218.33" y="138.81" type="curve" smooth="yes"/>
      <point x="215.16" y="152.88"/>
      <point x="207.29" y="165.84"/>
      <point x="196.28" y="175.16" type="curve" smooth="yes"/>
      <point x="185.27" y="184.47"/>
      <point x="171.18" y="190.08"/>
      <point x="156.79" y="190.91" type="curve" smooth="yes"/>
      <point x="145.63" y="191.55"/>
      <point x="134.31" y="189.35"/>
      <point x="124.19" y="184.59" type="curve" smooth="yes"/>
      <point x="114.07" y="179.83"/>
      <point x="105.17" y="172.54"/>
      <point x="98.45" y="163.6" type="curve" smooth="yes"/>
      <point x="87.35" y="148.83"/>
      <point x="82.48" y="129.73"/>
      <point x="84.19" y="111.34" type="curve" smooth="yes"/>
      <point x="85.9" y="92.94"/>
      <point x="93.92" y="75.4"/>
      <point x="105.61" y="61.1" type="curve" smooth="yes"/>
      <point x="117.3" y="46.79"/>
      <point x="132.51" y="35.59"/>
      <point x="149" y="27.26" type="curve" smooth="yes"/>
      <point x="165.49" y="18.93"/>
      <point x="183.28" y="13.36"/>
    </contour>
    <contour>
      <point x="180.22" y="483.39" type="curve" smooth="yes"/>
      <point x="179.57" y="524.3"/>
      <point x="186.58" y="566.46"/>
      <point x="208.05" y="601.29" type="curve" smooth="yes"/>
      <point x="218.79" y="618.71"/>
      <point x="233.29" y="633.96"/>
      <point x="250.85" y="644.45" type="curve" smooth="yes"/>
      <point x="268.41" y="654.94"/>
      <point x="288.98" y="660.47"/>
      <point x="309.42" y="659.68" type="curve" smooth="yes"/>
      <point x="328.46" y="658.94"/>
      <point x="347.19" y="652.77"/>
      <point x="363.26" y="642.53" type="curve" smooth="yes"/>
      <point x="379.33" y="632.29"/>
      <point x="392.74" y="618.13"/>
      <point x="403.09" y="602.13" type="curve" smooth="yes"/>
      <point x="423.79" y="570.13"/>
      <point x="432.81" y="531.72"/>
      <point x="435.56" y="493.71" type="curve" smooth="yes"/>
      <point x="438.45" y="453.89"/>
      <point x="434.74" y="412.71"/>
      <point x="417.95" y="376.48" type="curve" smooth="yes"/>
      <point x="409.55" y="358.37"/>
      <point x="397.67" y="341.73"/>
      <point x="382.39" y="328.88" type="curve" smooth="yes"/>
      <point x="367.11" y="316.03"/>
      <point x="348.41" y="307.15"/>
      <point x="328.69" y="304.09" type="curve" smooth="yes"/>
      <point x="306.9" y="300.71"/>
      <point x="284.15" y="304.55"/>
      <point x="264.4" y="314.36" type="curve" smooth="yes"/>
      <point x="244.65" y="324.16"/>
      <point x="227.99" y="339.66"/>
      <point x="215.46" y="357.8" type="curve" smooth="yes"/>
      <point x="190.39" y="394.08"/>
      <point x="180.94" y="439.3"/>
    </contour>
  </outline>
</glyph>
<glyph name="colon" format="2">
  <advance width="221"/>
  <unicode hex="003A"/>
  <note>
colon
</note>
  <outline>
    <contour>
      <point x="109.88" y="510.35" type="line"/>
      <point x="20" y="420.47" type="line"/>
      <point x="111.35" y="329.12" type="line"/>
      <point x="201.23" y="419" type="line"/>
    </contour>
    <contour>
      <point x="109.88" y="170.35" type="line"/>
      <point x="20" y="80.47" type="line"/>
      <point x="111.35" y="-10.88" type="line"/>
      <point x="201.23" y="79" type="line"/>
    </contour>
  </outline>
</glyph>
<glyph name="semicolon" format="2">
  <advance width="256"/>
  <unicode hex="003B"/>
  <note>
semicolon
</note>
  <outline>
    <contour>
      <point x="109.88" y="450.35" type="line"/>
      <point x="20" y="360.47" type="line"/>
      <point x="111.35" y="269.12" type="line"/>
      <point x="201.23" y="359" type="line"/>
    </contour>
    <contour>
      <point x="77.5" y="-143.49" type="curve"/>
      <point x="84" y="-153.66" type="line"/>
      <point x="117.43" y="-131.62"/>
      <point x="149.26" y="-106.87"/>
      <point x="177" y="-77.99" type="curve" smooth="yes"/>
      <point x="192.5" y="-61.85"/>
      <point x="206.61" y="-44.2"/>
      <point x="217.17" y="-24.48" type="curve" smooth="yes"/>
      <point x="227.73" y="-4.75"/>
      <point x="234.51" y="17.15"/>
      <point x="235.5" y="39.51" type="curve" smooth="yes"/>
      <point x="236.69" y="66.54"/>
      <point x="229.3" y="93.73"/>
      <point x="215.5" y="117.01" type="curve" smooth="yes"/>
      <point x="202.33" y="139.23"/>
      <point x="183.54" y="158.05"/>
      <point x="161.5" y="171.51" type="curve"/>
      <point x="26" y="82.68" type="line"/>
      <point x="39" y="61.68" type="line"/>
      <point x="51.67" y="70.01" type="line" smooth="yes"/>
      <point x="56.47" y="73.17"/>
      <point x="61.44" y="76.2"/>
      <point x="66.94" y="77.87" type="curve" smooth="yes"/>
      <point x="72.44" y="79.54"/>
      <point x="78.32" y="79.89"/>
      <point x="84" y="79.01" type="curve" smooth="yes"/>
      <point x="97.71" y="76.89"/>
      <point x="109.75" y="68.24"/>
      <point x="118.69" y="57.62" type="curve" smooth="yes"/>
      <point x="127.63" y="47.01"/>
      <point x="133.91" y="34.33"/>
      <point x="138.27" y="21.16" type="curve" smooth="yes"/>
      <point x="146.99" y="-5.19"/>
      <point x="148.51" y="-34.01"/>
      <point x="142" y="-60.99" type="curve" smooth="yes"/>
      <point x="133.54" y="-96.02"/>
      <point x="109.69" y="-127.29"/>
    </contour>
  </outline>
</glyph>
<glyph name="less" format="2">
  <advance width="425"/>
  <unicode hex="003C"/>
  <note>
less
</note>
  <outline>
    <contour>
      <point x="391.33" y="545.1" type="line"/>
      <point x="86.33" y="386.6" type="line"/>
      <point x="86.33" y="378.6" type="line"/>
      <point x="391.33" y="220.1" type="line"/>
      <point x="312.33" y="69.6" type="line"/>
      <point x="292.33" y="79.6" type="line"/>
      <point x="309.33" y="116.6" type="line"/>
      <point x="25" y="270.93" type="line"/>
      <point x="37.76" y="306.68"/>
      <point x="44.33" y="344.64"/>
      <point x="44.33" y="382.6" type="curve" smooth="yes"/>
      <point x="44.33" y="420.56"/>
      <point x="37.76" y="458.51"/>
      <point x="25" y="494.27" type="curve"/>
      <point x="309.33" y="648.6" type="line"/>
      <point x="292.33" y="685.6" type="line"/>
      <point x="312.33" y="695.6" type="line"/>
    </contour>
  </outline>
</glyph>
<glyph name="at" format="2">
  <advance width="859"/>
  <unicode hex="0040"/>
  <note>
at
</note>
  <outline>
    <contour>
      <point x="674.8" y="120.81" type="line"/>
      <point x="670.07" y="140.03" type="line"/>
      <point x="626.93" y="111.29" type="line"/>
      <point x="578.99" y="159.22" type="line"/>
      <point x="578.99" y="419.51" type="line"/>
      <point x="621.17" y="453.71" type="line"/>
      <point x="603.53" y="475.46" type="line"/>
      <point x="566.08" y="445.09" type="line"/>
      <point x="476.56" y="487.5" type="line"/>
      <point x="421.79" y="483.8"/>
      <point x="367.78" y="467.63"/>
      <point x="320.52" y="439.7" type="curve" smooth="yes"/>
      <point x="288.69" y="420.88"/>
      <point x="259.92" y="396.62"/>
      <point x="237.24" y="367.41" type="curve" smooth="yes"/>
      <point x="214.57" y="338.2"/>
      <point x="198.17" y="303.92"/>
      <point x="191.22" y="267.6" type="curve" smooth="yes"/>
      <point x="184.91" y="234.64"/>
      <point x="186.46" y="200.16"/>
      <point x="196.1" y="168.02" type="curve" smooth="yes"/>
      <point x="205.73" y="135.88"/>
      <point x="223.39" y="106.18"/>
      <point x="247" y="82.33" type="curve" smooth="yes"/>
      <point x="275.83" y="53.22"/>
      <point x="313.51" y="32.98"/>
      <point x="353.7" y="25" type="curve"/>
      <point x="459.24" y="101.73" type="line"/>
      <point x="535.61" y="25.22" type="line"/>
    </contour>
    <contour>
      <point x="25.56" y="250" type="curve" smooth="yes"/>
      <point x="25.56" y="28.1"/>
      <point x="206.55" y="-152"/>
      <point x="429.56" y="-152" type="curve" smooth="yes"/>
      <point x="652.57" y="-152"/>
      <point x="833.56" y="28.1"/>
      <point x="833.56" y="250" type="curve" smooth="yes"/>
      <point x="833.56" y="471.9"/>
      <point x="652.57" y="652"/>
      <point x="429.56" y="652" type="curve" smooth="yes"/>
      <point x="206.55" y="652"/>
      <point x="25.56" y="471.9"/>
    </contour>
    <contour>
      <point x="45.76" y="250" type="curve" smooth="yes"/>
      <point x="45.76" y="460.81"/>
      <point x="217.7" y="631.9"/>
      <point x="429.56" y="631.9" type="curve" smooth="yes"/>
      <point x="641.42" y="631.9"/>
      <point x="813.36" y="460.81"/>
      <point x="813.36" y="250" type="curve" smooth="yes"/>
      <point x="813.36" y="39.19"/>
      <point x="641.42" y="-131.9"/>
      <point x="429.56" y="-131.9" type="curve" smooth="yes"/>
      <point x="217.7" y="-131.9"/>
      <point x="45.76" y="39.19"/>
    </contour>
    <contour>
      <point x="454.37" y="114.71" type="curve"/>
      <point x="443.5" y="111.96"/>
      <point x="432.15" y="111.15"/>
      <point x="421" y="112.33" type="curve" smooth="yes"/>
      <point x="404.17" y="114.12"/>
      <point x="387.91" y="120.49"/>
      <point x="374.01" y="130.14" type="curve" smooth="yes"/>
      <point x="360.1" y="139.8"/>
      <point x="348.54" y="152.64"/>
      <point x="339.58" y="167" type="curve" smooth="yes"/>
      <point x="321.65" y="195.72"/>
      <point x="313.79" y="229.81"/>
      <point x="311.57" y="263.59" type="curve" smooth="yes"/>
      <point x="309.68" y="292.34"/>
      <point x="311.8" y="321.5"/>
      <point x="319.45" y="349.28" type="curve" smooth="yes"/>
      <point x="327.11" y="377.06"/>
      <point x="340.9" y="403.52"/>
      <point x="361.57" y="423.59" type="curve" smooth="yes"/>
      <point x="386.07" y="447.38"/>
      <point x="420.24" y="461.15"/>
      <point x="454.37" y="459.99" type="curve"/>
      <point x="454.37" y="344.9"/>
      <point x="454.37" y="229.8"/>
    </contour>
  </outline>
</glyph>
<glyph name="A" format="2">
  <advance width="767"/>
  <unicode hex="0041"/>
  <note>
A
</note>
  <outline>
    <contour>
      <point x="676.62" y="734.62" type="curve"/>
      <point x="676.62" y="734.62" type="line"/>
      <point x="694" y="754" type="line"/>
      <point x="672.25" y="772.08" type="line"/>
      <point x="610.4" y="712.82" type="line"/>
      <point x="552.533" y="753.06"/>
      <point x="500" y="770"/>
      <point x="432" y="770" type="curve" smooth="yes"/>
      <point x="345.333" y="770"/>
      <point x="254.333" y="728.167"/>
      <point x="201" y="655.5" type="curve" smooth="yes"/>
      <point x="174.333" y="619.167"/>
      <point x="161" y="578.667"/>
      <point x="161" y="534" type="curve" smooth="yes"/>
      <point x="161" y="432.667"/>
      <point x="193.667" y="366.333"/>
      <point x="283" y="321" type="curve"/>
      <point x="173.5" y="139.52" type="line"/>
      <point x="116" y="109"/>
      <point x="67" y="53"/>
      <point x="44" y="-10" type="curve"/>
      <point x="63" y="-10" type="line"/>
      <point x="106" y="37"/>
      <point x="171" y="65"/>
      <point x="236" y="65" type="curve" smooth="yes"/>
      <point x="292" y="65"/>
      <point x="349" y="44"/>
      <point x="394" y="6.77" type="curve"/>
      <point x="505.83" y="103.37" type="line" smooth="yes"/>
      <point x="550" y="142"/>
      <point x="590" y="106.253"/>
      <point x="626" y="-3.24" type="curve"/>
      <point x="759" y="103.82" type="line"/>
      <point x="730" y="136.82" type="line"/>
      <point x="696" y="108.99" type="line"/>
      <point x="662.667" y="134.337"/>
      <point x="653" y="162"/>
      <point x="653" y="246" type="curve" smooth="yes"/>
      <point x="653" y="643.99" type="line" smooth="yes"/>
      <point x="653" y="687.33"/>
      <point x="660.873" y="717.54"/>
    </contour>
    <contour>
      <point x="348.45" y="373.99" type="line"/>
      <point x="508.88" y="639.9" type="line"/>
      <point x="524" y="630.26" type="line"/>
      <point x="524" y="373.99" type="line"/>
    </contour>
    <contour>
      <point x="483.14" y="652.7" type="curve"/>
      <point x="292.78" y="337.19" type="line"/>
      <point x="234.407" y="378.27"/>
      <point x="213" y="433.333"/>
      <point x="213" y="508" type="curve" smooth="yes"/>
      <point x="213" y="579"/>
      <point x="310" y="671"/>
      <point x="407" y="671" type="curve" smooth="yes"/>
      <point x="428" y="671"/>
      <point x="453.713" y="664.9"/>
    </contour>
    <contour>
      <point x="219" y="159" type="curve"/>
      <point x="286.31" y="270.98" type="line"/>
      <point x="524" y="270.98" type="line"/>
      <point x="524" y="177.58" type="line"/>
      <point x="464" y="126.98" type="line"/>
      <point x="408" y="163.007"/>
      <point x="357" y="173"/>
      <point x="304" y="173" type="curve" smooth="yes"/>
      <point x="275" y="173"/>
      <point x="238" y="166"/>
    </contour>
  </outline>
</glyph>
<glyph name="B" format="2">
  <advance width="855"/>
  <unicode hex="0042"/>
  <note>
B
</note>
  <outline>
    <contour>
      <point x="67.28" y="309.38" type="curve"/>
      <point x="86.42" y="309.36" type="line"/>
      <point x="85.12" y="316.51"/>
      <point x="85.33" y="323.94"/>
      <point x="87.08" y="331" type="curve" smooth="yes"/>
      <point x="90.02" y="342.9"/>
      <point x="97.62" y="353.68"/>
      <point x="108.16" y="359.94" type="curve" smooth="yes"/>
      <point x="113.43" y="363.07"/>
      <point x="119.33" y="365.07"/>
      <point x="125.37" y="366.1" type="curve" smooth="yes"/>
      <point x="131.41" y="367.13"/>
      <point x="137.57" y="367.2"/>
      <point x="143.7" y="367.2" type="curve" smooth="yes"/>
      <point x="153.89" y="367.2"/>
      <point x="164.08" y="367.2"/>
      <point x="174.27" y="367.2" type="curve"/>
      <point x="174.27" y="344.58"/>
      <point x="174.27" y="321.95"/>
      <point x="174.27" y="299.33" type="curve" smooth="yes"/>
      <point x="174.27" y="272.96"/>
      <point x="174.87" y="246.5"/>
      <point x="171.79" y="220.32" type="curve" smooth="yes"/>
      <point x="168.71" y="194.14"/>
      <point x="160.94" y="167.89"/>
      <point x="144.85" y="147" type="curve" smooth="yes"/>
      <point x="136.24" y="135.82"/>
      <point x="125.43" y="126.33"/>
      <point x="113.18" y="119.33" type="curve"/>
      <point x="122.51" y="95.33" type="line"/>
      <point x="181.78" y="110.18"/>
      <point x="238.21" y="142.95"/>
      <point x="273.26" y="193" type="curve" smooth="yes"/>
      <point x="284.46" y="209"/>
      <point x="293.04" y="226.9"/>
      <point x="297.83" y="245.83" type="curve" smooth="yes"/>
      <point x="302.62" y="264.76"/>
      <point x="303.26" y="284.47"/>
      <point x="303.26" y="304" type="curve" smooth="yes"/>
      <point x="303.26" y="406" type="line"/>
      <point x="303.33" y="552.48" type="line" smooth="yes"/>
      <point x="303.34" y="566.63"/>
      <point x="303.73" y="581.15"/>
      <point x="309.17" y="594.21" type="curve" smooth="yes"/>
      <point x="311.89" y="600.74"/>
      <point x="315.78" y="606.76"/>
      <point x="320.51" y="612.03" type="curve" smooth="yes"/>
      <point x="325.24" y="617.29"/>
      <point x="330.78" y="621.75"/>
      <point x="336.34" y="626.12" type="curve" smooth="yes"/>
      <point x="484.11" y="741.92" type="line"/>
      <point x="490.34" y="764.16" type="line"/>
      <point x="478.83" y="757.14"/>
      <point x="466.27" y="751.49"/>
      <point x="453.09" y="747.43" type="curve" smooth="yes"/>
      <point x="434.12" y="741.58"/>
      <point x="413.89" y="739.14"/>
      <point x="393.84" y="739.92" type="curve" smooth="yes"/>
      <point x="371.45" y="740.79"/>
      <point x="349.53" y="745.64"/>
      <point x="327.73" y="750.3" type="curve" smooth="yes"/>
      <point x="305.93" y="754.96"/>
      <point x="283.75" y="759.09"/>
      <point x="261.34" y="758.67" type="curve" smooth="yes"/>
      <point x="232.89" y="758.14"/>
      <point x="204.88" y="749.95"/>
      <point x="180.84" y="736.36" type="curve" smooth="yes"/>
      <point x="139.2" y="712.81"/>
      <point x="108.3" y="675.48"/>
      <point x="91.34" y="634.17" type="curve"/>
      <point x="114.84" y="634.17" type="line"/>
      <point x="118.11" y="644.93"/>
      <point x="124.94" y="654.79"/>
      <point x="134.21" y="662.26" type="curve" smooth="yes"/>
      <point x="143.48" y="669.73"/>
      <point x="155.11" y="674.74"/>
      <point x="167.34" y="677.01" type="curve" smooth="yes"/>
      <point x="187.9" y="680.83"/>
      <point x="209.26" y="676.85"/>
      <point x="229.28" y="671.21" type="curve" smooth="yes"/>
      <point x="249.3" y="665.57"/>
      <point x="269.05" y="658.67"/>
      <point x="289.84" y="656.04" type="curve" smooth="yes"/>
      <point x="299.51" y="654.82"/>
      <point x="309.31" y="654.61"/>
      <point x="319.02" y="655.35" type="curve"/>
      <point x="290.8" y="637.41"/>
      <point x="262.58" y="619.49"/>
      <point x="234.34" y="601.59" type="curve" smooth="yes"/>
      <point x="217.28" y="590.78"/>
      <point x="199.8" y="579.47"/>
      <point x="188.38" y="562.82" type="curve" smooth="yes"/>
      <point x="182.67" y="554.49"/>
      <point x="178.64" y="545.03"/>
      <point x="176.52" y="535.16" type="curve" smooth="yes"/>
      <point x="174.39" y="525.29"/>
      <point x="174.21" y="515.12"/>
      <point x="174.22" y="505.02" type="curve" smooth="yes"/>
      <point x="174.23" y="479.05" type="line"/>
      <point x="152.44" y="475.9"/>
      <point x="130.58" y="472.58"/>
      <point x="110.76" y="463.27" type="curve" smooth="yes"/>
      <point x="96.74" y="456.68"/>
      <point x="84.11" y="447.04"/>
      <point x="74.47" y="434.92" type="curve" smooth="yes"/>
      <point x="64.82" y="422.8"/>
      <point x="58.17" y="408.38"/>
      <point x="54.76" y="393.27" type="curve" smooth="yes"/>
      <point x="48.4" y="365.08"/>
      <point x="53.22" y="334.64"/>
    </contour>
    <contour>
      <point x="494.36" y="-3.81" type="curve"/>
      <point x="828.51" y="169.02" type="line"/>
      <point x="828.51" y="420.02" type="line"/>
      <point x="790" y="452"/>
      <point x="739" y="481"/>
      <point x="691.96" y="498.24" type="curve"/>
      <point x="816.35" y="585.52" type="line"/>
      <point x="654.6" y="775.25" type="line"/>
      <point x="594.15" y="755.17"/>
      <point x="536.73" y="726.01"/>
      <point x="484.85" y="689.05" type="curve" smooth="yes"/>
      <point x="434.27" y="653.01"/>
      <point x="388.97" y="609.57"/>
      <point x="350.85" y="560.53" type="curve"/>
      <point x="350.85" y="248.02" type="line" smooth="yes"/>
      <point x="350.85" y="236.74"/>
      <point x="350.61" y="225.41"/>
      <point x="348.73" y="214.29" type="curve" smooth="yes"/>
      <point x="346.85" y="203.17"/>
      <point x="343.46" y="192.32"/>
      <point x="338.85" y="182.02" type="curve" smooth="yes"/>
      <point x="334.66" y="172.65"/>
      <point x="329.55" y="163.71"/>
      <point x="323.68" y="155.29" type="curve"/>
      <point x="217.73" y="132.57"/>
      <point x="122.84" y="62.17"/>
      <point x="68.77" y="-31.98" type="curve"/>
      <point x="93.06" y="-31.98" type="line"/>
      <point x="114.91" y="-10.78"/>
      <point x="140.52" y="6.5"/>
      <point x="168.27" y="19.02" type="curve" smooth="yes"/>
      <point x="199.29" y="33.01"/>
      <point x="232.86" y="41.04"/>
      <point x="266.77" y="44.02" type="curve" smooth="yes"/>
      <point x="345.02" y="50.9"/>
      <point x="424.71" y="32.51"/>
    </contour>
    <contour>
      <point x="551.86" y="126.06" type="curve"/>
      <point x="551.86" y="156.83" type="line"/>
      <point x="697.52" y="230.37" type="line"/>
      <point x="697.52" y="120.03" type="line"/>
      <point x="615.77" y="82.03" type="line"/>
      <point x="596.36" y="99.24"/>
      <point x="574.84" y="114.03"/>
    </contour>
    <contour>
      <point x="551.86" y="293.91" type="line"/>
      <point x="551.86" y="427.77" type="line"/>
      <point x="595" y="413"/>
      <point x="646" y="386"/>
      <point x="683.31" y="360.27" type="curve"/>
    </contour>
    <contour>
      <point x="523.2" y="139.32" type="curve"/>
      <point x="519.08" y="140.98"/>
      <point x="514.94" y="142.55"/>
      <point x="510.77" y="144.04" type="curve" smooth="yes"/>
      <point x="467.34" y="159.52"/>
      <point x="420.69" y="165.48"/>
      <point x="374.67" y="162.44" type="curve"/>
      <point x="385.39" y="171.98"/>
      <point x="396.17" y="181.47"/>
      <point x="406.86" y="191.04" type="curve" smooth="yes"/>
      <point x="429.79" y="211.58"/>
      <point x="452.25" y="233.59"/>
      <point x="466.46" y="260.9" type="curve" smooth="yes"/>
      <point x="473.56" y="274.56"/>
      <point x="478.46" y="289.34"/>
      <point x="481.05" y="304.51" type="curve" smooth="yes"/>
      <point x="483.64" y="319.68"/>
      <point x="483.86" y="335.15"/>
      <point x="483.86" y="350.54" type="curve" smooth="yes"/>
      <point x="483.86" y="406.54" type="line"/>
      <point x="483.86" y="612.31" type="line"/>
      <point x="485.48" y="629.44"/>
      <point x="491.37" y="646.15"/>
      <point x="500.86" y="660.51" type="curve" smooth="yes"/>
      <point x="506.96" y="669.74"/>
      <point x="514.54" y="677.98"/>
      <point x="523.2" y="684.87" type="curve"/>
      <point x="523.2" y="503.02"/>
      <point x="523.2" y="321.17"/>
    </contour>
    <contour>
      <point x="551.87" y="188.95" type="line"/>
      <point x="551.87" y="261.8" type="line"/>
      <point x="697.53" y="335.34" type="line"/>
      <point x="697.53" y="262.49" type="line"/>
    </contour>
    <contour>
      <point x="551.87" y="690.79" type="curve"/>
      <point x="684.87" y="534.22" type="line"/>
      <point x="551.87" y="434.93" type="line"/>
      <point x="551.87" y="520.22"/>
      <point x="551.87" y="605.5"/>
    </contour>
  </outline>
</glyph>
<glyph name="C" format="2">
  <advance width="748"/>
  <unicode hex="0043"/>
  <note>
C
</note>
  <outline>
    <contour>
      <point x="375.26" y="708.5" type="curve"/>
      <point x="365.68" y="722.86" type="line"/>
      <point x="289.26" y="696.89"/>
      <point x="220.99" y="647.41"/>
      <point x="172.6" y="582.81" type="curve" smooth="yes"/>
      <point x="124.21" y="518.21"/>
      <point x="95.87" y="438.68"/>
      <point x="93.18" y="358.01" type="curve" smooth="yes"/>
      <point x="89.93" y="260.41"/>
      <point x="125.11" y="161.42"/>
      <point x="191.72" y="90.01" type="curve" smooth="yes"/>
      <point x="258.33" y="18.6"/>
      <point x="356.75" y="-23.72"/>
      <point x="454.18" y="-16.99" type="curve" smooth="yes"/>
      <point x="503.11" y="-13.61"/>
      <point x="551.29" y="1.88"/>
      <point x="592.47" y="28.51" type="curve" smooth="yes"/>
      <point x="633.66" y="55.14"/>
      <point x="667.65" y="92.94"/>
      <point x="689.18" y="137.01" type="curve" smooth="yes"/>
      <point x="704.85" y="169.08"/>
      <point x="713.93" y="204.36"/>
      <point x="715.68" y="240.01" type="curve"/>
      <point x="696.51" y="240.01" type="line"/>
      <point x="677.11" y="201.22"/>
      <point x="648.01" y="167.31"/>
      <point x="612.57" y="142.31" type="curve" smooth="yes"/>
      <point x="579.15" y="118.73"/>
      <point x="540.12" y="103.08"/>
      <point x="499.62" y="97.41" type="curve"/>
      <point x="499.62" y="276.56"/>
      <point x="499.62" y="455.71"/>
      <point x="499.62" y="634.86" type="curve"/>
      <point x="504.6" y="632.01"/>
      <point x="509.61" y="629.21"/>
      <point x="514.64" y="626.45" type="curve" smooth="yes"/>
      <point x="549.29" y="607.43"/>
      <point x="585.08" y="590.48"/>
      <point x="621.74" y="575.7" type="curve"/>
      <point x="740.68" y="699.93" type="line"/>
      <point x="732.5" y="709.57" type="line"/>
      <point x="700.95" y="683.39" type="line"/>
      <point x="678.16" y="690.55"/>
      <point x="655.81" y="699.13"/>
      <point x="634.07" y="709.04" type="curve" smooth="yes"/>
      <point x="598.03" y="725.48"/>
      <point x="563.68" y="745.62"/>
      <point x="531.74" y="769.04" type="curve"/>
      <point x="531.74" y="769.04" type="line"/>
      <point x="531.74" y="769.04" type="line"/>
      <point x="267.62" y="607.69" type="line"/>
      <point x="293.78" y="650.07"/>
      <point x="331.02" y="685.66"/>
    </contour>
    <contour>
      <point x="297.26" y="272.42" type="curve"/>
      <point x="242.44" y="249.07" type="line"/>
      <point x="235.12" y="266.79"/>
      <point x="229.47" y="285.24"/>
      <point x="225.34" y="303.94" type="curve" smooth="yes"/>
      <point x="215.56" y="348.3"/>
      <point x="213.63" y="394.21"/>
      <point x="217.26" y="439.49" type="curve" smooth="yes"/>
      <point x="220.54" y="480.43"/>
      <point x="228.6" y="521.31"/>
      <point x="243.64" y="559.44" type="curve"/>
      <point x="297.26" y="592.2" type="line"/>
      <point x="297.26" y="485.61"/>
      <point x="297.26" y="379.02"/>
    </contour>
    <contour>
      <point x="253.74" y="224.87" type="curve"/>
      <point x="426.26" y="297.48" type="line"/>
      <point x="426.32" y="671.04" type="line"/>
      <point x="434.05" y="675.76" type="line"/>
      <point x="446.18" y="667.53"/>
      <point x="458.48" y="659.56"/>
      <point x="470.96" y="651.87" type="curve"/>
      <point x="470.96" y="466.27"/>
      <point x="470.96" y="280.68"/>
      <point x="470.96" y="95.08" type="curve"/>
      <point x="438.69" y="94.36"/>
      <point x="406.26" y="100"/>
      <point x="376.32" y="112.03" type="curve" smooth="yes"/>
      <point x="339.77" y="126.72"/>
      <point x="307.19" y="150.98"/>
      <point x="282.27" y="181.48" type="curve" smooth="yes"/>
      <point x="271.28" y="194.93"/>
      <point x="261.8" y="209.51"/>
    </contour>
  </outline>
</glyph>
<glyph name="D" format="2">
  <advance width="787"/>
  <unicode hex="0044"/>
  <note>
D
</note>
  <outline>
    <contour>
      <point x="114.09" y="142.31" type="curve"/>
      <point x="123.42" y="118.33" type="line"/>
      <point x="182.69" y="133.18"/>
      <point x="239.12" y="165.95"/>
      <point x="274.17" y="216" type="curve" smooth="yes"/>
      <point x="285.37" y="232"/>
      <point x="293.95" y="249.9"/>
      <point x="298.74" y="268.83" type="curve" smooth="yes"/>
      <point x="303.53" y="287.76"/>
      <point x="304.17" y="307.47"/>
      <point x="304.17" y="327" type="curve" smooth="yes"/>
      <point x="304.17" y="429" type="line"/>
      <point x="304.24" y="507" type="line" smooth="yes"/>
      <point x="304.26" y="528.29"/>
      <point x="305.33" y="550.1"/>
      <point x="313.76" y="569.65" type="curve" smooth="yes"/>
      <point x="321.99" y="588.74"/>
      <point x="336.8" y="604.08"/>
      <point x="352.28" y="618" type="curve"/>
      <point x="384.69" y="618" type="line"/>
      <point x="370.39" y="602.58"/>
      <point x="359.28" y="584.28"/>
      <point x="352.08" y="564.58" type="curve" smooth="yes"/>
      <point x="340.76" y="533.63"/>
      <point x="339.8" y="501.29"/>
      <point x="339.78" y="471.01" type="curve" smooth="yes"/>
      <point x="339.71" y="393.01" type="line"/>
      <point x="339.71" y="291" type="line" smooth="yes"/>
      <point x="339.71" y="272.58"/>
      <point x="338.45" y="255.02"/>
      <point x="332.95" y="239.65" type="curve" smooth="yes"/>
      <point x="327.34" y="223.96"/>
      <point x="317.65" y="209.21"/>
      <point x="306.23" y="195.16" type="curve" smooth="yes"/>
      <point x="290.72" y="176.07"/>
      <point x="273.26" y="158.19"/>
      <point x="255.3" y="140.33" type="curve"/>
      <point x="167.69" y="112.91"/>
      <point x="91.73" y="49.78"/>
      <point x="49" y="-31.5" type="curve"/>
      <point x="77.5" y="-31.5" type="line"/>
      <point x="133.38" y="19.52"/>
      <point x="209.36" y="47.89"/>
      <point x="285" y="46" type="curve" smooth="yes"/>
      <point x="344.04" y="44.52"/>
      <point x="402.5" y="24.92"/>
      <point x="450.5" y="-9.5" type="curve"/>
      <point x="700.5" y="128" type="line"/>
      <point x="717.27" y="162.02"/>
      <point x="731.01" y="197.54"/>
      <point x="741.5" y="234" type="curve" smooth="yes"/>
      <point x="760.71" y="300.74"/>
      <point x="769.39" y="370.66"/>
      <point x="765.5" y="440" type="curve" smooth="yes"/>
      <point x="761.45" y="512.1"/>
      <point x="743.58" y="585.31"/>
      <point x="701.5" y="644" type="curve" smooth="yes"/>
      <point x="677.17" y="677.93"/>
      <point x="644.1" y="705.93"/>
      <point x="605.5" y="721.82" type="curve" smooth="yes"/>
      <point x="566.9" y="737.71"/>
      <point x="524.25" y="740"/>
      <point x="482.5" y="740" type="curve" smooth="yes"/>
      <point x="209.5" y="740" type="line" smooth="yes"/>
      <point x="201.62" y="740"/>
      <point x="193.72" y="740.05"/>
      <point x="185.92" y="741.19" type="curve" smooth="yes"/>
      <point x="178.13" y="742.33"/>
      <point x="170.45" y="744.57"/>
      <point x="163.5" y="748.26" type="curve" smooth="yes"/>
      <point x="156.54" y="751.95"/>
      <point x="150.34" y="757.1"/>
      <point x="145.58" y="763.37" type="curve" smooth="yes"/>
      <point x="140.82" y="769.64"/>
      <point x="137.5" y="777.01"/>
      <point x="136" y="784.74" type="curve"/>
      <point x="114.5" y="785.49" type="line"/>
      <point x="107.94" y="760.67"/>
      <point x="104.21" y="735"/>
      <point x="104.8" y="709.34" type="curve" smooth="yes"/>
      <point x="105.09" y="696.51"/>
      <point x="106.53" y="683.65"/>
      <point x="109.93" y="671.27" type="curve" smooth="yes"/>
      <point x="113.34" y="658.9"/>
      <point x="118.8" y="646.9"/>
      <point x="127.25" y="637.24" type="curve" smooth="yes"/>
      <point x="133.32" y="630.29"/>
      <point x="141.03" y="624.71"/>
      <point x="149.71" y="621.57" type="curve" smooth="yes"/>
      <point x="158.39" y="618.43"/>
      <point x="167.78" y="617.99"/>
      <point x="177" y="617.99" type="curve" smooth="yes"/>
      <point x="316.3" y="617.99" type="line"/>
      <point x="237.2" y="566.49" type="line" smooth="yes"/>
      <point x="219.03" y="554.66"/>
      <point x="200.63" y="541.89"/>
      <point x="189.1" y="523.52" type="curve" smooth="yes"/>
      <point x="183.33" y="514.34"/>
      <point x="179.4" y="504.04"/>
      <point x="177.34" y="493.39" type="curve" smooth="yes"/>
      <point x="175.28" y="482.74"/>
      <point x="175.13" y="471.83"/>
      <point x="175.13" y="460.99" type="curve" smooth="yes"/>
      <point x="175.14" y="435.89" type="line"/>
      <point x="155.47" y="432.97"/>
      <point x="135.9" y="429.44"/>
      <point x="118" y="421.03" type="curve" smooth="yes"/>
      <point x="103.98" y="414.44"/>
      <point x="91.35" y="404.8"/>
      <point x="81.71" y="392.68" type="curve" smooth="yes"/>
      <point x="72.06" y="380.56"/>
      <point x="65.41" y="366.14"/>
      <point x="62" y="351.03" type="curve" smooth="yes"/>
      <point x="55.64" y="322.84"/>
      <point x="60.46" y="292.4"/>
      <point x="74.52" y="267.14" type="curve"/>
      <point x="93.65" y="267.14" type="line"/>
      <point x="92.35" y="274.29"/>
      <point x="92.56" y="281.72"/>
      <point x="94.31" y="288.78" type="curve" smooth="yes"/>
      <point x="97.25" y="300.68"/>
      <point x="104.85" y="311.46"/>
      <point x="115.39" y="317.72" type="curve" smooth="yes"/>
      <point x="120.66" y="320.85"/>
      <point x="126.56" y="322.85"/>
      <point x="132.6" y="323.88" type="curve" smooth="yes"/>
      <point x="138.64" y="324.91"/>
      <point x="144.8" y="324.98"/>
      <point x="150.93" y="324.98" type="curve" smooth="yes"/>
      <point x="159.01" y="324.98"/>
      <point x="167.09" y="324.98"/>
      <point x="175.18" y="324.98" type="curve"/>
      <point x="175.18" y="324.09"/>
      <point x="175.18" y="323.2"/>
      <point x="175.18" y="322.31" type="curve" smooth="yes"/>
      <point x="175.18" y="295.94"/>
      <point x="175.79" y="269.48"/>
      <point x="172.7" y="243.3" type="curve" smooth="yes"/>
      <point x="169.62" y="217.12"/>
      <point x="161.84" y="190.87"/>
      <point x="145.76" y="169.98" type="curve" smooth="yes"/>
      <point x="137.15" y="158.8"/>
      <point x="126.34" y="149.31"/>
    </contour>
    <contour>
      <point x="448.71" y="144.11" type="curve"/>
      <point x="448.71" y="274.74" type="line"/>
      <point x="630.7" y="366.99" type="line"/>
      <point x="630.46" y="325.63"/>
      <point x="626.35" y="284.28"/>
      <point x="619.5" y="243.48" type="curve" smooth="yes"/>
      <point x="610.28" y="188.58"/>
      <point x="595.23" y="134.65"/>
      <point x="574.5" y="82.98" type="curve"/>
      <point x="537.31" y="111.71"/>
      <point x="494.17" y="132.31"/>
    </contour>
    <contour>
      <point x="448.71" y="617.96" type="curve"/>
      <point x="471.38" y="617.75"/>
      <point x="494.23" y="616.26"/>
      <point x="515.59" y="608.82" type="curve" smooth="yes"/>
      <point x="538.9" y="600.7"/>
      <point x="559.77" y="586.07"/>
      <point x="576" y="567.48" type="curve" smooth="yes"/>
      <point x="593.23" y="547.75"/>
      <point x="605.42" y="524"/>
      <point x="613.67" y="499.1" type="curve"/>
      <point x="448.71" y="415.73" type="line"/>
      <point x="448.71" y="483.14"/>
      <point x="448.71" y="550.55"/>
    </contour>
    <contour>
      <point x="420.05" y="150.34" type="curve"/>
      <point x="382.29" y="156.94"/>
      <point x="343.5" y="157.58"/>
      <point x="305.64" y="151.89" type="curve"/>
      <point x="313.29" y="160.15"/>
      <point x="320.77" y="168.65"/>
      <point x="327.96" y="177.49" type="curve" smooth="yes"/>
      <point x="340.46" y="192.88"/>
      <point x="352.15" y="210.18"/>
      <point x="359.31" y="230.21" type="curve" smooth="yes"/>
      <point x="366.59" y="250.56"/>
      <point x="367.71" y="271.48"/>
      <point x="367.71" y="290.99" type="curve" smooth="yes"/>
      <point x="367.71" y="392.98" type="line"/>
      <point x="367.78" y="470.98" type="line" smooth="yes"/>
      <point x="367.8" y="500.71"/>
      <point x="369.09" y="529.54"/>
      <point x="378.38" y="554.96" type="curve" smooth="yes"/>
      <point x="386.65" y="577.58"/>
      <point x="401.24" y="597.94"/>
      <point x="420.05" y="612.53" type="curve"/>
      <point x="420.05" y="458.47"/>
      <point x="420.05" y="304.4"/>
    </contour>
    <contour>
      <point x="448.71" y="306.89" type="line"/>
      <point x="448.71" y="383.63" type="line"/>
      <point x="621.37" y="470.89" type="line"/>
      <point x="625.77" y="450.89"/>
      <point x="628.22" y="430.45"/>
      <point x="629.5" y="410" type="curve" smooth="yes"/>
      <point x="629.73" y="406.28"/>
      <point x="629.93" y="402.56"/>
      <point x="630.1" y="398.84" type="curve"/>
    </contour>
  </outline>
</glyph>
<glyph name="F" format="2">
  <advance width="679"/>
  <unicode hex="0046"/>
  <note>
F
</note>
  <outline>
    <contour>
      <point x="62.17" y="384.25" type="curve" smooth="yes"/>
      <point x="60.68" y="376.72"/>
      <point x="59.96" y="369.04"/>
      <point x="59.96" y="361.36" type="curve" smooth="yes"/>
      <point x="59.96" y="340.86"/>
      <point x="65.1" y="320.33"/>
      <point x="74.69" y="302.18" type="curve"/>
      <point x="93.82" y="302.18" type="line"/>
      <point x="92.24" y="310.68"/>
      <point x="92.42" y="319.51"/>
      <point x="94.48" y="327.9" type="curve" smooth="yes"/>
      <point x="97.44" y="340.01"/>
      <point x="104.65" y="351.25"/>
      <point x="115.14" y="357.98" type="curve" smooth="yes"/>
      <point x="120.39" y="361.34"/>
      <point x="126.34" y="363.54"/>
      <point x="132.47" y="364.69" type="curve" smooth="yes"/>
      <point x="138.6" y="365.83"/>
      <point x="144.87" y="365.91"/>
      <point x="151.1" y="365.91" type="curve" smooth="yes"/>
      <point x="166.62" y="365.91"/>
      <point x="182.15" y="365.91"/>
      <point x="197.67" y="365.91" type="curve"/>
      <point x="197.67" y="342.15"/>
      <point x="197.67" y="318.4"/>
      <point x="197.67" y="294.64" type="curve" smooth="yes"/>
      <point x="197.67" y="274.89"/>
      <point x="198.06" y="255.11"/>
      <point x="198.06" y="235.35" type="curve" smooth="yes"/>
      <point x="198.06" y="214.89"/>
      <point x="197.64" y="194.45"/>
      <point x="195.94" y="174.08" type="curve" smooth="yes"/>
      <point x="192.91" y="137.7"/>
      <point x="183.84" y="100.74"/>
      <point x="163.26" y="70.85" type="curve"/>
      <point x="137.38" y="67.59"/>
      <point x="112.06" y="59.04"/>
      <point x="91.66" y="43" type="curve" smooth="yes"/>
      <point x="73.3" y="28.57"/>
      <point x="59.49" y="8.36"/>
      <point x="53.14" y="-14.11" type="curve" smooth="yes"/>
      <point x="46.78" y="-36.58"/>
      <point x="47.85" y="-61"/>
      <point x="55.66" y="-83" type="curve" smooth="yes"/>
      <point x="64.27" y="-107.26"/>
      <point x="80.95" y="-128.53"/>
      <point x="102.25" y="-142.98" type="curve" smooth="yes"/>
      <point x="123.55" y="-157.44"/>
      <point x="149.42" y="-165.05"/>
      <point x="175.16" y="-164.5" type="curve"/>
      <point x="175.16" y="-138.5" type="line"/>
      <point x="162.24" y="-136.37"/>
      <point x="150.07" y="-129.71"/>
      <point x="141.52" y="-119.8" type="curve" smooth="yes"/>
      <point x="137.24" y="-114.84"/>
      <point x="133.87" y="-109.09"/>
      <point x="131.83" y="-102.87" type="curve" smooth="yes"/>
      <point x="129.79" y="-96.65"/>
      <point x="129.08" y="-89.95"/>
      <point x="130.17" y="-83.5" type="curve" smooth="yes"/>
      <point x="130.87" y="-79.33"/>
      <point x="132.33" y="-75.28"/>
      <point x="134.56" y="-71.69" type="curve" smooth="yes"/>
      <point x="136.79" y="-68.1"/>
      <point x="139.8" y="-64.99"/>
      <point x="143.33" y="-62.67" type="curve" smooth="yes"/>
      <point x="146.86" y="-60.35"/>
      <point x="150.89" y="-58.83"/>
      <point x="155.04" y="-58.01" type="curve" smooth="yes"/>
      <point x="159.19" y="-57.19"/>
      <point x="163.44" y="-57.07"/>
      <point x="167.67" y="-57" type="curve" smooth="yes"/>
      <point x="226.67" y="-56" type="line" smooth="yes"/>
      <point x="234.4" y="-55.87"/>
      <point x="242.18" y="-55.58"/>
      <point x="249.74" y="-53.97" type="curve" smooth="yes"/>
      <point x="257.31" y="-52.36"/>
      <point x="264.59" y="-49.51"/>
      <point x="271.32" y="-45.71" type="curve" smooth="yes"/>
      <point x="284.79" y="-38.1"/>
      <point x="296.15" y="-27.33"/>
      <point x="307.67" y="-17" type="curve" smooth="yes"/>
      <point x="322.99" y="-3.27"/>
      <point x="338" y="10.82"/>
      <point x="352.67" y="25.25" type="curve" smooth="yes"/>
      <point x="413.45" y="85.03"/>
      <point x="468.46" y="150.69"/>
      <point x="516.67" y="221" type="curve"/>
      <point x="516.67" y="363.6" type="line"/>
      <point x="602.99" y="363.6" type="line"/>
      <point x="716.64" y="480.6" type="line"/>
      <point x="516.67" y="480.6" type="line"/>
      <point x="516.67" y="663.67" type="line"/>
      <point x="538.25" y="648.74"/>
      <point x="561.01" y="635.52"/>
      <point x="584.67" y="624.17" type="curve" smooth="yes"/>
      <point x="609.62" y="612.2"/>
      <point x="635.58" y="602.33"/>
      <point x="662.17" y="594.67" type="curve"/>
      <point x="784.67" y="715.67" type="line"/>
      <point x="756.67" y="736.67" type="line"/>
      <point x="725.17" y="707.67" type="line"/>
      <point x="707.21" y="713.51"/>
      <point x="689.51" y="720.18"/>
      <point x="672.17" y="727.67" type="curve" smooth="yes"/>
      <point x="636.29" y="743.15"/>
      <point x="601.92" y="762.1"/>
      <point x="569.67" y="784.17" type="curve"/>
      <point x="375.67" y="613" type="line"/>
      <point x="375.67" y="107" type="line" smooth="yes"/>
      <point x="375.67" y="97.11"/>
      <point x="375.3" y="87.03"/>
      <point x="371.86" y="77.76" type="curve" smooth="yes"/>
      <point x="368.41" y="68.49"/>
      <point x="362.02" y="60.3"/>
      <point x="353.67" y="55" type="curve"/>
      <point x="326.27" y="57.71"/>
      <point x="298.96" y="61.29"/>
      <point x="271.67" y="65" type="curve" smooth="yes"/>
      <point x="246.17" y="68.47"/>
      <point x="220.54" y="72.13"/>
      <point x="194.86" y="72.45" type="curve"/>
      <point x="197.68" y="74.46"/>
      <point x="200.55" y="76.42"/>
      <point x="203.45" y="78.31" type="curve" smooth="yes"/>
      <point x="231.28" y="96.46"/>
      <point x="263.07" y="108.25"/>
      <point x="289.67" y="128.16" type="curve" smooth="yes"/>
      <point x="301.97" y="137.37"/>
      <point x="312.81" y="148.94"/>
      <point x="319.2" y="162.91" type="curve" smooth="yes"/>
      <point x="325.58" y="176.89"/>
      <point x="326.67" y="192.62"/>
      <point x="326.67" y="207.99" type="curve" smooth="yes"/>
      <point x="326.67" y="397.64" type="line"/>
      <point x="326.73" y="538.99" type="line" smooth="yes"/>
      <point x="326.75" y="571.55"/>
      <point x="329.71" y="604.76"/>
      <point x="343.16" y="634.4" type="curve" smooth="yes"/>
      <point x="351.6" y="653.01"/>
      <point x="363.92" y="669.8"/>
      <point x="378.91" y="683.68" type="curve" smooth="yes"/>
      <point x="393.9" y="697.56"/>
      <point x="411.1" y="708.83"/>
      <point x="428.33" y="719.82" type="curve" smooth="yes"/>
      <point x="445.48" y="730.76"/>
      <point x="462.7" y="741.59"/>
      <point x="479.66" y="752.82" type="curve"/>
      <point x="481.16" y="779.34" type="line"/>
      <point x="469.54" y="771.95"/>
      <point x="457" y="766.03"/>
      <point x="443.91" y="761.77" type="curve" smooth="yes"/>
      <point x="427.29" y="756.36"/>
      <point x="409.81" y="753.71"/>
      <point x="392.33" y="753.71" type="curve" smooth="yes"/>
      <point x="389.77" y="753.71"/>
      <point x="387.22" y="753.77"/>
      <point x="384.66" y="753.88" type="curve" smooth="yes"/>
      <point x="360.01" y="754.97"/>
      <point x="335.95" y="761.33"/>
      <point x="312.07" y="767.48" type="curve" smooth="yes"/>
      <point x="289.06" y="773.41"/>
      <point x="265.61" y="778.73"/>
      <point x="241.87" y="778.73" type="curve" smooth="yes"/>
      <point x="240.97" y="778.73"/>
      <point x="240.07" y="778.72"/>
      <point x="239.16" y="778.71" type="curve" smooth="yes"/>
      <point x="210.89" y="778.22"/>
      <point x="182.96" y="769.73"/>
      <point x="158.66" y="755.28" type="curve" smooth="yes"/>
      <point x="117.92" y="731.05"/>
      <point x="86.68" y="692.02"/>
      <point x="69.16" y="647.98" type="curve"/>
      <point x="92.66" y="647.98" type="line"/>
      <point x="96.73" y="659.31"/>
      <point x="103.85" y="669.51"/>
      <point x="113.03" y="677.3" type="curve" smooth="yes"/>
      <point x="122.21" y="685.08"/>
      <point x="133.41" y="690.39"/>
      <point x="145.16" y="692.96" type="curve" smooth="yes"/>
      <point x="151.2" y="694.28"/>
      <point x="157.31" y="694.86"/>
      <point x="163.44" y="694.86" type="curve" smooth="yes"/>
      <point x="180.38" y="694.86"/>
      <point x="197.45" y="690.43"/>
      <point x="213.64" y="684.93" type="curve" smooth="yes"/>
      <point x="235.69" y="677.44"/>
      <point x="257.54" y="668.57"/>
      <point x="280.66" y="665.79" type="curve" smooth="yes"/>
      <point x="285.77" y="665.17"/>
      <point x="290.91" y="664.87"/>
      <point x="296.05" y="664.87" type="curve" smooth="yes"/>
      <point x="309.19" y="664.87"/>
      <point x="322.33" y="666.83"/>
      <point x="335.01" y="670.44" type="curve"/>
      <point x="308.14" y="649.28"/>
      <point x="282.34" y="626.75"/>
      <point x="257.75" y="602.98" type="curve" smooth="yes"/>
      <point x="243.01" y="588.73"/>
      <point x="226.99" y="575.59"/>
      <point x="214.56" y="559.3" type="curve" smooth="yes"/>
      <point x="208.34" y="551.15"/>
      <point x="203.41" y="541.96"/>
      <point x="200.69" y="532.08" type="curve" smooth="yes"/>
      <point x="197.97" y="522.2"/>
      <point x="197.62" y="511.84"/>
      <point x="197.63" y="501.59" type="curve" smooth="yes"/>
      <point x="197.64" y="476.81" type="line"/>
      <point x="197.32" y="476.76"/>
      <point x="196.99" y="476.7"/>
      <point x="196.67" y="476.65" type="curve" smooth="yes"/>
      <point x="170.01" y="472.25"/>
      <point x="142.48" y="469.54"/>
      <point x="118.17" y="457.75" type="curve" smooth="yes"/>
      <point x="103.79" y="450.77"/>
      <point x="90.93" y="440.54"/>
      <point x="81.3" y="427.79" type="curve" smooth="yes"/>
      <point x="71.67" y="415.03"/>
      <point x="65.25" y="399.94"/>
    </contour>
  </outline>
</glyph>
<glyph name="G" format="2">
  <advance width="807"/>
  <unicode hex="0047"/>
  <note>
G
</note>
  <outline>
    <contour>
      <point x="263.39" y="224.32" type="curve" smooth="yes"/>
      <point x="259.5" y="217.87"/>
      <point x="254.93" y="211.82"/>
      <point x="249.8" y="206.3" type="curve"/>
      <point x="242.28" y="230.9"/>
      <point x="236.75" y="256.17"/>
      <point x="232.36" y="281.52" type="curve" smooth="yes"/>
      <point x="224.21" y="328.58"/>
      <point x="219.28" y="376.24"/>
      <point x="218.56" y="423.99" type="curve" smooth="yes"/>
      <point x="217.86" y="470.19"/>
      <point x="221.95" y="517.42"/>
      <point x="240.24" y="559.85" type="curve" smooth="yes"/>
      <point x="250.49" y="583.64"/>
      <point x="265.7" y="605.23"/>
      <point x="284.48" y="623" type="curve"/>
      <point x="284.48" y="528.11"/>
      <point x="284.48" y="433.21"/>
      <point x="284.48" y="338.32" type="curve" smooth="yes"/>
      <point x="284.48" y="318.74"/>
      <point x="284.5" y="299.08"/>
      <point x="281.79" y="279.69" type="curve" smooth="yes"/>
      <point x="279.08" y="260.3"/>
      <point x="273.47" y="241.11"/>
    </contour>
    <contour>
      <point x="648.06" y="201.5" type="curve" smooth="yes"/>
      <point x="647.13" y="159.01"/>
      <point x="633.14" y="116.65"/>
      <point x="607.15" y="83.03" type="curve" smooth="yes"/>
      <point x="581.17" y="49.41"/>
      <point x="543.16" y="25.14"/>
      <point x="501.56" y="16.49" type="curve" smooth="yes"/>
      <point x="499.55" y="16.07"/>
      <point x="497.53" y="15.69"/>
      <point x="495.51" y="15.35" type="curve"/>
      <point x="495.51" y="56.14"/>
      <point x="495.51" y="96.93"/>
      <point x="495.51" y="137.72" type="curve"/>
      <point x="647.94" y="214.67" type="line"/>
      <point x="648.12" y="210.28"/>
      <point x="648.16" y="205.89"/>
    </contour>
    <contour>
      <point x="495.51" y="169.82" type="line"/>
      <point x="495.51" y="242.68" type="line"/>
      <point x="623.63" y="307.36" type="line"/>
      <point x="633.51" y="287.71"/>
      <point x="640.62" y="266.67"/>
      <point x="644.55" y="245.07" type="curve"/>
    </contour>
    <contour>
      <point x="609.19" y="332.18" type="curve"/>
      <point x="495.51" y="274.78" type="line"/>
      <point x="495.51" y="323.95"/>
      <point x="495.51" y="373.12"/>
      <point x="495.51" y="422.3" type="curve"/>
      <point x="534.46" y="407.43"/>
      <point x="569.55" y="382.42"/>
      <point x="595.93" y="350.13" type="curve" smooth="yes"/>
      <point x="600.64" y="344.37"/>
      <point x="605.06" y="338.38"/>
    </contour>
    <contour>
      <point x="466.83" y="12.86" type="curve"/>
      <point x="431.68" y="12.72"/>
      <point x="396.42" y="22.79"/>
      <point x="366.26" y="41.04" type="curve" smooth="yes"/>
      <point x="326.11" y="65.34"/>
      <point x="295.15" y="103.06"/>
      <point x="274.05" y="144.99" type="curve" smooth="yes"/>
      <point x="271.58" y="149.89"/>
      <point x="269.24" y="154.85"/>
      <point x="267.01" y="159.85" type="curve"/>
      <point x="276.7" y="162.42"/>
      <point x="286.23" y="165.56"/>
      <point x="295.54" y="169.26" type="curve" smooth="yes"/>
      <point x="323.75" y="180.49"/>
      <point x="350.12" y="196.97"/>
      <point x="371.04" y="218.98" type="curve" smooth="yes"/>
      <point x="386.54" y="235.29"/>
      <point x="398.76" y="254.84"/>
      <point x="405.63" y="276.26" type="curve" smooth="yes"/>
      <point x="412.51" y="297.68"/>
      <point x="413.46" y="320.49"/>
      <point x="413.46" y="342.98" type="curve" smooth="yes"/>
      <point x="413.46" y="359.97" type="line"/>
      <point x="466.83" y="412.8" type="line"/>
      <point x="466.83" y="279.49"/>
      <point x="466.83" y="146.18"/>
    </contour>
    <contour>
      <point x="413.48" y="480.64" type="line"/>
      <point x="413.53" y="678.93" type="line"/>
      <point x="415.92" y="679.29"/>
      <point x="418.32" y="679.64"/>
      <point x="420.72" y="679.97" type="curve" smooth="yes"/>
      <point x="421.26" y="680.04"/>
      <point x="421.81" y="680.12"/>
      <point x="422.36" y="680.19" type="curve"/>
      <point x="448.08" y="661.53"/>
      <point x="474.68" y="644.1"/>
      <point x="502.06" y="627.97" type="curve" smooth="yes"/>
      <point x="532.08" y="610.29"/>
      <point x="563.02" y="594.17"/>
      <point x="594.72" y="579.72" type="curve"/>
      <point x="413.48" y="400.3" type="line"/>
    </contour>
    <contour>
      <point x="583.51" y="528.29" type="curve"/>
      <point x="749.58" y="692.69" type="line"/>
      <point x="729.42" y="713.06" type="line"/>
      <point x="696.48" y="680.45" type="line"/>
      <point x="671.16" y="689.46"/>
      <point x="646.45" y="700.16"/>
      <point x="622.56" y="712.47" type="curve" smooth="yes"/>
      <point x="586.62" y="730.99"/>
      <point x="552.56" y="753.14"/>
      <point x="521.06" y="778.47" type="curve"/>
      <point x="423.32" y="700.6" type="line"/>
      <point x="327.36" y="689.74"/>
      <point x="235.76" y="642.08"/>
      <point x="172.56" y="568.97" type="curve" smooth="yes"/>
      <point x="117.1" y="504.82"/>
      <point x="83.64" y="421.71"/>
      <point x="80.56" y="336.97" type="curve" smooth="yes"/>
      <point x="77.86" y="262.76"/>
      <point x="98.61" y="187.67"/>
      <point x="140.21" y="126.16" type="curve" smooth="yes"/>
      <point x="181.81" y="64.65"/>
      <point x="244.12" y="17.45"/>
      <point x="314.56" y="-6.03" type="curve" smooth="yes"/>
      <point x="370.78" y="-24.77"/>
      <point x="431.73" y="-28.67"/>
      <point x="490.1" y="-18.39" type="curve" smooth="yes"/>
      <point x="548.47" y="-8.12"/>
      <point x="604.4" y="16.08"/>
      <point x="651.56" y="51.97" type="curve" smooth="yes"/>
      <point x="703.51" y="91.51"/>
      <point x="744.85" y="146.07"/>
      <point x="764.06" y="208.47" type="curve" smooth="yes"/>
      <point x="785.11" y="276.83"/>
      <point x="777.68" y="354.1"/>
      <point x="741.05" y="415.53" type="curve" smooth="yes"/>
      <point x="707.02" y="472.61"/>
      <point x="648.42" y="514.41"/>
    </contour>
  </outline>
</glyph>
<glyph name="H" format="2">
  <advance width="780"/>
  <unicode hex="0048"/>
  <note>
H
</note>
  <outline>
    <contour>
      <point x="343.17" y="748.33" type="line"/>
    </contour>
    <contour>
      <point x="259.5" y="588.5" type="line"/>
    </contour>
    <contour>
      <point x="52.35" y="626.32" type="curve"/>
      <point x="71.52" y="616.75" type="line"/>
      <point x="78.07" y="627.6"/>
      <point x="87.23" y="636.86"/>
      <point x="97.96" y="643.59" type="curve" smooth="yes"/>
      <point x="108.7" y="650.33"/>
      <point x="120.95" y="654.49"/>
      <point x="133.5" y="656.33" type="curve" smooth="yes"/>
      <point x="142.43" y="657.63"/>
      <point x="151.49" y="657.8"/>
      <point x="160.5" y="657.33" type="curve" smooth="yes"/>
      <point x="179.5" y="656.33"/>
      <point x="198.25" y="652.65"/>
      <point x="217.17" y="650.62" type="curve" smooth="yes"/>
      <point x="236.09" y="648.59"/>
      <point x="255.34" y="648.33"/>
      <point x="274" y="651.99" type="curve" smooth="yes"/>
      <point x="300.57" y="657.21"/>
      <point x="325.07" y="670.54"/>
      <point x="345.94" y="687.79" type="curve" smooth="yes"/>
      <point x="366.82" y="705.03"/>
      <point x="384.79" y="725.46"/>
      <point x="403" y="745.5" type="curve" smooth="yes"/>
      <point x="406.9" y="749.79"/>
      <point x="410.79" y="754.08"/>
      <point x="414.69" y="758.37" type="curve"/>
      <point x="395.51" y="767.96" type="line"/>
      <point x="379.62" y="757.99"/>
      <point x="361.68" y="751.38"/>
      <point x="343.17" y="748.32" type="curve" smooth="yes"/>
      <point x="324.17" y="745.18"/>
      <point x="304.73" y="745.77"/>
      <point x="285.58" y="747.72" type="curve" smooth="yes"/>
      <point x="266.42" y="749.67"/>
      <point x="247.39" y="752.84"/>
      <point x="228.17" y="754.15" type="curve" smooth="yes"/>
      <point x="210.69" y="755.34"/>
      <point x="193.01" y="754.94"/>
      <point x="175.83" y="751.45" type="curve" smooth="yes"/>
      <point x="158.66" y="747.96"/>
      <point x="142.1" y="741.36"/>
      <point x="127.39" y="731.84" type="curve" smooth="yes"/>
      <point x="106.99" y="718.64"/>
      <point x="90.39" y="700.12"/>
      <point x="77.39" y="679.59" type="curve" smooth="yes"/>
      <point x="66.87" y="662.97"/>
      <point x="58.52" y="645"/>
    </contour>
    <contour>
      <point x="158.5" y="143.29" type="curve"/>
      <point x="158.5" y="118.73" type="line"/>
      <point x="197.68" y="122.28"/>
      <point x="236.39" y="134.23"/>
      <point x="269.5" y="155.48" type="curve" smooth="yes"/>
      <point x="293.92" y="171.16"/>
      <point x="315.03" y="192.7"/>
      <point x="327.42" y="218.94" type="curve" smooth="yes"/>
      <point x="333.62" y="232.06"/>
      <point x="337.61" y="246.18"/>
      <point x="339.69" y="260.54" type="curve" smooth="yes"/>
      <point x="341.77" y="274.9"/>
      <point x="341.91" y="289.47"/>
      <point x="341.91" y="303.98" type="curve" smooth="yes"/>
      <point x="341.91" y="448.98" type="line"/>
      <point x="341.98" y="526.98" type="line" smooth="yes"/>
      <point x="342" y="555.76"/>
      <point x="342.25" y="585.06"/>
      <point x="351.09" y="612.45" type="curve" smooth="yes"/>
      <point x="355.51" y="626.15"/>
      <point x="362" y="639.16"/>
      <point x="370.2" y="650.98" type="curve" smooth="yes"/>
      <point x="375.46" y="658.56"/>
      <point x="381.4" y="665.62"/>
      <point x="387.62" y="672.44" type="curve"/>
      <point x="387.62" y="483.76"/>
      <point x="387.62" y="295.08"/>
      <point x="387.62" y="106.4" type="curve"/>
      <point x="328.31" y="126.61"/>
      <point x="262.15" y="126.86"/>
      <point x="203" y="105.98" type="curve" smooth="yes"/>
      <point x="134.85" y="81.92"/>
      <point x="76.86" y="30.35"/>
      <point x="45" y="-34.52" type="curve"/>
      <point x="75.5" y="-34.52" type="line"/>
      <point x="114.22" y="6.45"/>
      <point x="171.18" y="29.5"/>
      <point x="227.5" y="26.98" type="curve" smooth="yes"/>
      <point x="264.97" y="25.3"/>
      <point x="301.88" y="12.65"/>
      <point x="332.5" y="-9.02" type="curve"/>
      <point x="432.17" y="86.65" type="line"/>
      <point x="426.97" y="89.55"/>
      <point x="421.67" y="92.26"/>
      <point x="416.29" y="94.8" type="curve"/>
      <point x="416.29" y="177.53"/>
      <point x="416.29" y="260.25"/>
      <point x="416.29" y="342.98" type="curve"/>
      <point x="553.22" y="342.98" type="line"/>
      <point x="553.01" y="121.02" type="line"/>
      <point x="501.63" y="81.02" type="line"/>
      <point x="512.96" y="66.31" type="line"/>
      <point x="537.29" y="85.02" type="line"/>
      <point x="634.2" y="-3.23" type="line"/>
      <point x="766.5" y="108.97" type="line"/>
      <point x="752.12" y="123.35" type="line"/>
      <point x="721" y="96.97" type="line"/>
      <point x="692.5" y="128.78" type="line"/>
      <point x="692.5" y="670.61" type="line"/>
      <point x="730.25" y="701.22" type="line"/>
      <point x="712.61" y="722.97" type="line"/>
      <point x="683.17" y="699.09" type="line"/>
      <point x="607.5" y="760.96" type="line"/>
      <point x="491.58" y="666.88" type="line"/>
      <point x="492.25" y="639.21" type="line"/>
      <point x="526.5" y="665.46" type="line"/>
      <point x="553.49" y="639.96" type="line"/>
      <point x="553.32" y="459.96" type="line"/>
      <point x="416.28" y="459.96" type="line"/>
      <point x="416.28" y="540.79"/>
      <point x="416.28" y="621.63"/>
      <point x="416.28" y="702.46" type="curve"/>
      <point x="387.62" y="702.46" type="line"/>
      <point x="362" y="673.46" type="line" smooth="yes"/>
      <point x="347.3" y="656.83"/>
      <point x="331.68" y="640.92"/>
      <point x="313.98" y="627.53" type="curve" smooth="yes"/>
      <point x="296.28" y="614.13"/>
      <point x="277.05" y="602.81"/>
      <point x="259.84" y="588.8" type="curve" smooth="yes"/>
      <point x="243.97" y="575.88"/>
      <point x="230.09" y="560.02"/>
      <point x="222.1" y="541.18" type="curve" smooth="yes"/>
      <point x="214.11" y="522.34"/>
      <point x="212.87" y="501.43"/>
      <point x="212.88" y="480.96" type="curve" smooth="yes"/>
      <point x="212.89" y="455.86" type="line"/>
      <point x="193.22" y="452.94"/>
      <point x="173.65" y="449.41"/>
      <point x="155.75" y="441" type="curve" smooth="yes"/>
      <point x="141.73" y="434.41"/>
      <point x="129.1" y="424.77"/>
      <point x="119.46" y="412.65" type="curve" smooth="yes"/>
      <point x="109.81" y="400.53"/>
      <point x="103.16" y="386.11"/>
      <point x="99.75" y="371" type="curve" smooth="yes"/>
      <point x="93.39" y="342.81"/>
      <point x="98.21" y="312.37"/>
      <point x="112.27" y="287.11" type="curve"/>
      <point x="131.39" y="287.11" type="line"/>
      <point x="130.09" y="294.26"/>
      <point x="130.3" y="301.69"/>
      <point x="132.05" y="308.75" type="curve" smooth="yes"/>
      <point x="134.99" y="320.65"/>
      <point x="142.59" y="331.43"/>
      <point x="153.13" y="337.69" type="curve" smooth="yes"/>
      <point x="158.4" y="340.82"/>
      <point x="164.3" y="342.82"/>
      <point x="170.34" y="343.85" type="curve" smooth="yes"/>
      <point x="176.38" y="344.88"/>
      <point x="182.54" y="344.95"/>
      <point x="188.67" y="344.95" type="curve" smooth="yes"/>
      <point x="212.92" y="344.95" type="line"/>
      <point x="212.92" y="344.06"/>
      <point x="212.92" y="343.17"/>
      <point x="212.92" y="342.28" type="curve" smooth="yes"/>
      <point x="212.92" y="312.95"/>
      <point x="214.61" y="283.63"/>
      <point x="213.89" y="254.32" type="curve" smooth="yes"/>
      <point x="213.53" y="239.66"/>
      <point x="212.25" y="224.96"/>
      <point x="208.71" y="210.73" type="curve" smooth="yes"/>
      <point x="205.17" y="196.5"/>
      <point x="199.27" y="182.77"/>
      <point x="190.59" y="170.96" type="curve" smooth="yes"/>
      <point x="182.15" y="159.48"/>
      <point x="171.12" y="149.9"/>
    </contour>
  </outline>
</glyph>
<glyph name="J" format="2">
  <advance width="621"/>
  <unicode hex="004A"/>
  <note>
J
</note>
  <outline>
    <contour>
      <point x="162.68" y="271.66" type="curve"/>
      <point x="181.81" y="271.66" type="line"/>
      <point x="180.51" y="278.81"/>
      <point x="180.72" y="286.24"/>
      <point x="182.47" y="293.3" type="curve" smooth="yes"/>
      <point x="185.41" y="305.2"/>
      <point x="193.01" y="315.98"/>
      <point x="203.55" y="322.24" type="curve" smooth="yes"/>
      <point x="208.82" y="325.37"/>
      <point x="214.72" y="327.37"/>
      <point x="220.76" y="328.4" type="curve" smooth="yes"/>
      <point x="226.8" y="329.43"/>
      <point x="232.96" y="329.5"/>
      <point x="239.09" y="329.5" type="curve" smooth="yes"/>
      <point x="247.37" y="329.5"/>
      <point x="255.64" y="329.5"/>
      <point x="263.92" y="329.5" type="curve"/>
      <point x="263.92" y="50" type="line" smooth="yes"/>
      <point x="263.92" y="41.41"/>
      <point x="263.51" y="32.69"/>
      <point x="260.67" y="24.58" type="curve" smooth="yes"/>
      <point x="257.84" y="16.47"/>
      <point x="252.87" y="9.19"/>
      <point x="246.67" y="3.25" type="curve" smooth="yes"/>
      <point x="238.1" y="-4.96"/>
      <point x="227.36" y="-10.82"/>
      <point x="215.92" y="-14" type="curve"/>
      <point x="215.92" y="-47" type="line"/>
      <point x="265.13" y="-35.81"/>
      <point x="313.66" y="-16.03"/>
      <point x="350.92" y="18" type="curve" smooth="yes"/>
      <point x="366.56" y="32.28"/>
      <point x="379.63" y="49.67"/>
      <point x="387.18" y="69.46" type="curve" smooth="yes"/>
      <point x="394.73" y="89.25"/>
      <point x="395.92" y="110.81"/>
      <point x="395.92" y="132" type="curve" smooth="yes"/>
      <point x="395.92" y="563" type="line" smooth="yes"/>
      <point x="395.92" y="589.1"/>
      <point x="397.96" y="615.74"/>
      <point x="408.41" y="639.66" type="curve" smooth="yes"/>
      <point x="418.86" y="663.58"/>
      <point x="436.05" y="683.97"/>
      <point x="454.92" y="702" type="curve" smooth="yes"/>
      <point x="478.57" y="724.6"/>
      <point x="504.51" y="744.69"/>
      <point x="530.92" y="764" type="curve"/>
      <point x="508.42" y="784.5" type="line"/>
      <point x="480.78" y="763.17"/>
      <point x="446.29" y="751.3"/>
      <point x="411.42" y="749.5" type="curve" smooth="yes"/>
      <point x="380.45" y="747.9"/>
      <point x="349.61" y="753.92"/>
      <point x="319.42" y="761" type="curve" smooth="yes"/>
      <point x="289.22" y="768.08"/>
      <point x="258.92" y="775.9"/>
      <point x="227.92" y="777" type="curve" smooth="yes"/>
      <point x="193.22" y="778.23"/>
      <point x="157.6" y="770.25"/>
      <point x="129.11" y="750.42" type="curve" smooth="yes"/>
      <point x="100.62" y="730.58"/>
      <point x="80.23" y="699.23"/>
      <point x="74.42" y="665" type="curve" smooth="yes"/>
      <point x="69.43" y="635.58"/>
      <point x="75.11" y="604.46"/>
      <point x="90.22" y="578.74" type="curve" smooth="yes"/>
      <point x="105.34" y="553.01"/>
      <point x="129.77" y="532.9"/>
      <point x="157.92" y="523" type="curve"/>
      <point x="161.92" y="531.33" type="line"/>
      <point x="150.38" y="535.15"/>
      <point x="140.33" y="543.31"/>
      <point x="134.19" y="553.81" type="curve" smooth="yes"/>
      <point x="128.05" y="564.31"/>
      <point x="125.89" y="577.01"/>
      <point x="127.92" y="589" type="curve" smooth="yes"/>
      <point x="130.64" y="605.06"/>
      <point x="140.75" y="619.37"/>
      <point x="154.03" y="628.81" type="curve" smooth="yes"/>
      <point x="167.31" y="638.25"/>
      <point x="183.41" y="643.1"/>
      <point x="199.59" y="645" type="curve" smooth="yes"/>
      <point x="237.56" y="649.47"/>
      <point x="275.72" y="640.22"/>
      <point x="313.92" y="638.67" type="curve" smooth="yes"/>
      <point x="337.11" y="637.73"/>
      <point x="360.43" y="639.1"/>
      <point x="383.25" y="643.34" type="curve"/>
      <point x="348.86" y="618.27"/>
      <point x="313.71" y="592.85"/>
      <point x="287.92" y="559.01" type="curve" smooth="yes"/>
      <point x="279.49" y="547.95"/>
      <point x="272.53" y="535.64"/>
      <point x="268.54" y="522.32" type="curve" smooth="yes"/>
      <point x="264.55" y="508.99"/>
      <point x="263.92" y="494.92"/>
      <point x="263.92" y="481.01" type="curve" smooth="yes"/>
      <point x="263.92" y="440.5" type="line"/>
      <point x="244.04" y="437.56"/>
      <point x="224.25" y="434.05"/>
      <point x="206.16" y="425.55" type="curve" smooth="yes"/>
      <point x="192.14" y="418.96"/>
      <point x="179.51" y="409.32"/>
      <point x="169.87" y="397.2" type="curve" smooth="yes"/>
      <point x="160.22" y="385.08"/>
      <point x="153.57" y="370.66"/>
      <point x="150.16" y="355.55" type="curve" smooth="yes"/>
      <point x="143.8" y="327.36"/>
      <point x="148.62" y="296.92"/>
    </contour>
    <contour>
      <point x="600.41" y="765.49" type="curve"/>
      <point x="612.91" y="753" type="line"/>
      <point x="595.85" y="724.12"/>
      <point x="584.13" y="692.17"/>
      <point x="577.83" y="659.22" type="curve" smooth="yes"/>
      <point x="571.53" y="626.27"/>
      <point x="570.91" y="592.54"/>
      <point x="570.91" y="559" type="curve" smooth="yes"/>
      <point x="570.91" y="263" type="line" smooth="yes"/>
      <point x="570.91" y="205.81"/>
      <point x="568.43" y="147.43"/>
      <point x="547.74" y="94.12" type="curve" smooth="yes"/>
      <point x="527.05" y="40.81"/>
      <point x="489.33" y="-5.53"/>
      <point x="441.91" y="-37.5" type="curve" smooth="yes"/>
      <point x="401.83" y="-64.52"/>
      <point x="355.57" y="-81.97"/>
      <point x="307.91" y="-90" type="curve" smooth="yes"/>
      <point x="249.72" y="-99.8"/>
      <point x="187.67" y="-95.98"/>
      <point x="135.01" y="-69.34" type="curve" smooth="yes"/>
      <point x="108.68" y="-56.02"/>
      <point x="85.06" y="-36.71"/>
      <point x="68.82" y="-12.08" type="curve" smooth="yes"/>
      <point x="52.58" y="12.55"/>
      <point x="44.07" y="42.75"/>
      <point x="47.91" y="72" type="curve" smooth="yes"/>
      <point x="50.74" y="93.56"/>
      <point x="60.38" y="114.35"/>
      <point x="75.86" y="129.61" type="curve" smooth="yes"/>
      <point x="91.34" y="144.88"/>
      <point x="112.67" y="154.3"/>
      <point x="134.41" y="154.5" type="curve" smooth="yes"/>
      <point x="154.54" y="154.68"/>
      <point x="174.7" y="146.85"/>
      <point x="189.11" y="132.8" type="curve" smooth="yes"/>
      <point x="203.51" y="118.74"/>
      <point x="211.87" y="98.62"/>
      <point x="211.41" y="78.5" type="curve" smooth="yes"/>
      <point x="211.14" y="66.63"/>
      <point x="207.9" y="54.83"/>
      <point x="202.04" y="44.5" type="curve" smooth="yes"/>
      <point x="196.18" y="34.17"/>
      <point x="187.71" y="25.33"/>
      <point x="177.63" y="19.04" type="curve" smooth="yes"/>
      <point x="157.48" y="6.47"/>
      <point x="130.9" y="4.89"/>
      <point x="109.41" y="15" type="curve"/>
      <point x="127.49" y="-24.25"/>
      <point x="163.87" y="-54.37"/>
      <point x="205.58" y="-65.67" type="curve" smooth="yes"/>
      <point x="233.69" y="-73.29"/>
      <point x="263.79" y="-72.75"/>
      <point x="291.97" y="-65.42" type="curve" smooth="yes"/>
      <point x="320.16" y="-58.08"/>
      <point x="346.55" y="-44.16"/>
      <point x="368.91" y="-25.51" type="curve" smooth="yes"/>
      <point x="394.35" y="-4.29"/>
      <point x="414.46" y="23.44"/>
      <point x="425.87" y="54.54" type="curve" smooth="yes"/>
      <point x="437.28" y="85.65"/>
      <point x="438.91" y="119.36"/>
      <point x="438.91" y="152.49" type="curve" smooth="yes"/>
      <point x="438.91" y="476.99" type="line" smooth="yes"/>
      <point x="438.91" y="508.65"/>
      <point x="438.54" y="540.48"/>
      <point x="443.26" y="571.79" type="curve" smooth="yes"/>
      <point x="447.98" y="603.1"/>
      <point x="458.74" y="633.76"/>
      <point x="476.95" y="659.66" type="curve" smooth="yes"/>
      <point x="503.3" y="697.13"/>
      <point x="542.7" y="722.88"/>
      <point x="579.62" y="749.99" type="curve" smooth="yes"/>
      <point x="586.59" y="755.11"/>
      <point x="593.52" y="760.27"/>
    </contour>
  </outline>
</glyph>
<glyph name="K" format="2">
  <advance width="820"/>
  <unicode hex="004B"/>
  <note>
K
</note>
  <outline>
    <contour>
      <point x="94.31" y="395.18" type="curve" smooth="yes"/>
      <point x="88.82" y="366.66"/>
      <point x="92.99" y="336.56"/>
      <point x="104.69" y="310" type="curve"/>
      <point x="123.82" y="310" type="line"/>
      <point x="121.98" y="319.61"/>
      <point x="122.93" y="329.75"/>
      <point x="126.63" y="338.81" type="curve" smooth="yes"/>
      <point x="130.75" y="348.88"/>
      <point x="138.46" y="357.5"/>
      <point x="148.17" y="362.39" type="curve" smooth="yes"/>
      <point x="153.03" y="364.84"/>
      <point x="158.32" y="366.37"/>
      <point x="163.7" y="367.16" type="curve" smooth="yes"/>
      <point x="169.08" y="367.95"/>
      <point x="174.54" y="368"/>
      <point x="179.98" y="368" type="curve" smooth="yes"/>
      <point x="188.92" y="368"/>
      <point x="197.87" y="368"/>
      <point x="206.81" y="368" type="curve"/>
      <point x="206.81" y="340.22"/>
      <point x="206.81" y="312.43"/>
      <point x="206.81" y="284.65" type="curve" smooth="yes"/>
      <point x="206.81" y="265.04"/>
      <point x="206.68" y="245.29"/>
      <point x="202.82" y="226.06" type="curve" smooth="yes"/>
      <point x="198.96" y="206.84"/>
      <point x="191.2" y="188.19"/>
      <point x="178.8" y="173" type="curve" smooth="yes"/>
      <point x="169.58" y="161.7"/>
      <point x="157.91" y="152.39"/>
      <point x="144.8" y="146" type="curve"/>
      <point x="177.8" y="146" type="line"/>
      <point x="206.24" y="156.96"/>
      <point x="233.72" y="170.68"/>
      <point x="258.8" y="188" type="curve" smooth="yes"/>
      <point x="283.5" y="205.06"/>
      <point x="305.87" y="226.51"/>
      <point x="319.51" y="253.25" type="curve" smooth="yes"/>
      <point x="326.33" y="266.62"/>
      <point x="330.86" y="281.12"/>
      <point x="333.24" y="295.94" type="curve" smooth="yes"/>
      <point x="335.62" y="310.76"/>
      <point x="335.8" y="325.84"/>
      <point x="335.8" y="340.85" type="curve" smooth="yes"/>
      <point x="335.8" y="418" type="line"/>
      <point x="335.87" y="529" type="line" smooth="yes"/>
      <point x="335.89" y="565.2"/>
      <point x="338.73" y="601.95"/>
      <point x="351.88" y="635.67" type="curve" smooth="yes"/>
      <point x="363.88" y="666.45"/>
      <point x="381.62" y="694.98"/>
      <point x="403.57" y="719.67" type="curve" smooth="yes"/>
      <point x="413.06" y="730.34"/>
      <point x="423.44" y="740.22"/>
      <point x="434.61" y="749.12" type="curve" smooth="yes"/>
      <point x="436.42" y="750.53"/>
      <point x="438.23" y="751.94"/>
      <point x="440.05" y="753.34" type="curve"/>
      <point x="441.55" y="768.51" type="line"/>
      <point x="426.12" y="757.46"/>
      <point x="408.33" y="749.71"/>
      <point x="389.72" y="746.01" type="curve" smooth="yes"/>
      <point x="375.54" y="743.19"/>
      <point x="360.89" y="742.8"/>
      <point x="346.55" y="744.7" type="curve" smooth="yes"/>
      <point x="328.41" y="747.11"/>
      <point x="311.01" y="753.23"/>
      <point x="293.68" y="759.11" type="curve" smooth="yes"/>
      <point x="276.35" y="764.99"/>
      <point x="258.59" y="770.32"/>
      <point x="240.3" y="771.02" type="curve" smooth="yes"/>
      <point x="223.68" y="771.65"/>
      <point x="206.95" y="768.36"/>
      <point x="191.76" y="761.59" type="curve" smooth="yes"/>
      <point x="176.57" y="754.83"/>
      <point x="162.96" y="744.86"/>
      <point x="150.8" y="733.52" type="curve" smooth="yes"/>
      <point x="118.57" y="703.46"/>
      <point x="94.39" y="665.72"/>
      <point x="73.3" y="627.02" type="curve"/>
      <point x="96.8" y="627.02" type="line"/>
      <point x="99.62" y="641.56"/>
      <point x="109.35" y="654.49"/>
      <point x="122.3" y="661.69" type="curve" smooth="yes"/>
      <point x="134.18" y="668.29"/>
      <point x="148.24" y="670.17"/>
      <point x="161.8" y="669.19" type="curve" smooth="yes"/>
      <point x="183.98" y="667.59"/>
      <point x="205.08" y="659.38"/>
      <point x="226.74" y="654.35" type="curve" smooth="yes"/>
      <point x="248.4" y="649.32"/>
      <point x="271.19" y="647.76"/>
      <point x="292.8" y="653.02" type="curve" smooth="yes"/>
      <point x="302.58" y="655.4"/>
      <point x="311.93" y="659.06"/>
      <point x="320.9" y="663.58" type="curve"/>
      <point x="279.8" y="629.02" type="line" smooth="yes"/>
      <point x="266.72" y="618.02"/>
      <point x="253.74" y="606.73"/>
      <point x="242.98" y="593.45" type="curve" smooth="yes"/>
      <point x="232.22" y="580.17"/>
      <point x="223.73" y="565.05"/>
      <point x="218.06" y="548.92" type="curve" smooth="yes"/>
      <point x="210.16" y="526.49"/>
      <point x="207.77" y="502.74"/>
      <point x="207.06" y="478.85" type="curve"/>
      <point x="187.52" y="478.53"/>
      <point x="168.08" y="476.42"/>
      <point x="150.31" y="468.68" type="curve" smooth="yes"/>
      <point x="135.6" y="462.27"/>
      <point x="122.59" y="451.99"/>
      <point x="113.04" y="439.09" type="curve" smooth="yes"/>
      <point x="103.49" y="426.19"/>
      <point x="97.35" y="410.93"/>
    </contour>
    <contour>
      <point x="476.93" y="599.68" type="line"/>
      <point x="515.14" y="642.35" type="line"/>
      <point x="542.93" y="624.41"/>
      <point x="575.48" y="613.79"/>
      <point x="608.51" y="612.28" type="curve"/>
      <point x="404.46" y="375.46" type="line"/>
      <point x="408.05" y="546.22" type="line" smooth="yes"/>
      <point x="408.67" y="575.5"/>
      <point x="410.76" y="604.06"/>
      <point x="419.43" y="629.95" type="curve" smooth="yes"/>
      <point x="428.18" y="656.08"/>
      <point x="442.99" y="680.38"/>
      <point x="461.25" y="701.98" type="curve" smooth="yes"/>
      <point x="479.72" y="723.83"/>
      <point x="501.36" y="743.1"/>
      <point x="525.03" y="759.51" type="curve"/>
      <point x="517.05" y="771.01" type="line"/>
      <point x="509.07" y="782.51" type="line"/>
      <point x="483.53" y="764.81"/>
      <point x="460.04" y="743.93"/>
      <point x="439.85" y="720.04" type="curve" smooth="yes"/>
      <point x="419.76" y="696.27"/>
      <point x="402.97" y="669.02"/>
      <point x="392.86" y="638.83" type="curve" smooth="yes"/>
      <point x="382.67" y="608.4"/>
      <point x="380.68" y="576.9"/>
      <point x="380.04" y="546.8" type="curve" smooth="yes"/>
      <point x="375.04" y="309.3" type="line" smooth="yes"/>
      <point x="374.76" y="295.93"/>
      <point x="374.3" y="283.12"/>
      <point x="372.23" y="271.11" type="curve" smooth="yes"/>
      <point x="370.16" y="259.08"/>
      <point x="366.46" y="247.38"/>
      <point x="361.14" y="236.58" type="curve" smooth="yes"/>
      <point x="350.5" y="215"/>
      <point x="332.96" y="196.36"/>
      <point x="313.06" y="179.75" type="curve" smooth="yes"/>
      <point x="295.22" y="164.86"/>
      <point x="276.08" y="151.3"/>
      <point x="256.27" y="138.45" type="curve"/>
      <point x="204.43" y="117.46"/>
      <point x="157.9" y="82.68"/>
      <point x="122.78" y="39" type="curve" smooth="yes"/>
      <point x="107.48" y="19.98"/>
      <point x="94.22" y="-0.68"/>
      <point x="83.28" y="-22.5" type="curve"/>
      <point x="113.78" y="-22.5" type="line"/>
      <point x="127.1" y="-1.97"/>
      <point x="145.02" y="15.54"/>
      <point x="165.78" y="28.5" type="curve" smooth="yes"/>
      <point x="188.99" y="42.98"/>
      <point x="215.6" y="51.7"/>
      <point x="242.77" y="54.92" type="curve" smooth="yes"/>
      <point x="269.93" y="58.14"/>
      <point x="297.6" y="56.02"/>
      <point x="324.28" y="50" type="curve" smooth="yes"/>
      <point x="368.41" y="40.05"/>
      <point x="410.03" y="19.71"/>
      <point x="445.78" y="-8" type="curve"/>
      <point x="584.39" y="101.3" type="line"/>
      <point x="592.56" y="78.18"/>
      <point x="603.77" y="55.97"/>
      <point x="619.28" y="37" type="curve" smooth="yes"/>
      <point x="634.34" y="18.58"/>
      <point x="653.36" y="3.36"/>
      <point x="674.78" y="-7" type="curve"/>
      <point x="827.78" y="114.5" type="line"/>
      <point x="827.78" y="145" type="line"/>
      <point x="759.22" y="92" type="line"/>
      <point x="744.96" y="104.19"/>
      <point x="732.7" y="118.68"/>
      <point x="722.89" y="134.67" type="curve" smooth="yes"/>
      <point x="709.25" y="156.88"/>
      <point x="700.55" y="181.79"/>
      <point x="694" y="207.02" type="curve" smooth="yes"/>
      <point x="687.45" y="232.25"/>
      <point x="682.67" y="257.93"/>
      <point x="675.56" y="283.01" type="curve" smooth="yes"/>
      <point x="667.46" y="311.55"/>
      <point x="656.1" y="339.33"/>
      <point x="639.83" y="364.14" type="curve" smooth="yes"/>
      <point x="623.56" y="388.95"/>
      <point x="602.66" y="410.7"/>
      <point x="578.56" y="428.01" type="curve" smooth="yes"/>
      <point x="557.01" y="443.49"/>
      <point x="532.95" y="455.48"/>
      <point x="507.63" y="463.43" type="curve"/>
      <point x="637.41" y="613.33" type="line"/>
      <point x="656.53" y="615.64"/>
      <point x="675.25" y="621.17"/>
      <point x="692.3" y="630.09" type="curve" smooth="yes"/>
      <point x="718.15" y="643.61"/>
      <point x="739.9" y="665.05"/>
      <point x="753.12" y="691.05" type="curve" smooth="yes"/>
      <point x="766.34" y="717.05"/>
      <point x="770.9" y="747.38"/>
      <point x="765.8" y="776.09" type="curve"/>
      <point x="752.13" y="776.42" type="line"/>
      <point x="746.51" y="757.11"/>
      <point x="732.88" y="740.34"/>
      <point x="715.3" y="730.59" type="curve" smooth="yes"/>
      <point x="693.82" y="718.68"/>
      <point x="667.42" y="717.36"/>
      <point x="643.8" y="724.09" type="curve" smooth="yes"/>
      <point x="621.46" y="730.46"/>
      <point x="601.18" y="743.6"/>
      <point x="585.8" y="761.01" type="curve"/>
      <point x="462.55" y="614.06" type="line"/>
    </contour>
    <contour>
      <point x="330.99" y="158.22" type="curve" smooth="yes"/>
      <point x="330.99" y="158.24"/>
      <point x="331.01" y="158.25"/>
      <point x="331.02" y="158.26" type="curve" smooth="yes"/>
      <point x="352.49" y="176.18"/>
      <point x="373.08" y="197.45"/>
      <point x="386.27" y="224.21" type="curve" smooth="yes"/>
      <point x="392.86" y="237.58"/>
      <point x="397.34" y="251.85"/>
      <point x="399.84" y="266.37" type="curve" smooth="yes"/>
      <point x="402.34" y="280.91"/>
      <point x="402.76" y="295.14"/>
      <point x="403.05" y="308.71" type="curve" smooth="yes"/>
      <point x="403.88" y="348" type="line"/>
      <point x="407.73" y="348" type="line"/>
      <point x="420.54" y="362.8" type="line"/>
      <point x="441.27" y="358.24"/>
      <point x="461.05" y="349.38"/>
      <point x="478.31" y="337" type="curve" smooth="yes"/>
      <point x="503.38" y="319.01"/>
      <point x="522.76" y="293.77"/>
      <point x="536.22" y="266" type="curve" smooth="yes"/>
      <point x="549.68" y="238.23"/>
      <point x="557.45" y="208.09"/>
      <point x="564.31" y="178" type="curve" smooth="yes"/>
      <point x="568.84" y="158.16"/>
      <point x="573.09" y="138.22"/>
      <point x="578.82" y="118.72" type="curve"/>
      <point x="550.06" y="96" type="line"/>
      <point x="494.38" y="141.51"/>
      <point x="421.07" y="164.63"/>
      <point x="349.31" y="160" type="curve" smooth="yes"/>
      <point x="343.18" y="159.6"/>
      <point x="337.07" y="159.01"/>
    </contour>
  </outline>
</glyph>
<glyph name="L" format="2">
  <advance width="719"/>
  <unicode hex="004C"/>
  <note>
L
</note>
  <outline>
    <contour>
      <point x="59" y="374.26" type="curve" smooth="yes"/>
      <point x="53.51" y="345.76"/>
      <point x="57.68" y="315.66"/>
      <point x="69.38" y="289.1" type="curve"/>
      <point x="88.51" y="289.1" type="line"/>
      <point x="86.67" y="298.71"/>
      <point x="87.62" y="308.85"/>
      <point x="91.32" y="317.91" type="curve" smooth="yes"/>
      <point x="95.44" y="327.98"/>
      <point x="103.15" y="336.6"/>
      <point x="112.86" y="341.49" type="curve" smooth="yes"/>
      <point x="117.72" y="343.94"/>
      <point x="123.01" y="345.47"/>
      <point x="128.39" y="346.26" type="curve" smooth="yes"/>
      <point x="133.77" y="347.05"/>
      <point x="139.23" y="347.1"/>
      <point x="144.67" y="347.1" type="curve" smooth="yes"/>
      <point x="154.61" y="347.1"/>
      <point x="164.56" y="347.1"/>
      <point x="174.5" y="347.1" type="curve"/>
      <point x="174.5" y="326.28"/>
      <point x="174.5" y="305.47"/>
      <point x="174.5" y="284.65" type="curve" smooth="yes"/>
      <point x="174.5" y="259.88"/>
      <point x="175.25" y="235.08"/>
      <point x="173.88" y="210.34" type="curve" smooth="yes"/>
      <point x="172.51" y="185.61"/>
      <point x="168.15" y="160.51"/>
      <point x="156.16" y="138.83" type="curve" smooth="yes"/>
      <point x="146.14" y="120.73"/>
      <point x="130.87" y="105.5"/>
      <point x="112.49" y="96" type="curve"/>
      <point x="145.49" y="96" type="line"/>
      <point x="177.43" y="101.21"/>
      <point x="208.05" y="114.5"/>
      <point x="233.49" y="134.5" type="curve" smooth="yes"/>
      <point x="259.34" y="154.83"/>
      <point x="279.54" y="182.33"/>
      <point x="290.78" y="213.24" type="curve" smooth="yes"/>
      <point x="302.03" y="244.14"/>
      <point x="303.48" y="277.62"/>
      <point x="303.49" y="310.5" type="curve" smooth="yes"/>
      <point x="303.49" y="387.65" type="line"/>
      <point x="303.56" y="529" type="line" smooth="yes"/>
      <point x="303.58" y="565.1"/>
      <point x="306.7" y="601.85"/>
      <point x="320.99" y="635" type="curve" smooth="yes"/>
      <point x="327.19" y="649.38"/>
      <point x="336.32" y="662.45"/>
      <point x="347.8" y="673.09" type="curve" smooth="yes"/>
      <point x="352.85" y="677.77"/>
      <point x="358.2" y="682.13"/>
      <point x="363.5" y="686.53" type="curve" smooth="yes"/>
      <point x="372.5" y="692.43"/>
      <point x="381.15" y="698.87"/>
      <point x="389.49" y="705.67" type="curve" smooth="yes"/>
      <point x="406.96" y="719.92"/>
      <point x="423.12" y="735.73"/>
      <point x="437.99" y="752.67" type="curve"/>
      <point x="439.49" y="779.19" type="line"/>
      <point x="428.33" y="768.84"/>
      <point x="415.18" y="760.65"/>
      <point x="400.99" y="755.17" type="curve" smooth="yes"/>
      <point x="381.23" y="747.53"/>
      <point x="359.55" y="745.4"/>
      <point x="338.49" y="747.69" type="curve" smooth="yes"/>
      <point x="318.09" y="749.91"/>
      <point x="298.36" y="756.09"/>
      <point x="278.59" y="761.58" type="curve" smooth="yes"/>
      <point x="258.81" y="767.07"/>
      <point x="238.51" y="771.57"/>
      <point x="217.99" y="771" type="curve" smooth="yes"/>
      <point x="201.49" y="770.54"/>
      <point x="185.1" y="766.81"/>
      <point x="169.98" y="760.2" type="curve" smooth="yes"/>
      <point x="154.85" y="753.59"/>
      <point x="141.01" y="744.26"/>
      <point x="128.49" y="733.5" type="curve" smooth="yes"/>
      <point x="94.97" y="704.67"/>
      <point x="69.79" y="667.01"/>
      <point x="50.99" y="627" type="curve"/>
      <point x="74.49" y="627" type="line"/>
      <point x="80.03" y="641.17"/>
      <point x="91.28" y="652.9"/>
      <point x="104.99" y="659.5" type="curve" smooth="yes"/>
      <point x="117.18" y="665.37"/>
      <point x="130.96" y="667.3"/>
      <point x="144.49" y="667" type="curve" smooth="yes"/>
      <point x="165.67" y="666.53"/>
      <point x="186.42" y="661.26"/>
      <point x="207.27" y="657.48" type="curve" smooth="yes"/>
      <point x="228.12" y="653.7"/>
      <point x="249.37" y="651.35"/>
      <point x="270.49" y="653" type="curve" smooth="yes"/>
      <point x="279.48" y="653.7"/>
      <point x="288.41" y="655.11"/>
      <point x="297.18" y="657.17" type="curve"/>
      <point x="289.76" y="651.75"/>
      <point x="282.19" y="646.52"/>
      <point x="274.49" y="641.5" type="curve" smooth="yes"/>
      <point x="261.05" y="632.73"/>
      <point x="247.18" y="624.6"/>
      <point x="234.11" y="615.29" type="curve" smooth="yes"/>
      <point x="221.04" y="605.98"/>
      <point x="208.77" y="595.34"/>
      <point x="199.02" y="582.6" type="curve" smooth="yes"/>
      <point x="189.27" y="569.86"/>
      <point x="182.24" y="555.05"/>
      <point x="178.51" y="539.44" type="curve" smooth="yes"/>
      <point x="174.78" y="523.83"/>
      <point x="174.45" y="507.64"/>
      <point x="174.45" y="491.59" type="curve" smooth="yes"/>
      <point x="174.47" y="457.96" type="line"/>
      <point x="154.02" y="457.79"/>
      <point x="133.6" y="455.86"/>
      <point x="115" y="447.76" type="curve" smooth="yes"/>
      <point x="100.29" y="441.35"/>
      <point x="87.28" y="431.07"/>
      <point x="77.73" y="418.17" type="curve" smooth="yes"/>
      <point x="68.18" y="405.27"/>
      <point x="62.04" y="390.01"/>
    </contour>
    <contour>
      <point x="367.8" y="151.11" type="curve"/>
      <point x="392.49" y="170.01"/>
      <point x="416.03" y="190.16"/>
      <point x="436.49" y="213.49" type="curve" smooth="yes"/>
      <point x="450.06" y="228.97"/>
      <point x="461.53" y="246.55"/>
      <point x="468.17" y="266.03" type="curve" smooth="yes"/>
      <point x="474.82" y="285.51"/>
      <point x="475.89" y="306.4"/>
      <point x="475.9" y="326.99" type="curve" smooth="yes"/>
      <point x="475.9" y="499.99" type="line"/>
      <point x="475.97" y="577.99" type="line" smooth="yes"/>
      <point x="475.98" y="595.75"/>
      <point x="476.03" y="613.58"/>
      <point x="478.45" y="631.17" type="curve" smooth="yes"/>
      <point x="480.87" y="648.76"/>
      <point x="485.78" y="666.13"/>
      <point x="494.22" y="681.76" type="curve" smooth="yes"/>
      <point x="502.65" y="697.39"/>
      <point x="514.59" y="711.06"/>
      <point x="528.68" y="721.86" type="curve" smooth="yes"/>
      <point x="542.78" y="732.66"/>
      <point x="558.88" y="740.49"/>
      <point x="574.99" y="747.98" type="curve" smooth="yes"/>
      <point x="596.49" y="757.98" type="line"/>
      <point x="595.99" y="768.98" type="line"/>
      <point x="580.99" y="765.98" type="line" smooth="yes"/>
      <point x="531.28" y="756.04"/>
      <point x="481.26" y="742.21"/>
      <point x="439.49" y="713.48" type="curve" smooth="yes"/>
      <point x="413.21" y="695.4"/>
      <point x="390.38" y="671.92"/>
      <point x="374.99" y="643.98" type="curve" smooth="yes"/>
      <point x="360.77" y="618.16"/>
      <point x="353.22" y="589.08"/>
      <point x="349.89" y="559.8" type="curve" smooth="yes"/>
      <point x="346.56" y="530.52"/>
      <point x="346.86" y="500.95"/>
      <point x="346.87" y="471.48" type="curve" smooth="yes"/>
      <point x="346.91" y="378.48" type="line"/>
      <point x="346.91" y="322.31" type="line" smooth="yes"/>
      <point x="346.91" y="295.99"/>
      <point x="347.49" y="269.63"/>
      <point x="345.54" y="243.38" type="curve" smooth="yes"/>
      <point x="343.6" y="217.13"/>
      <point x="338.41" y="190.69"/>
      <point x="325.99" y="167.48" type="curve" smooth="yes"/>
      <point x="320.64" y="157.49"/>
      <point x="313.99" y="148.19"/>
      <point x="306.25" y="139.92" type="curve"/>
      <point x="269.59" y="130.09"/>
      <point x="234.45" y="114.73"/>
      <point x="202.72" y="93.93" type="curve" smooth="yes"/>
      <point x="156.72" y="63.77"/>
      <point x="118.13" y="22.35"/>
      <point x="91.49" y="-25.77" type="curve"/>
      <point x="91.49" y="-44.52" type="line"/>
      <point x="160.95" y="6.74"/>
      <point x="246.2" y="36.28"/>
      <point x="332.49" y="38.98" type="curve" smooth="yes"/>
      <point x="412.23" y="41.47"/>
      <point x="492.55" y="21.13"/>
      <point x="561.49" y="-19.02" type="curve"/>
      <point x="708.16" y="90.65" type="line"/>
      <point x="692.16" y="113.32" type="line"/>
      <point x="659.49" y="89.32" type="line"/>
      <point x="621.09" y="108.87"/>
      <point x="580.65" y="124.46"/>
      <point x="538.99" y="135.49" type="curve" smooth="yes"/>
      <point x="483.3" y="150.23"/>
      <point x="425.08" y="156.79"/>
    </contour>
  </outline>
</glyph>
<glyph name="M" format="2">
  <advance width="1085"/>
  <unicode hex="004D"/>
  <note>
M
</note>
  <outline>
    <contour>
      <point x="396.9" y="251.33" type="line"/>
    </contour>
    <contour>
      <point x="632.01" y="148.39" type="line"/>
    </contour>
    <contour>
      <point x="809.41" y="95.66" type="line"/>
    </contour>
    <contour>
      <point x="809.41" y="95.66" type="line"/>
    </contour>
    <contour>
      <point x="71.16" y="624.79" type="curve"/>
      <point x="52" y="634.38" type="line"/>
      <point x="57.95" y="653.14"/>
      <point x="66.36" y="671.12"/>
      <point x="77.04" y="687.65" type="curve" smooth="yes"/>
      <point x="90.22" y="708.03"/>
      <point x="106.85" y="726.43"/>
      <point x="127.04" y="739.9" type="curve" smooth="yes"/>
      <point x="137.93" y="747.17"/>
      <point x="149.91" y="752.9"/>
      <point x="162.58" y="756.2" type="curve" smooth="yes"/>
      <point x="175.25" y="759.5"/>
      <point x="188.55" y="760.25"/>
      <point x="201.54" y="758.65" type="curve" smooth="yes"/>
      <point x="216.03" y="756.86"/>
      <point x="230" y="752.25"/>
      <point x="243.81" y="747.51" type="curve" smooth="yes"/>
      <point x="257.62" y="742.77"/>
      <point x="271.51" y="738.17"/>
      <point x="285.77" y="735.05" type="curve" smooth="yes"/>
      <point x="293.53" y="733.36"/>
      <point x="301.35" y="731.93"/>
      <point x="309.22" y="730.89" type="curve" smooth="yes"/>
      <point x="318.73" y="729.64"/>
      <point x="328.59" y="729.2"/>
      <point x="337.72" y="732.14" type="curve" smooth="yes"/>
      <point x="347.01" y="735.13"/>
      <point x="354.88" y="741.39"/>
      <point x="362.02" y="748.05" type="curve" smooth="yes"/>
      <point x="365.83" y="751.6"/>
      <point x="369.52" y="755.28"/>
      <point x="373.15" y="759.01" type="curve"/>
      <point x="392.33" y="749.42" type="line"/>
      <point x="388.46" y="745.1"/>
      <point x="384.57" y="740.81"/>
      <point x="380.64" y="736.55" type="curve" smooth="yes"/>
      <point x="365.18" y="719.77"/>
      <point x="349.34" y="703.25"/>
      <point x="331.74" y="688.73" type="curve" smooth="yes"/>
      <point x="314.14" y="674.21"/>
      <point x="294.43" y="661.83"/>
      <point x="272.64" y="655.05" type="curve" smooth="yes"/>
      <point x="258.83" y="650.75"/>
      <point x="244.29" y="648.8"/>
      <point x="229.84" y="649.41" type="curve" smooth="yes"/>
      <point x="215.39" y="650.02"/>
      <point x="201.17" y="653.27"/>
      <point x="187.31" y="657.38" type="curve" smooth="yes"/>
      <point x="175.59" y="660.86"/>
      <point x="163.98" y="664.88"/>
      <point x="151.97" y="667.14" type="curve" smooth="yes"/>
      <point x="139.95" y="669.4"/>
      <point x="127.4" y="669.68"/>
      <point x="115.62" y="666.38" type="curve" smooth="yes"/>
      <point x="106.43" y="663.81"/>
      <point x="97.86" y="659.13"/>
      <point x="90.64" y="652.88" type="curve" smooth="yes"/>
      <point x="81.94" y="645.34"/>
      <point x="75.2" y="635.57"/>
    </contour>
    <contour>
      <point x="71.19" y="287.35" type="curve"/>
      <point x="90.35" y="287.35" type="line"/>
      <point x="89.05" y="294.5"/>
      <point x="89.26" y="301.93"/>
      <point x="91.01" y="308.99" type="curve" smooth="yes"/>
      <point x="93.95" y="320.89"/>
      <point x="101.55" y="331.67"/>
      <point x="112.09" y="337.93" type="curve" smooth="yes"/>
      <point x="117.36" y="341.06"/>
      <point x="123.26" y="343.06"/>
      <point x="129.3" y="344.09" type="curve" smooth="yes"/>
      <point x="135.34" y="345.12"/>
      <point x="141.5" y="345.19"/>
      <point x="147.63" y="345.19" type="curve" smooth="yes"/>
      <point x="158.63" y="345.19"/>
      <point x="169.64" y="345.19"/>
      <point x="180.64" y="345.19" type="curve"/>
      <point x="180.64" y="269.65" type="line" smooth="yes"/>
      <point x="180.64" y="254.99"/>
      <point x="180.96" y="240.21"/>
      <point x="178.37" y="225.78" type="curve" smooth="yes"/>
      <point x="177.08" y="218.56"/>
      <point x="174.99" y="211.45"/>
      <point x="171.71" y="204.9" type="curve" smooth="yes"/>
      <point x="168.43" y="198.34"/>
      <point x="163.93" y="192.36"/>
      <point x="158.3" y="187.66" type="curve" smooth="yes"/>
      <point x="151.28" y="181.79"/>
      <point x="142.54" y="178.01"/>
      <point x="133.45" y="177.02" type="curve"/>
      <point x="138.33" y="157.96" type="line"/>
      <point x="164.95" y="159.83"/>
      <point x="191.35" y="165.43"/>
      <point x="216.24" y="175.05" type="curve" smooth="yes"/>
      <point x="241.13" y="184.66"/>
      <point x="264.94" y="198.34"/>
      <point x="282.99" y="218" type="curve" smooth="yes"/>
      <point x="292.96" y="228.86"/>
      <point x="300.9" y="241.7"/>
      <point x="305.38" y="255.75" type="curve" smooth="yes"/>
      <point x="309.86" y="269.8"/>
      <point x="310.49" y="284.75"/>
      <point x="310.49" y="299.5" type="curve" smooth="yes"/>
      <point x="310.49" y="523" type="line" smooth="yes"/>
      <point x="310.49" y="535.23"/>
      <point x="310.84" y="547.54"/>
      <point x="313.43" y="559.49" type="curve" smooth="yes"/>
      <point x="316.02" y="571.44"/>
      <point x="320.66" y="582.91"/>
      <point x="326.78" y="593.5" type="curve" smooth="yes"/>
      <point x="337.26" y="611.65"/>
      <point x="351.62" y="627.42"/>
      <point x="368.22" y="640.28" type="curve"/>
      <point x="368.22" y="432.16" type="line"/>
      <point x="368.22" y="275.83" type="line" smooth="yes"/>
      <point x="368.22" y="258.22"/>
      <point x="368.18" y="240.48"/>
      <point x="364.89" y="223.18" type="curve" smooth="yes"/>
      <point x="361.6" y="205.88"/>
      <point x="354.81" y="189.05"/>
      <point x="343.77" y="175.33" type="curve" smooth="yes"/>
      <point x="335.84" y="165.47"/>
      <point x="325.85" y="157.31"/>
      <point x="314.73" y="151.28" type="curve" smooth="yes"/>
      <point x="303.61" y="145.24"/>
      <point x="291.43" y="141.31"/>
      <point x="279.01" y="138.86" type="curve" smooth="yes"/>
      <point x="254.18" y="133.97"/>
      <point x="228.61" y="134.86"/>
      <point x="203.43" y="132.33" type="curve" smooth="yes"/>
      <point x="186.06" y="130.58"/>
      <point x="168.71" y="127.1"/>
      <point x="152.71" y="120.12" type="curve" smooth="yes"/>
      <point x="136.7" y="113.14"/>
      <point x="122.18" y="102.62"/>
      <point x="111.04" y="89.16" type="curve" smooth="yes"/>
      <point x="93.75" y="68.26"/>
      <point x="85.15" y="40.79"/>
      <point x="85.43" y="13.66" type="curve" smooth="yes"/>
      <point x="85.76" y="-18.39"/>
      <point x="98.23" y="-50.66"/>
      <point x="121.38" y="-72.84" type="curve" smooth="yes"/>
      <point x="143.42" y="-93.96"/>
      <point x="175.1" y="-104.78"/>
      <point x="205.37" y="-100.87" type="curve"/>
      <point x="205.37" y="-76.93" type="line"/>
      <point x="197.18" y="-77.31"/>
      <point x="188.9" y="-76.1"/>
      <point x="181.21" y="-73.25" type="curve" smooth="yes"/>
      <point x="173.94" y="-70.55"/>
      <point x="167.16" y="-66.34"/>
      <point x="161.96" y="-60.59" type="curve" smooth="yes"/>
      <point x="156.76" y="-54.84"/>
      <point x="153.26" y="-47.47"/>
      <point x="152.55" y="-39.75" type="curve" smooth="yes"/>
      <point x="151.64" y="-29.93"/>
      <point x="155.42" y="-19.93"/>
      <point x="162.05" y="-12.63" type="curve" smooth="yes"/>
      <point x="168.68" y="-5.33"/>
      <point x="177.78" y="-0.63"/>
      <point x="187.21" y="2.25" type="curve" smooth="yes"/>
      <point x="201.93" y="6.74"/>
      <point x="217.5" y="7.4"/>
      <point x="232.85" y="8.54" type="curve" smooth="yes"/>
      <point x="248.2" y="9.69"/>
      <point x="263.56" y="11.26"/>
      <point x="278.54" y="14.78" type="curve" smooth="yes"/>
      <point x="308.5" y="21.81"/>
      <point x="336.85" y="36.35"/>
      <point x="359.21" y="57.5" type="curve" smooth="yes"/>
      <point x="372.36" y="69.94"/>
      <point x="383.31" y="84.93"/>
      <point x="389.68" y="101.87" type="curve" smooth="yes"/>
      <point x="396.05" y="118.81"/>
      <point x="397.07" y="137.23"/>
      <point x="397.04" y="155.33" type="curve" smooth="yes"/>
      <point x="396.88" y="251.33" type="line"/>
      <point x="396.88" y="289.59" type="line"/>
      <point x="409.95" y="298.96"/>
      <point x="425.7" y="304.61"/>
      <point x="441.77" y="305.43" type="curve" smooth="yes"/>
      <point x="463.84" y="306.56"/>
      <point x="486.18" y="298.43"/>
      <point x="502.57" y="283.66" type="curve"/>
      <point x="502.57" y="232.18"/>
      <point x="502.57" y="180.7"/>
      <point x="502.57" y="129.21" type="curve"/>
      <point x="440.26" y="86.07" type="line"/>
      <point x="449.85" y="71.69" type="line"/>
      <point x="483.4" y="95.66" type="line"/>
      <point x="598.44" y="-0.21" type="line"/>
      <point x="766.21" y="124.42" type="line"/>
      <point x="751.83" y="138.8" type="line"/>
      <point x="720.06" y="117.59" type="line"/>
      <point x="720.06" y="289.72" type="line"/>
      <point x="733.09" y="299.01"/>
      <point x="748.77" y="304.62"/>
      <point x="764.77" y="305.43" type="curve" smooth="yes"/>
      <point x="786.03" y="306.52"/>
      <point x="807.53" y="299.02"/>
      <point x="823.74" y="285.26" type="curve"/>
      <point x="823.74" y="125.85" type="line"/>
      <point x="766.26" y="86.06" type="line"/>
      <point x="775.85" y="71.68" type="line"/>
      <point x="809.4" y="95.65" type="line"/>
      <point x="924.44" y="-0.22" type="line"/>
      <point x="1077.21" y="124.41" type="line"/>
      <point x="1062.83" y="138.79" type="line"/>
      <point x="1006.19" y="100.97" type="line"/>
      <point x="962.74" y="138.79" type="line"/>
      <point x="962.74" y="604.01" type="line"/>
      <point x="1014.77" y="646.21" type="line"/>
      <point x="997.13" y="667.96" type="line"/>
      <point x="955.49" y="634.19" type="line"/>
      <point x="828.68" y="747.32" type="line"/>
      <point x="720.05" y="682.12" type="line"/>
      <point x="720.05" y="737.98" type="line"/>
      <point x="691.39" y="737.98" type="line"/>
      <point x="691.39" y="664.92" type="line"/>
      <point x="637.02" y="632.29" type="line"/>
      <point x="631.98" y="636.49" type="line"/>
      <point x="497.76" y="747.57" type="line"/>
      <point x="297.47" y="620.74" type="line" smooth="yes"/>
      <point x="265.9" y="600.75"/>
      <point x="234.9" y="578.43"/>
      <point x="213.22" y="547.99" type="curve" smooth="yes"/>
      <point x="200.87" y="530.65"/>
      <point x="191.57" y="511.08"/>
      <point x="186.42" y="490.42" type="curve" smooth="yes"/>
      <point x="183.73" y="479.62"/>
      <point x="182.26" y="468.6"/>
      <point x="181.48" y="457.5" type="curve"/>
      <point x="158.6" y="454.19"/>
      <point x="135.51" y="451.03"/>
      <point x="114.67" y="441.24" type="curve" smooth="yes"/>
      <point x="100.65" y="434.65"/>
      <point x="88.02" y="425.01"/>
      <point x="78.38" y="412.89" type="curve" smooth="yes"/>
      <point x="68.73" y="400.77"/>
      <point x="62.08" y="386.35"/>
      <point x="58.67" y="371.24" type="curve" smooth="yes"/>
      <point x="52.31" y="343.05"/>
      <point x="57.13" y="312.61"/>
    </contour>
    <contour>
      <point x="396.86" y="318.7" type="curve"/>
      <point x="396.86" y="407.73" type="line"/>
      <point x="410.29" y="398.39"/>
      <point x="426.39" y="392.86"/>
      <point x="442.75" y="392.24" type="curve" smooth="yes"/>
      <point x="464.41" y="391.41"/>
      <point x="486.23" y="399.28"/>
      <point x="502.55" y="413.5" type="curve"/>
      <point x="502.55" y="312.93" type="line"/>
      <point x="486.22" y="327.15"/>
      <point x="464.4" y="335.01"/>
      <point x="442.75" y="334.19" type="curve" smooth="yes"/>
      <point x="426.39" y="333.57"/>
      <point x="410.29" y="328.04"/>
    </contour>
    <contour>
      <point x="396.86" y="436.84" type="curve"/>
      <point x="396.86" y="637.77" type="line"/>
      <point x="502.55" y="565.42" type="line"/>
      <point x="502.55" y="524.54"/>
      <point x="502.55" y="483.65"/>
      <point x="502.55" y="442.77" type="curve"/>
      <point x="486.16" y="427.99"/>
      <point x="463.82" y="419.87"/>
      <point x="441.75" y="421" type="curve" smooth="yes"/>
      <point x="425.68" y="421.82"/>
      <point x="409.93" y="427.47"/>
    </contour>
    <contour>
      <point x="691.38" y="103.83" type="curve"/>
      <point x="631.98" y="148.39" type="line"/>
      <point x="631.99" y="601.05" type="line"/>
      <point x="691.38" y="637.02" type="line"/>
      <point x="691.38" y="459.29"/>
      <point x="691.38" y="281.56"/>
    </contour>
    <contour>
      <point x="720.04" y="318.82" type="curve"/>
      <point x="720.04" y="407.61" type="line"/>
      <point x="733.43" y="398.35"/>
      <point x="749.46" y="392.87"/>
      <point x="765.75" y="392.25" type="curve" smooth="yes"/>
      <point x="786.6" y="391.45"/>
      <point x="807.61" y="398.72"/>
      <point x="823.72" y="411.95" type="curve"/>
      <point x="823.72" y="314.48" type="line"/>
      <point x="807.61" y="327.72"/>
      <point x="786.61" y="334.98"/>
      <point x="765.75" y="334.18" type="curve" smooth="yes"/>
      <point x="749.47" y="333.56"/>
      <point x="733.44" y="328.08"/>
    </contour>
    <contour>
      <point x="720.03" y="436.69" type="curve"/>
      <point x="720.04" y="644.03" type="line"/>
      <point x="823.71" y="560.62" type="line"/>
      <point x="823.71" y="441.15" type="line"/>
      <point x="807.51" y="427.39"/>
      <point x="786" y="419.9"/>
      <point x="764.74" y="420.98" type="curve" smooth="yes"/>
      <point x="748.74" y="421.8"/>
      <point x="733.07" y="427.4"/>
    </contour>
  </outline>
</glyph>
<glyph name="P" format="2">
  <advance width="724"/>
  <unicode hex="0050"/>
  <note>
P
</note>
  <outline>
    <contour>
      <point x="71.09" y="347.01" type="curve" smooth="yes"/>
      <point x="67.64" y="328.54"/>
      <point x="69.2" y="309.17"/>
      <point x="75.58" y="291.5" type="curve"/>
      <point x="98.58" y="291.5" type="line"/>
      <point x="98.53" y="292.62"/>
      <point x="98.52" y="293.75"/>
      <point x="98.54" y="294.88" type="curve" smooth="yes"/>
      <point x="98.73" y="304.88"/>
      <point x="101.79" y="315.06"/>
      <point x="108.42" y="322.55" type="curve" smooth="yes"/>
      <point x="112" y="326.59"/>
      <point x="116.52" y="329.75"/>
      <point x="121.47" y="331.9" type="curve" smooth="yes"/>
      <point x="126.42" y="334.05"/>
      <point x="131.74" y="335.23"/>
      <point x="137.1" y="335.84" type="curve" smooth="yes"/>
      <point x="147.83" y="337.07"/>
      <point x="169.44" y="336.51"/>
      <point x="169.44" y="336.51" type="curve"/>
      <point x="175.15" y="336.51"/>
      <point x="180.87" y="336.51"/>
      <point x="186.58" y="336.51" type="curve"/>
      <point x="186.58" y="149.59" type="line"/>
      <point x="127.63" y="118.98"/>
      <point x="77.29" y="71.61"/>
      <point x="45.01" y="13.51" type="curve"/>
      <point x="68.01" y="13.51" type="line"/>
      <point x="99.82" y="48.04"/>
      <point x="141.48" y="73.14"/>
      <point x="186.58" y="86.09" type="curve"/>
      <point x="186.58" y="-82.99" type="line"/>
      <point x="186.58" y="-111.49" type="line"/>
      <point x="327" y="-111.49" type="line"/>
      <point x="389.51" y="-111.49" type="line"/>
      <point x="389.51" y="-82.99" type="line"/>
      <point x="389.51" y="-82.99" type="line"/>
      <point x="389.51" y="58.57" type="line"/>
      <point x="403.4" y="50.16"/>
      <point x="416.49" y="40.44"/>
      <point x="428.51" y="29.51" type="curve"/>
      <point x="691" y="171.01" type="line"/>
      <point x="691" y="639.01" type="line"/>
      <point x="674.27" y="662.16"/>
      <point x="655.63" y="683.92"/>
      <point x="635.33" y="704.01" type="curve" smooth="yes"/>
      <point x="614.21" y="724.92"/>
      <point x="591.29" y="744.01"/>
      <point x="566.91" y="761.01" type="curve"/>
      <point x="389.5" y="631.71" type="line"/>
      <point x="389.5" y="737.05" type="line"/>
      <point x="360.84" y="737.05" type="line"/>
      <point x="360.84" y="610.82" type="line"/>
      <point x="326.99" y="586.15" type="line"/>
      <point x="326.99" y="604.01" type="line" smooth="yes"/>
      <point x="326.99" y="619.58"/>
      <point x="326.79" y="635.25"/>
      <point x="323.74" y="650.52" type="curve" smooth="yes"/>
      <point x="320.69" y="665.79"/>
      <point x="314.8" y="680.56"/>
      <point x="305.82" y="693.28" type="curve" smooth="yes"/>
      <point x="296.84" y="706"/>
      <point x="284.89" y="716.57"/>
      <point x="271.28" y="724.13" type="curve" smooth="yes"/>
      <point x="257.66" y="731.68"/>
      <point x="242.47" y="736.26"/>
      <point x="227" y="738.01" type="curve" smooth="yes"/>
      <point x="202.1" y="740.83"/>
      <point x="176.48" y="736.43"/>
      <point x="153.74" y="725.9" type="curve" smooth="yes"/>
      <point x="131" y="715.37"/>
      <point x="111.14" y="698.53"/>
      <point x="97.5" y="677.51" type="curve" smooth="yes"/>
      <point x="85.15" y="658.47"/>
      <point x="78.01" y="636.08"/>
      <point x="77.14" y="613.4" type="curve"/>
      <point x="101.08" y="613.4" type="line"/>
      <point x="102.58" y="621.73"/>
      <point x="105.59" y="629.79"/>
      <point x="110" y="637.01" type="curve" smooth="yes"/>
      <point x="116.56" y="647.74"/>
      <point x="126.59" y="656.76"/>
      <point x="138.72" y="660.07" type="curve" smooth="yes"/>
      <point x="144.79" y="661.72"/>
      <point x="151.28" y="661.88"/>
      <point x="157.37" y="660.32" type="curve" smooth="yes"/>
      <point x="163.46" y="658.76"/>
      <point x="169.09" y="655.49"/>
      <point x="173.5" y="651.01" type="curve" smooth="yes"/>
      <point x="179.6" y="644.82"/>
      <point x="183.22" y="636.51"/>
      <point x="184.91" y="627.98" type="curve" smooth="yes"/>
      <point x="186.6" y="619.46"/>
      <point x="186.58" y="610.7"/>
      <point x="186.58" y="602.01" type="curve" smooth="yes"/>
      <point x="186.58" y="436.56" type="line"/>
      <point x="168.99" y="437.37"/>
      <point x="151.2" y="434.13"/>
      <point x="135.09" y="427.01" type="curve" smooth="yes"/>
      <point x="118.84" y="419.83"/>
      <point x="104.31" y="408.76"/>
      <point x="93.18" y="394.92" type="curve" smooth="yes"/>
      <point x="82.05" y="381.08"/>
      <point x="74.35" y="364.48"/>
    </contour>
    <contour>
      <point x="563.34" y="500.56" type="line"/>
      <point x="389.51" y="412.8" type="line"/>
      <point x="389.51" y="475.37"/>
      <point x="389.51" y="537.95"/>
      <point x="389.51" y="600.52" type="curve"/>
      <point x="469.42" y="656.96" type="line"/>
      <point x="485.15" y="645.58"/>
      <point x="500.32" y="633.41"/>
      <point x="514.84" y="620.51" type="curve" smooth="yes"/>
      <point x="531.94" y="605.32"/>
      <point x="548.15" y="589.11"/>
      <point x="563.34" y="572.01" type="curve"/>
    </contour>
    <contour>
      <point x="389.52" y="307.83" type="line"/>
      <point x="389.52" y="380.69" type="line"/>
      <point x="563.34" y="468.44" type="line"/>
      <point x="563.34" y="395.59" type="line"/>
    </contour>
    <contour>
      <point x="389.52" y="184.22" type="curve"/>
      <point x="389.52" y="275.72" type="line"/>
      <point x="563.34" y="363.47" type="line"/>
      <point x="563.34" y="135.49" type="line"/>
      <point x="541.34" y="122.49" type="line"/>
      <point x="496.79" y="155.06"/>
      <point x="444.1" y="176.24"/>
    </contour>
    <contour>
      <point x="327.01" y="556.34" type="line"/>
      <point x="360.86" y="580.25" type="line"/>
      <point x="360.86" y="449.23"/>
      <point x="360.86" y="318.2"/>
      <point x="360.86" y="187.18" type="curve"/>
      <point x="349.59" y="187.86"/>
      <point x="338.29" y="187.98"/>
      <point x="327.01" y="187.51" type="curve"/>
    </contour>
    <contour>
      <point x="360.86" y="73.53" type="curve"/>
      <point x="360.86" y="21.34"/>
      <point x="360.86" y="-30.84"/>
      <point x="360.86" y="-83.03" type="curve"/>
      <point x="327.01" y="-83.03" type="line"/>
      <point x="327.01" y="85.92" type="line"/>
      <point x="338.56" y="82.58"/>
      <point x="349.88" y="78.43"/>
    </contour>
  </outline>
</glyph>
<glyph name="Q" format="2">
  <advance width="780"/>
  <unicode hex="0051"/>
  <note>
Q
</note>
  <outline>
    <contour>
      <point x="245.53" y="297" type="curve" smooth="yes"/>
      <point x="236.68" y="282.28"/>
      <point x="224.27" y="269.7"/>
      <point x="209.71" y="260.65" type="curve"/>
      <point x="206.51" y="268.66"/>
      <point x="203.57" y="276.76"/>
      <point x="200.9" y="284.94" type="curve" smooth="yes"/>
      <point x="183.95" y="336.81"/>
      <point x="177.08" y="391.79"/>
      <point x="178.86" y="446.33" type="curve" smooth="yes"/>
      <point x="180.61" y="499.9"/>
      <point x="190.98" y="553.48"/>
      <point x="211.18" y="603.04" type="curve"/>
      <point x="266.62" y="626.06" type="line"/>
      <point x="266.62" y="554.37"/>
      <point x="266.62" y="482.69"/>
      <point x="266.62" y="411" type="curve" smooth="yes"/>
      <point x="266.62" y="391.42"/>
      <point x="266.64" y="371.76"/>
      <point x="263.93" y="352.37" type="curve" smooth="yes"/>
      <point x="261.22" y="332.98"/>
      <point x="255.61" y="313.79"/>
    </contour>
    <contour>
      <point x="517.86" y="765.01" type="curve"/>
      <point x="228.92" y="640.76" type="line"/>
      <point x="229.56" y="641.95"/>
      <point x="230.21" y="643.15"/>
      <point x="230.87" y="644.33" type="curve" smooth="yes"/>
      <point x="257.79" y="693.12"/>
      <point x="295.75" y="735.84"/>
      <point x="341.37" y="767.83" type="curve"/>
      <point x="326.87" y="786.33" type="line"/>
      <point x="233.72" y="748.53"/>
      <point x="155.18" y="676.46"/>
      <point x="108.37" y="587.5" type="curve" smooth="yes"/>
      <point x="67.91" y="510.6"/>
      <point x="50.58" y="422.16"/>
      <point x="55.97" y="335.44" type="curve" smooth="yes"/>
      <point x="61.36" y="248.72"/>
      <point x="88.7" y="162.36"/>
      <point x="140.37" y="92.5" type="curve" smooth="yes"/>
      <point x="168.68" y="54.23"/>
      <point x="204.75" y="21.25"/>
      <point x="247.11" y="-0.48" type="curve" smooth="yes"/>
      <point x="289.47" y="-22.21"/>
      <point x="337.98" y="-31.98"/>
      <point x="385.37" y="-27.5" type="curve" smooth="yes"/>
      <point x="425.43" y="-23.71"/>
      <point x="464.24" y="-10.08"/>
      <point x="499.28" y="9.71" type="curve" smooth="yes"/>
      <point x="511.62" y="16.68"/>
      <point x="523.53" y="24.38"/>
      <point x="535.02" y="32.66" type="curve"/>
      <point x="540.6" y="25.15"/>
      <point x="546.27" y="17.71"/>
      <point x="552.03" y="10.34" type="curve" smooth="yes"/>
      <point x="573.82" y="-17.52"/>
      <point x="597.04" y="-44.48"/>
      <point x="624.03" y="-67.33" type="curve" smooth="yes"/>
      <point x="641.97" y="-82.51"/>
      <point x="661.53" y="-95.79"/>
      <point x="682.36" y="-106.66" type="curve"/>
      <point x="833.36" y="13.01" type="line"/>
      <point x="812.36" y="34.34" type="line"/>
      <point x="772.34" y="0.21" type="line"/>
      <point x="757.5" y="7.85"/>
      <point x="743.23" y="16.59"/>
      <point x="729.69" y="26.34" type="curve" smooth="yes"/>
      <point x="691.77" y="53.65"/>
      <point x="659.67" y="89"/>
      <point x="636.03" y="129.31" type="curve"/>
      <point x="663.92" y="163.29"/>
      <point x="688" y="200.34"/>
      <point x="706.86" y="240.01" type="curve" smooth="yes"/>
      <point x="733.87" y="296.84"/>
      <point x="749.16" y="359.52"/>
      <point x="748.6" y="422.43" type="curve" smooth="yes"/>
      <point x="748.03" y="485.35"/>
      <point x="731.62" y="548.12"/>
      <point x="700.86" y="603.01" type="curve" smooth="yes"/>
      <point x="660.28" y="675.43"/>
      <point x="594.68" y="733.54"/>
    </contour>
    <contour>
      <point x="224.96" y="227.36" type="curve"/>
      <point x="242.99" y="230.33"/>
      <point x="260.71" y="235.2"/>
      <point x="277.69" y="241.96" type="curve" smooth="yes"/>
      <point x="305.9" y="253.19"/>
      <point x="332.27" y="269.67"/>
      <point x="353.19" y="291.68" type="curve" smooth="yes"/>
      <point x="368.69" y="307.99"/>
      <point x="380.91" y="327.54"/>
      <point x="387.78" y="348.96" type="curve" smooth="yes"/>
      <point x="394.66" y="370.38"/>
      <point x="395.61" y="393.19"/>
      <point x="395.61" y="415.68" type="curve" smooth="yes"/>
      <point x="395.61" y="480.68" type="line"/>
      <point x="395.67" y="679.66" type="line"/>
      <point x="404.94" y="683.51" type="line"/>
      <point x="420.06" y="674.73"/>
      <point x="434.76" y="665.23"/>
      <point x="448.98" y="655.04" type="curve"/>
      <point x="448.98" y="463.87"/>
      <point x="448.98" y="272.71"/>
      <point x="448.98" y="81.54" type="curve"/>
      <point x="448.77" y="81.53"/>
      <point x="448.57" y="81.52"/>
      <point x="448.36" y="81.51" type="curve" smooth="yes"/>
      <point x="418.25" y="79.94"/>
      <point x="387.88" y="85.49"/>
      <point x="359.98" y="96.91" type="curve" smooth="yes"/>
      <point x="332.08" y="108.33"/>
      <point x="306.67" y="125.52"/>
      <point x="284.86" y="146.34" type="curve" smooth="yes"/>
      <point x="260.43" y="169.67"/>
      <point x="240.57" y="197.35"/>
    </contour>
    <contour>
      <point x="477.64" y="85.31" type="curve"/>
      <point x="477.64" y="148.78"/>
      <point x="477.64" y="212.26"/>
      <point x="477.64" y="275.73" type="curve"/>
      <point x="643.35" y="359.39" type="line"/>
      <point x="651.26" y="302.48"/>
      <point x="643.87" y="242.91"/>
      <point x="616.86" y="192.34" type="curve" smooth="yes"/>
      <point x="600.29" y="161.32"/>
      <point x="576.45" y="134.06"/>
      <point x="547.22" y="114.51" type="curve" smooth="yes"/>
      <point x="526.18" y="100.44"/>
      <point x="502.41" y="90.47"/>
    </contour>
    <contour>
      <point x="477.64" y="633.02" type="curve"/>
      <point x="509.38" y="606.9"/>
      <point x="538.13" y="577.16"/>
      <point x="562.86" y="544.34" type="curve" smooth="yes"/>
      <point x="578.78" y="523.21"/>
      <point x="593.06" y="500.73"/>
      <point x="605.13" y="477.16" type="curve"/>
      <point x="477.64" y="412.8" type="line"/>
      <point x="477.64" y="486.21"/>
      <point x="477.64" y="559.61"/>
    </contour>
    <contour>
      <point x="477.64" y="307.85" type="line"/>
      <point x="477.64" y="380.69" type="line"/>
      <point x="617.32" y="451.21" type="line"/>
      <point x="625.96" y="431.01"/>
      <point x="632.92" y="410.13"/>
      <point x="637.89" y="388.75" type="curve"/>
    </contour>
  </outline>
</glyph>
<glyph name="R" format="2">
  <advance width="820"/>
  <unicode hex="0052"/>
  <note>
R
</note>
  <outline>
    <contour>
      <point x="110.49" y="728.53" type="curve" smooth="yes"/>
      <point x="98.15" y="709.46"/>
      <point x="91.01" y="687.07"/>
      <point x="90.14" y="664.39" type="curve"/>
      <point x="114.08" y="664.39" type="line"/>
      <point x="114.18" y="673.95"/>
      <point x="116.82" y="683.48"/>
      <point x="121.75" y="691.67" type="curve" smooth="yes"/>
      <point x="128.32" y="702.58"/>
      <point x="139.25" y="711.08"/>
      <point x="151.76" y="713.43" type="curve" smooth="yes"/>
      <point x="158.02" y="714.6"/>
      <point x="164.57" y="714.23"/>
      <point x="170.62" y="712.24" type="curve" smooth="yes"/>
      <point x="176.67" y="710.26"/>
      <point x="182.17" y="706.67"/>
      <point x="186.5" y="702" type="curve" smooth="yes"/>
      <point x="192.4" y="695.64"/>
      <point x="196.02" y="687.4"/>
      <point x="197.78" y="678.91" type="curve" smooth="yes"/>
      <point x="199.54" y="670.42"/>
      <point x="199.57" y="661.67"/>
      <point x="199.57" y="653" type="curve" smooth="yes"/>
      <point x="199.57" y="468.88" type="line"/>
      <point x="177.93" y="468.91"/>
      <point x="156.19" y="467.24"/>
      <point x="136.5" y="458.66" type="curve" smooth="yes"/>
      <point x="121.79" y="452.25"/>
      <point x="108.78" y="441.97"/>
      <point x="99.23" y="429.07" type="curve" smooth="yes"/>
      <point x="89.68" y="416.17"/>
      <point x="83.54" y="400.91"/>
      <point x="80.5" y="385.16" type="curve" smooth="yes"/>
      <point x="75" y="356.66"/>
      <point x="79.17" y="326.56"/>
      <point x="90.87" y="300" type="curve"/>
      <point x="110" y="300" type="line"/>
      <point x="108.16" y="309.61"/>
      <point x="109.11" y="319.75"/>
      <point x="112.81" y="328.81" type="curve" smooth="yes"/>
      <point x="116.93" y="338.88"/>
      <point x="124.64" y="347.5"/>
      <point x="134.35" y="352.39" type="curve" smooth="yes"/>
      <point x="139.21" y="354.84"/>
      <point x="144.5" y="356.37"/>
      <point x="149.88" y="357.16" type="curve" smooth="yes"/>
      <point x="155.26" y="357.95"/>
      <point x="160.72" y="358"/>
      <point x="166.16" y="358" type="curve" smooth="yes"/>
      <point x="177.29" y="358"/>
      <point x="188.43" y="358"/>
      <point x="199.56" y="358" type="curve"/>
      <point x="199.56" y="127.79" type="line"/>
      <point x="154.73" y="106.47"/>
      <point x="114.62" y="74.73"/>
      <point x="83.48" y="36.01" type="curve" smooth="yes"/>
      <point x="68.18" y="16.99"/>
      <point x="54.92" y="-3.67"/>
      <point x="43.98" y="-25.49" type="curve"/>
      <point x="74.48" y="-25.49" type="line"/>
      <point x="87.8" y="-4.96"/>
      <point x="105.72" y="12.55"/>
      <point x="126.48" y="25.51" type="curve" smooth="yes"/>
      <point x="149.69" y="39.99"/>
      <point x="176.3" y="48.71"/>
      <point x="203.47" y="51.93" type="curve" smooth="yes"/>
      <point x="230.63" y="55.15"/>
      <point x="258.3" y="53.03"/>
      <point x="284.98" y="47.01" type="curve" smooth="yes"/>
      <point x="329.11" y="37.06"/>
      <point x="370.73" y="16.72"/>
      <point x="406.48" y="-10.99" type="curve"/>
      <point x="563.73" y="113.22" type="line"/>
      <point x="564.96" y="109.14"/>
      <point x="566.25" y="105.09"/>
      <point x="567.63" y="101.06" type="curve" smooth="yes"/>
      <point x="575.88" y="76.95"/>
      <point x="587.35" y="53.74"/>
      <point x="603.48" y="34.02" type="curve" smooth="yes"/>
      <point x="618.54" y="15.6"/>
      <point x="637.56" y="0.38"/>
      <point x="658.98" y="-9.98" type="curve"/>
      <point x="811.98" y="111.52" type="line"/>
      <point x="811.98" y="142.02" type="line"/>
      <point x="743.41" y="89.02" type="line"/>
      <point x="729.16" y="101.21"/>
      <point x="716.9" y="115.71"/>
      <point x="707.08" y="131.69" type="curve" smooth="yes"/>
      <point x="693.43" y="153.9"/>
      <point x="684.71" y="178.8"/>
      <point x="678.15" y="204.02" type="curve" smooth="yes"/>
      <point x="671.59" y="229.25"/>
      <point x="666.82" y="254.93"/>
      <point x="659.74" y="280.02" type="curve" smooth="yes"/>
      <point x="651.68" y="308.59"/>
      <point x="640.38" y="336.41"/>
      <point x="624.14" y="361.25" type="curve" smooth="yes"/>
      <point x="607.9" y="386.09"/>
      <point x="586.96" y="407.85"/>
      <point x="562.74" y="425.02" type="curve" smooth="yes"/>
      <point x="552.33" y="432.4"/>
      <point x="541.33" y="438.95"/>
      <point x="529.89" y="444.59" type="curve"/>
      <point x="693.46" y="585.02" type="line"/>
      <point x="534.73" y="802.02" type="line"/>
      <point x="408.73" y="697.41" type="line"/>
      <point x="408.73" y="780.99" type="line"/>
      <point x="380.07" y="780.99" type="line"/>
      <point x="380.07" y="673.62" type="line"/>
      <point x="339.98" y="640.34" type="line"/>
      <point x="339.98" y="655.03" type="line" smooth="yes"/>
      <point x="339.98" y="670.6"/>
      <point x="339.78" y="686.27"/>
      <point x="336.73" y="701.54" type="curve" smooth="yes"/>
      <point x="333.68" y="716.81"/>
      <point x="327.79" y="731.58"/>
      <point x="318.81" y="744.3" type="curve" smooth="yes"/>
      <point x="309.83" y="757.02"/>
      <point x="297.88" y="767.59"/>
      <point x="284.27" y="775.15" type="curve" smooth="yes"/>
      <point x="270.65" y="782.7"/>
      <point x="255.46" y="787.28"/>
      <point x="239.99" y="789.03" type="curve" smooth="yes"/>
      <point x="215.09" y="791.85"/>
      <point x="189.47" y="787.45"/>
      <point x="166.73" y="776.92" type="curve" smooth="yes"/>
      <point x="143.99" y="766.39"/>
      <point x="124.13" y="749.55"/>
    </contour>
    <contour>
      <point x="339.99" y="157.38" type="curve"/>
      <point x="339.99" y="606.16" type="line"/>
      <point x="380.08" y="640.97" type="line"/>
      <point x="380.08" y="478.28"/>
      <point x="380.08" y="315.59"/>
      <point x="380.08" y="152.9" type="curve"/>
      <point x="366.84" y="155.32"/>
      <point x="353.44" y="156.82"/>
    </contour>
    <contour>
      <point x="408.74" y="146.16" type="curve"/>
      <point x="408.74" y="210.98"/>
      <point x="408.74" y="275.79"/>
      <point x="408.74" y="340.59" type="curve"/>
      <point x="424.48" y="354.1" type="line"/>
      <point x="437.98" y="349.19"/>
      <point x="450.82" y="342.42"/>
      <point x="462.49" y="334.04" type="curve" smooth="yes"/>
      <point x="487.56" y="316.05"/>
      <point x="506.94" y="290.81"/>
      <point x="520.4" y="263.04" type="curve" smooth="yes"/>
      <point x="533.86" y="235.27"/>
      <point x="541.63" y="205.13"/>
      <point x="548.49" y="175.04" type="curve" smooth="yes"/>
      <point x="551.84" y="160.38"/>
      <point x="555.03" y="145.65"/>
      <point x="558.79" y="131.09" type="curve"/>
      <point x="510.74" y="93.04" type="line"/>
      <point x="480.83" y="117.48"/>
      <point x="445.85" y="135.47"/>
    </contour>
    <contour>
      <point x="408.74" y="665.84" type="curve"/>
      <point x="439.47" y="692.53" type="line"/>
      <point x="566.47" y="512.03" type="line"/>
      <point x="408.74" y="375.64" type="line"/>
      <point x="408.74" y="472.37"/>
      <point x="408.74" y="569.11"/>
    </contour>
  </outline>
</glyph>
<glyph name="T" format="2">
  <advance width="719"/>
  <unicode hex="0054"/>
  <note>
T
</note>
  <outline>
    <contour>
      <point x="184.67" y="527.08" type="curve"/>
      <point x="194.27" y="541.46" type="line"/>
      <point x="184.43" y="546.12"/>
      <point x="176.52" y="554.7"/>
      <point x="172.65" y="564.87" type="curve" smooth="yes"/>
      <point x="168.78" y="575.04"/>
      <point x="168.98" y="586.65"/>
      <point x="172.94" y="596.79" type="curve" smooth="yes"/>
      <point x="176.32" y="605.47"/>
      <point x="182.33" y="613.04"/>
      <point x="189.75" y="618.68" type="curve" smooth="yes"/>
      <point x="197.17" y="624.32"/>
      <point x="205.93" y="628.06"/>
      <point x="215.01" y="630.14" type="curve" smooth="yes"/>
      <point x="233.17" y="634.3"/>
      <point x="252.19" y="632.03"/>
      <point x="270.44" y="628.3" type="curve" smooth="yes"/>
      <point x="315.63" y="619.05"/>
      <point x="360" y="606.18"/>
      <point x="404.94" y="595.8" type="curve" smooth="yes"/>
      <point x="448.97" y="585.63"/>
      <point x="492.49" y="572.81"/>
      <point x="537.18" y="566.12" type="curve" smooth="yes"/>
      <point x="541.77" y="565.43"/>
      <point x="546.37" y="564.83"/>
      <point x="550.99" y="564.32" type="curve"/>
      <point x="550.99" y="441.22" type="line"/>
      <point x="485.27" y="375.5" type="line"/>
      <point x="550.99" y="309.78" type="line"/>
      <point x="550.99" y="140.48" type="line"/>
      <point x="525.08" y="127.41"/>
      <point x="497.06" y="118.62"/>
      <point x="468.27" y="115.1" type="curve" smooth="yes"/>
      <point x="420.37" y="109.25"/>
      <point x="370.58" y="118.4"/>
      <point x="328.49" y="142" type="curve" smooth="yes"/>
      <point x="311.21" y="151.69"/>
      <point x="295.36" y="163.79"/>
      <point x="281.32" y="177.72" type="curve"/>
      <point x="457.22" y="251.75" type="line"/>
      <point x="457.29" y="555.33" type="line"/>
      <point x="237.47" y="461.65" type="line"/>
      <point x="259.46" y="509.14"/>
      <point x="294.68" y="550.5"/>
      <point x="338.08" y="579.81" type="curve"/>
      <point x="328.49" y="594.19" type="line"/>
      <point x="271.73" y="584.83"/>
      <point x="218.08" y="557.46"/>
      <point x="177.13" y="517.05" type="curve" smooth="yes"/>
      <point x="136.19" y="476.63"/>
      <point x="108.17" y="423.4"/>
      <point x="97.65" y="366.84" type="curve" smooth="yes"/>
      <point x="80.62" y="275.3"/>
      <point x="110.96" y="177.03"/>
      <point x="173.86" y="108.38" type="curve" smooth="yes"/>
      <point x="236.77" y="39.73"/>
      <point x="330.59" y="0.53"/>
      <point x="423.65" y="3.84" type="curve" smooth="yes"/>
      <point x="474.44" y="5.65"/>
      <point x="524.88" y="19.88"/>
      <point x="568.53" y="45.9" type="curve" smooth="yes"/>
      <point x="612.18" y="71.92"/>
      <point x="648.82" y="109.84"/>
      <point x="672.37" y="154.88" type="curve" smooth="yes"/>
      <point x="693.6" y="195.48"/>
      <point x="704.1" y="241.64"/>
      <point x="702.38" y="287.42" type="curve"/>
      <point x="683.21" y="287.42" type="line"/>
      <point x="665.79" y="242.56"/>
      <point x="636.68" y="202.26"/>
      <point x="599.37" y="171.88" type="curve" smooth="yes"/>
      <point x="592.82" y="166.55"/>
      <point x="586.02" y="161.52"/>
      <point x="578.99" y="156.83" type="curve"/>
      <point x="578.99" y="308.74" type="line"/>
      <point x="645.76" y="375.51" type="line"/>
      <point x="578.99" y="442.28" type="line"/>
      <point x="578.99" y="562.66" type="line"/>
      <point x="587.59" y="562.63"/>
      <point x="596.18" y="563.08"/>
      <point x="604.72" y="564.14" type="curve" smooth="yes"/>
      <point x="627.14" y="566.93"/>
      <point x="649.23" y="574.12"/>
      <point x="667.93" y="586.8" type="curve" smooth="yes"/>
      <point x="689.09" y="601.15"/>
      <point x="705.52" y="622.77"/>
      <point x="712.21" y="647.45" type="curve" smooth="yes"/>
      <point x="718.9" y="672.13"/>
      <point x="715.52" y="699.27"/>
      <point x="703.43" y="721.8" type="curve" smooth="yes"/>
      <point x="692.31" y="742.53"/>
      <point x="674.31" y="759.17"/>
      <point x="653.67" y="770.44" type="curve" smooth="yes"/>
      <point x="633.02" y="781.71"/>
      <point x="609.84" y="787.96"/>
      <point x="586.43" y="790.3" type="curve" smooth="yes"/>
      <point x="573.99" y="791.54"/>
      <point x="561.45" y="791.67"/>
      <point x="548.98" y="790.72" type="curve"/>
      <point x="548.98" y="771.55" type="line"/>
      <point x="559.81" y="770.09"/>
      <point x="570.63" y="768.43"/>
      <point x="581.29" y="766.03" type="curve" smooth="yes"/>
      <point x="592.01" y="763.61"/>
      <point x="602.84" y="760.27"/>
      <point x="611.52" y="753.52" type="curve" smooth="yes"/>
      <point x="615.86" y="750.15"/>
      <point x="619.58" y="745.92"/>
      <point x="622.03" y="741" type="curve" smooth="yes"/>
      <point x="624.48" y="736.08"/>
      <point x="625.62" y="730.49"/>
      <point x="625.11" y="725.02" type="curve" smooth="yes"/>
      <point x="624.64" y="719.96"/>
      <point x="622.77" y="715.05"/>
      <point x="619.82" y="710.9" type="curve" smooth="yes"/>
      <point x="616.87" y="706.76"/>
      <point x="612.88" y="703.4"/>
      <point x="608.42" y="700.97" type="curve" smooth="yes"/>
      <point x="599.48" y="696.12"/>
      <point x="588.95" y="695.03"/>
      <point x="578.79" y="695.53" type="curve" smooth="yes"/>
      <point x="548.74" y="696.98"/>
      <point x="519.47" y="705.44"/>
      <point x="490.11" y="712.02" type="curve" smooth="yes"/>
      <point x="452.32" y="720.48"/>
      <point x="415.97" y="734.13"/>
      <point x="379.29" y="746.53" type="curve" smooth="yes"/>
      <point x="354.67" y="754.85"/>
      <point x="329.51" y="761.96"/>
      <point x="303.71" y="765.1" type="curve" smooth="yes"/>
      <point x="277.91" y="768.25"/>
      <point x="251.48" y="767.43"/>
      <point x="226.29" y="761.03" type="curve" smooth="yes"/>
      <point x="203.44" y="755.22"/>
      <point x="181.65" y="744.76"/>
      <point x="163.54" y="729.65" type="curve" smooth="yes"/>
      <point x="145.43" y="714.55"/>
      <point x="131.12" y="694.75"/>
      <point x="123.29" y="672.51" type="curve" smooth="yes"/>
      <point x="113.67" y="645.21"/>
      <point x="114.19" y="614.34"/>
      <point x="125.35" y="587.63" type="curve" smooth="yes"/>
      <point x="136.51" y="560.92"/>
      <point x="158.18" y="538.75"/>
    </contour>
    <contour>
      <point x="224.25" y="427.36" type="curve"/>
      <point x="328.21" y="471.22" type="line"/>
      <point x="328.21" y="226.69" type="line"/>
      <point x="262.59" y="198.72" type="line"/>
      <point x="246.05" y="219.72"/>
      <point x="233.1" y="243.59"/>
      <point x="224.64" y="268.96" type="curve" smooth="yes"/>
      <point x="207.68" y="319.87"/>
      <point x="208.36" y="376.08"/>
    </contour>
  </outline>
</glyph>
<glyph name="U" format="2">
  <advance width="836"/>
  <unicode hex="0055"/>
  <note>
U
</note>
  <outline>
    <contour>
      <point x="44.98" y="622.52" type="curve"/>
      <point x="68.5" y="622.5" type="line"/>
      <point x="71.94" y="634.47"/>
      <point x="78.81" y="645.42"/>
      <point x="88.06" y="653.77" type="curve" smooth="yes"/>
      <point x="97.3" y="662.12"/>
      <point x="108.84" y="667.81"/>
      <point x="121" y="670.5" type="curve" smooth="yes"/>
      <point x="141.52" y="675.04"/>
      <point x="162.98" y="670.96"/>
      <point x="183.05" y="664.71" type="curve" smooth="yes"/>
      <point x="203.12" y="658.46"/>
      <point x="222.77" y="650.46"/>
      <point x="243.5" y="647" type="curve" smooth="yes"/>
      <point x="265.39" y="643.35"/>
      <point x="288.4" y="645.29"/>
      <point x="308.87" y="653.66" type="curve"/>
      <point x="246.04" y="622.1"/>
      <point x="192.99" y="571.28"/>
      <point x="158.93" y="509.74" type="curve" smooth="yes"/>
      <point x="122.88" y="444.6"/>
      <point x="108.31" y="367.81"/>
      <point x="117.99" y="294" type="curve" smooth="yes"/>
      <point x="128.86" y="211.1"/>
      <point x="170.49" y="132.6"/>
      <point x="233" y="77.08" type="curve" smooth="yes"/>
      <point x="295.51" y="21.56"/>
      <point x="378.39" y="-10.5"/>
      <point x="461.99" y="-11.5" type="curve"/>
      <point x="616.84" y="94.39" type="line"/>
      <point x="729.18" y="-0.2" type="line"/>
      <point x="861.48" y="109" type="line"/>
      <point x="847.1" y="123.38" type="line"/>
      <point x="815.98" y="97" type="line"/>
      <point x="767.48" y="138.81" type="line"/>
      <point x="767.48" y="664.32" type="line"/>
      <point x="811.48" y="700" type="line"/>
      <point x="793.84" y="721.75" type="line"/>
      <point x="753.55" y="689.07" type="line"/>
      <point x="666.98" y="761" type="line"/>
      <point x="530.48" y="673.45" type="line"/>
      <point x="530.48" y="764.62" type="line"/>
      <point x="509.48" y="764" type="line"/>
      <point x="471.7" y="736.42"/>
      <point x="433.55" y="709.05"/>
      <point x="399.48" y="677" type="curve" smooth="yes"/>
      <point x="378.82" y="657.56"/>
      <point x="360.14" y="635.38"/>
      <point x="348.88" y="609.34" type="curve" smooth="yes"/>
      <point x="337.62" y="583.3"/>
      <point x="335.48" y="554.36"/>
      <point x="335.48" y="526" type="curve" smooth="yes"/>
      <point x="335.48" y="439" type="line"/>
      <point x="335.48" y="281.94" type="line"/>
      <point x="280.59" y="258.55" type="line"/>
      <point x="265.07" y="294.56"/>
      <point x="256.1" y="333.38"/>
      <point x="252.98" y="372.51" type="curve" smooth="yes"/>
      <point x="247.99" y="435.06"/>
      <point x="257.73" y="498.73"/>
      <point x="280.98" y="557.01" type="curve" smooth="yes"/>
      <point x="311.38" y="633.23"/>
      <point x="365.67" y="699.79"/>
      <point x="434.48" y="744.51" type="curve"/>
      <point x="410.98" y="768.01" type="line"/>
      <point x="407.62" y="765.36"/>
      <point x="404.25" y="762.73"/>
      <point x="400.86" y="760.14" type="curve" smooth="yes"/>
      <point x="387.34" y="749.79"/>
      <point x="373.42" y="739.53"/>
      <point x="357.49" y="733.52" type="curve" smooth="yes"/>
      <point x="345.87" y="729.14"/>
      <point x="333.31" y="727.28"/>
      <point x="320.92" y="728.16" type="curve" smooth="yes"/>
      <point x="308.53" y="729.04"/>
      <point x="296.46" y="732.54"/>
      <point x="284.9" y="737.09" type="curve" smooth="yes"/>
      <point x="273.35" y="741.64"/>
      <point x="262.21" y="747.19"/>
      <point x="250.72" y="751.91" type="curve" smooth="yes"/>
      <point x="239.24" y="756.63"/>
      <point x="227.3" y="760.49"/>
      <point x="214.98" y="762.02" type="curve" smooth="yes"/>
      <point x="200.65" y="763.8"/>
      <point x="185.95" y="762.33"/>
      <point x="172.24" y="757.79" type="curve" smooth="yes"/>
      <point x="158.54" y="753.25"/>
      <point x="145.9" y="745.85"/>
      <point x="134.48" y="737.02" type="curve" smooth="yes"/>
      <point x="95.92" y="707.2"/>
      <point x="68.56" y="665.18"/>
    </contour>
    <contour>
      <point x="501.82" y="726.57" type="curve"/>
      <point x="501.82" y="515.66"/>
      <point x="501.82" y="304.74"/>
      <point x="501.82" y="93.83" type="curve"/>
      <point x="461.87" y="96.41"/>
      <point x="422.54" y="108.91"/>
      <point x="388.49" y="130.02" type="curve" smooth="yes"/>
      <point x="347.76" y="155.26"/>
      <point x="314.8" y="192.26"/>
      <point x="292.19" y="234.51" type="curve"/>
      <point x="464.49" y="307.02" type="line"/>
      <point x="464.56" y="569.02" type="line"/>
      <point x="464.49" y="613.02" type="line" smooth="yes"/>
      <point x="464.45" y="638.81"/>
      <point x="465.52" y="665.26"/>
      <point x="475.54" y="689.03" type="curve" smooth="yes"/>
      <point x="481.52" y="703.21"/>
      <point x="490.55" y="716.12"/>
    </contour>
    <contour>
      <point x="628.47" y="476.17" type="line"/>
      <point x="530.48" y="426.69" type="line"/>
      <point x="530.48" y="499.34"/>
      <point x="530.48" y="571.98"/>
      <point x="530.48" y="644.63" type="curve"/>
      <point x="572.98" y="671.03" type="line"/>
      <point x="628.47" y="610.42" type="line"/>
    </contour>
    <contour>
      <point x="530.48" y="321.74" type="line"/>
      <point x="530.48" y="394.59" type="line"/>
      <point x="628.47" y="444.06" type="line"/>
      <point x="628.47" y="371.21" type="line"/>
    </contour>
    <contour>
      <point x="530.48" y="289.63" type="curve"/>
      <point x="628.47" y="339.1" type="line"/>
      <point x="628.47" y="149.61" type="line"/>
      <point x="545.48" y="95.03" type="line"/>
      <point x="540.49" y="94.43"/>
      <point x="535.49" y="93.99"/>
      <point x="530.48" y="93.71" type="curve"/>
      <point x="530.48" y="159.02"/>
      <point x="530.48" y="224.33"/>
    </contour>
  </outline>
</glyph>
<glyph name="V" format="2">
  <advance width="741"/>
  <unicode hex="0056"/>
  <note>
V
</note>
  <outline>
    <contour>
      <point x="673.38" y="655.17" type="line"/>
    </contour>
    <contour>
      <point x="104.55" y="728.99" type="curve" smooth="yes"/>
      <point x="92.86" y="710.11"/>
      <point x="87.14" y="687.55"/>
      <point x="88.61" y="665.39" type="curve"/>
      <point x="112.55" y="665.39" type="line"/>
      <point x="113.8" y="673.78"/>
      <point x="116.84" y="681.9"/>
      <point x="121.47" y="689" type="curve" smooth="yes"/>
      <point x="128.79" y="700.23"/>
      <point x="140.39" y="708.94"/>
      <point x="153.58" y="711.29" type="curve" smooth="yes"/>
      <point x="160.18" y="712.47"/>
      <point x="167.07" y="712.03"/>
      <point x="173.42" y="709.9" type="curve" smooth="yes"/>
      <point x="179.77" y="707.77"/>
      <point x="185.54" y="703.95"/>
      <point x="190.04" y="699" type="curve" smooth="yes"/>
      <point x="195.87" y="692.59"/>
      <point x="199.5" y="684.37"/>
      <point x="201.28" y="675.89" type="curve" smooth="yes"/>
      <point x="203.07" y="667.41"/>
      <point x="203.11" y="658.67"/>
      <point x="203.11" y="650" type="curve" smooth="yes"/>
      <point x="203.11" y="476.73" type="line"/>
      <point x="187.68" y="478.95"/>
      <point x="171.7" y="477.31"/>
      <point x="157.03" y="472" type="curve" smooth="yes"/>
      <point x="137.29" y="464.86"/>
      <point x="120.15" y="451.28"/>
      <point x="107.53" y="434.5" type="curve" smooth="yes"/>
      <point x="95.04" y="417.9"/>
      <point x="86.77" y="398.25"/>
      <point x="82.92" y="377.83" type="curve" smooth="yes"/>
      <point x="79.07" y="357.42"/>
      <point x="79.66" y="336.19"/>
      <point x="84.53" y="316" type="curve"/>
      <point x="107.53" y="316" type="line"/>
      <point x="107.49" y="317.13"/>
      <point x="107.48" y="318.25"/>
      <point x="107.49" y="319.38" type="curve" smooth="yes"/>
      <point x="107.54" y="325.53"/>
      <point x="108.27" y="331.69"/>
      <point x="110.06" y="337.57" type="curve" smooth="yes"/>
      <point x="111.85" y="343.45"/>
      <point x="114.79" y="349.02"/>
      <point x="118.95" y="353.54" type="curve" smooth="yes"/>
      <point x="122.6" y="357.51"/>
      <point x="127.13" y="360.62"/>
      <point x="132.08" y="362.76" type="curve" smooth="yes"/>
      <point x="137.02" y="364.9"/>
      <point x="142.34" y="366.1"/>
      <point x="147.68" y="366.73" type="curve" smooth="yes"/>
      <point x="158.38" y="368.01"/>
      <point x="179.97" y="367.49"/>
      <point x="179.97" y="367.49" type="curve"/>
      <point x="187.68" y="367.49"/>
      <point x="195.4" y="367.49"/>
      <point x="203.11" y="367.49" type="curve"/>
      <point x="203.11" y="154.07" type="line"/>
      <point x="139.42" y="127.25"/>
      <point x="85.78" y="76.2"/>
      <point x="57.65" y="12.94" type="curve"/>
      <point x="76.65" y="12.94" type="line"/>
      <point x="119.79" y="46.3"/>
      <point x="174.12" y="64.91"/>
      <point x="228.65" y="64.99" type="curve" smooth="yes"/>
      <point x="296.34" y="65.1"/>
      <point x="363.6" y="36.19"/>
      <point x="410.09" y="-13.01" type="curve"/>
      <point x="731.09" y="230.99" type="line"/>
      <point x="712.09" y="261.99" type="line"/>
      <point x="673.16" y="231.48" type="line"/>
      <point x="673.05" y="674.16" type="line"/>
      <point x="673.25" y="673.91" type="line"/>
      <point x="732.54" y="721.99" type="line"/>
      <point x="714.9" y="743.74" type="line"/>
      <point x="672.01" y="708.96" type="line"/>
      <point x="574.7" y="800.64" type="line"/>
      <point x="414.21" y="664.21" type="line"/>
      <point x="414.21" y="778.47" type="line"/>
      <point x="385.55" y="778.47" type="line"/>
      <point x="385.55" y="639.84" type="line"/>
      <point x="343.55" y="604.14" type="line"/>
      <point x="343.55" y="651.99" type="line" smooth="yes"/>
      <point x="343.55" y="667.47"/>
      <point x="343.32" y="683.06"/>
      <point x="340.15" y="698.22" type="curve" smooth="yes"/>
      <point x="336.98" y="713.37"/>
      <point x="330.89" y="727.97"/>
      <point x="321.8" y="740.5" type="curve" smooth="yes"/>
      <point x="312.71" y="753.03"/>
      <point x="300.75" y="763.41"/>
      <point x="287.26" y="771.01" type="curve" smooth="yes"/>
      <point x="273.78" y="778.61"/>
      <point x="258.84" y="783.51"/>
      <point x="243.55" y="785.99" type="curve" smooth="yes"/>
      <point x="217.39" y="790.23"/>
      <point x="190.07" y="787.61"/>
      <point x="165.34" y="778.07" type="curve" smooth="yes"/>
      <point x="140.61" y="768.53"/>
      <point x="118.5" y="751.53"/>
    </contour>
    <contour>
      <point x="548.54" y="508.07" type="line"/>
      <point x="414.21" y="440.25" type="line"/>
      <point x="414.21" y="501.87"/>
      <point x="414.21" y="563.48"/>
      <point x="414.21" y="625.1" type="curve"/>
      <point x="494.1" y="691.99" type="line"/>
      <point x="548.54" y="637.82" type="line"/>
    </contour>
    <contour>
      <point x="414.2" y="335.29" type="line"/>
      <point x="414.2" y="408.14" type="line"/>
      <point x="548.54" y="475.96" type="line"/>
      <point x="548.54" y="403.11" type="line"/>
    </contour>
    <contour>
      <point x="414.21" y="303.18" type="curve"/>
      <point x="548.54" y="371" type="line"/>
      <point x="548.54" y="133.83" type="line"/>
      <point x="499.6" y="95.48" type="line"/>
      <point x="475.16" y="119.8"/>
      <point x="445.93" y="139.03"/>
      <point x="414.21" y="152.47" type="curve"/>
      <point x="414.21" y="202.71"/>
      <point x="414.21" y="252.94"/>
    </contour>
    <contour>
      <point x="385.55" y="162.83" type="curve"/>
      <point x="371.81" y="166.97"/>
      <point x="357.75" y="170.07"/>
      <point x="343.55" y="172.07" type="curve"/>
      <point x="343.55" y="565.94" type="line"/>
      <point x="385.55" y="601.1" type="line"/>
      <point x="385.55" y="455.01"/>
      <point x="385.55" y="308.92"/>
    </contour>
  </outline>
</glyph>
<glyph name="W" format="2">
  <advance width="1001"/>
  <unicode hex="0057"/>
  <note>
W
</note>
  <outline>
    <contour>
      <point x="78.34" y="301.1" type="curve"/>
      <point x="97.46" y="301.11" type="line"/>
      <point x="96.16" y="308.26"/>
      <point x="96.37" y="315.69"/>
      <point x="98.12" y="322.75" type="curve" smooth="yes"/>
      <point x="101.06" y="334.65"/>
      <point x="108.66" y="345.43"/>
      <point x="119.2" y="351.69" type="curve" smooth="yes"/>
      <point x="124.47" y="354.82"/>
      <point x="130.37" y="356.82"/>
      <point x="136.41" y="357.85" type="curve" smooth="yes"/>
      <point x="142.45" y="358.88"/>
      <point x="148.61" y="358.95"/>
      <point x="154.74" y="358.95" type="curve" smooth="yes"/>
      <point x="167.99" y="358.95"/>
      <point x="181.24" y="358.95"/>
      <point x="194.49" y="358.95" type="curve"/>
      <point x="194.49" y="290.8"/>
      <point x="194.49" y="222.66"/>
      <point x="194.49" y="154.51" type="curve"/>
      <point x="130.51" y="127.95"/>
      <point x="76.66" y="76.6"/>
      <point x="49" y="12.95" type="curve"/>
      <point x="68" y="12.95" type="line"/>
      <point x="110.35" y="47.57"/>
      <point x="165.32" y="66.39"/>
      <point x="220" y="65" type="curve" smooth="yes"/>
      <point x="280.67" y="63.46"/>
      <point x="340.33" y="36.84"/>
      <point x="382" y="-7.28" type="curve"/>
      <point x="516.25" y="102.65" type="line"/>
      <point x="687.98" y="-14.18" type="line"/>
      <point x="957.8" y="187.94" type="line"/>
      <point x="957.8" y="692.11" type="line"/>
      <point x="859.9" y="784.26" type="line"/>
      <point x="722.8" y="681.67" type="line"/>
      <point x="722.8" y="771.07" type="line"/>
      <point x="694.14" y="771.07" type="line"/>
      <point x="694.14" y="562.32"/>
      <point x="694.14" y="353.57"/>
      <point x="694.14" y="144.82" type="curve"/>
      <point x="641.8" y="180.01" type="line"/>
      <point x="641.8" y="692.26" type="line"/>
      <point x="543.9" y="785.01" type="line"/>
      <point x="407.8" y="683.17" type="line"/>
      <point x="407.8" y="771.07" type="line"/>
      <point x="379.14" y="771.07" type="line"/>
      <point x="379.14" y="567.69"/>
      <point x="379.14" y="364.32"/>
      <point x="379.14" y="160.94" type="curve"/>
      <point x="364.27" y="165.78"/>
      <point x="348.99" y="169.35"/>
      <point x="333.51" y="171.6" type="curve"/>
      <point x="333.51" y="509.94" type="line"/>
      <point x="333.51" y="566.94" type="line" smooth="yes"/>
      <point x="333.51" y="589.14"/>
      <point x="334.1" y="611.35"/>
      <point x="333.53" y="633.55" type="curve" smooth="yes"/>
      <point x="332.96" y="655.75"/>
      <point x="330.62" y="678.19"/>
      <point x="322.72" y="698.94" type="curve" smooth="yes"/>
      <point x="314.62" y="720.25"/>
      <point x="300.5" y="739.26"/>
      <point x="282.29" y="752.98" type="curve" smooth="yes"/>
      <point x="264.08" y="766.7"/>
      <point x="242.22" y="775.27"/>
      <point x="219.72" y="778.94" type="curve" smooth="yes"/>
      <point x="191.12" y="783.6"/>
      <point x="161.12" y="780.66"/>
      <point x="134.47" y="769.27" type="curve" smooth="yes"/>
      <point x="107.82" y="757.89"/>
      <point x="84.74" y="737.3"/>
      <point x="72.72" y="710.94" type="curve" smooth="yes"/>
      <point x="65.34" y="694.76"/>
      <point x="62.17" y="676.66"/>
      <point x="63.72" y="658.94" type="curve"/>
      <point x="88.72" y="658.94" type="line"/>
      <point x="91.22" y="671.39"/>
      <point x="97.81" y="682.99"/>
      <point x="107.27" y="691.46" type="curve" smooth="yes"/>
      <point x="116.73" y="699.93"/>
      <point x="129.04" y="705.26"/>
      <point x="141.72" y="705.94" type="curve" smooth="yes"/>
      <point x="149.72" y="706.37"/>
      <point x="157.83" y="704.95"/>
      <point x="165.13" y="701.65" type="curve" smooth="yes"/>
      <point x="172.43" y="698.35"/>
      <point x="178.86" y="693.17"/>
      <point x="183.64" y="686.74" type="curve" smooth="yes"/>
      <point x="188.42" y="680.31"/>
      <point x="191.5" y="672.71"/>
      <point x="193.08" y="664.86" type="curve" smooth="yes"/>
      <point x="194.66" y="657.01"/>
      <point x="194.72" y="648.94"/>
      <point x="194.72" y="640.94" type="curve" smooth="yes"/>
      <point x="194.5" y="516.94" type="line" smooth="yes"/>
      <point x="194.5" y="502"/>
      <point x="194.5" y="487.05"/>
      <point x="194.5" y="472.11" type="curve"/>
      <point x="169.71" y="468.44"/>
      <point x="144.43" y="465.62"/>
      <point x="121.82" y="454.99" type="curve" smooth="yes"/>
      <point x="107.8" y="448.4"/>
      <point x="95.17" y="438.76"/>
      <point x="85.53" y="426.64" type="curve" smooth="yes"/>
      <point x="75.88" y="414.52"/>
      <point x="69.23" y="400.1"/>
      <point x="65.82" y="384.99" type="curve" smooth="yes"/>
      <point x="59.46" y="356.8"/>
      <point x="64.28" y="326.36"/>
    </contour>
    <contour>
      <point x="407.81" y="149.77" type="curve"/>
      <point x="407.81" y="201.77"/>
      <point x="407.81" y="253.78"/>
      <point x="407.81" y="305.78" type="curve"/>
      <point x="512.81" y="358.79" type="line"/>
      <point x="512.81" y="181.64" type="line"/>
      <point x="448.02" y="127" type="line"/>
      <point x="435.32" y="135.76"/>
      <point x="421.84" y="143.37"/>
    </contour>
    <contour>
      <point x="512.81" y="495.85" type="line"/>
      <point x="407.81" y="442.85" type="line"/>
      <point x="407.81" y="513.62"/>
      <point x="407.81" y="584.4"/>
      <point x="407.81" y="655.17" type="curve"/>
      <point x="448.17" y="685.43" type="line"/>
      <point x="512.81" y="631.74" type="line"/>
    </contour>
    <contour>
      <point x="407.81" y="337.88" type="line"/>
      <point x="407.81" y="410.73" type="line"/>
      <point x="512.81" y="463.74" type="line"/>
      <point x="512.81" y="390.89" type="line"/>
    </contour>
    <contour>
      <point x="828.81" y="496.35" type="line"/>
      <point x="722.81" y="442.84" type="line"/>
      <point x="722.81" y="653.66" type="line"/>
      <point x="764.17" y="684.67" type="line"/>
      <point x="828.81" y="630.98" type="line"/>
    </contour>
    <contour>
      <point x="722.81" y="337.87" type="line"/>
      <point x="722.81" y="410.73" type="line"/>
      <point x="828.81" y="464.24" type="line"/>
      <point x="828.81" y="391.39" type="line"/>
    </contour>
    <contour>
      <point x="722.81" y="132.61" type="line"/>
      <point x="722.81" y="305.76" type="line"/>
      <point x="828.81" y="359.27" type="line"/>
      <point x="828.81" y="136.3" type="line"/>
      <point x="769.99" y="93.79" type="line"/>
      <point x="712.28" y="132.59" type="line"/>
    </contour>
  </outline>
</glyph>
